<svg width="1367" height="597" viewBox="0 0 1367 597" fill="none" xmlns="http://www.w3.org/2000/svg">
<g style="mix-blend-mode:soft-light">
<g style="mix-blend-mode:soft-light">
<g style="mix-blend-mode:soft-light">
<path d="M684.325 210.266C684.062 217.939 683.776 225.875 683.597 233.633C683.406 241.819 685.841 256.415 687.905 267.227C689.802 277.129 697.448 284.93 707.31 287.026C722.824 290.332 744.723 294.902 760.572 297.969C776.695 301.072 793.068 304.354 808.893 307.517C843.502 314.474 879.4 321.67 914.951 327.459C920.131 328.294 925.561 329.308 930.8 330.287C944.094 332.769 957.854 335.323 970.982 335.86C972.175 335.86 973.524 336.003 974.968 336.111C977.641 336.29 980.625 336.505 983.632 336.505C990.196 336.505 996.891 335.514 1000.77 331.146C1005.89 325.37 1006.93 312.899 1007.76 302.874C1007.94 300.702 1008.12 298.638 1008.31 296.967C1010.93 274.769 1010.04 254.935 1005.39 230.613C1004.27 224.778 1003.34 218.775 1002.44 212.963C1000.63 201.232 998.741 189.095 995.184 177.399C988.024 153.877 976.842 136 961.136 114.781C928.914 71.2812 890.463 47.5681 842.583 25.2753C809.215 9.72136 772.874 1.57866 736.059 1.40706H735.391C732.169 1.40706 728.565 1.13258 724.71 0.834227C709.017 -0.359183 689.457 -1.89868 684.134 15.7996C681.532 24.7502 681.699 35.5266 681.878 45.957C681.962 51.2677 682.034 56.292 681.735 60.7911C680.816 74.6347 683.68 130.665 684.54 144.473C685.888 166.205 685.113 188.605 684.325 210.266Z" fill="#EAF3F3"/>
</g>
<g style="mix-blend-mode:soft-light">
<path d="M1015.54 405.173C1013.66 401.098 1010.22 397.947 1006 396.426C998.5 393.544 990.797 391.234 982.952 389.516C959.084 384.933 934.989 379.718 910.345 374.324C896.835 371.376 882.992 368.81 869.614 366.328C854.744 363.571 839.384 360.719 824.467 357.33C811.805 354.465 765.25 338.342 738.613 328.986C734.864 327.72 730.732 329.131 728.542 332.427C726.351 335.722 726.649 340.078 729.269 343.044C752.874 369.395 767.052 385.363 769.176 388C783.497 405.806 826.018 456.442 848.836 483.64L858.443 495.085C863.515 501.147 869.184 507.484 874.709 513.618C884.09 524.061 893.804 534.873 901.573 545.447C906.943 552.738 911.61 556.187 916.717 556.748C917.146 556.792 917.576 556.812 918.006 556.808C922.159 556.808 926.456 554.779 931.074 550.626C952.639 531.245 977.068 506.744 994.79 472.016C999.504 462.755 1010.17 434.233 1016.1 418.062C1017.65 413.864 1017.45 409.221 1015.54 405.173Z" fill="#EAF3F3"/>
</g>
<g style="mix-blend-mode:soft-light">
<path d="M780.717 467.839L778.33 465.094C752.91 435.689 726.619 405.293 699.756 376.317L695.913 372.187C677.761 352.663 652.891 325.967 652.652 309.629C652.473 297.599 652.246 283.374 651.984 267.776C650.719 190.646 649 85.0293 651.279 46.6731C651.546 42.2818 649.953 37.9808 646.891 34.8227C643.828 31.6645 639.578 29.9406 635.18 30.0728C625.729 30.3473 612.804 31.0036 604.856 32.5551C595.404 34.3929 549.959 47.2221 516.376 72.0688C494.513 88.2515 476.922 105.15 457.219 125.534C439.736 143.626 423.899 169.845 415.999 183.856C407.824 198.391 386.987 261.487 385.913 281.393C384.015 316.443 383.013 357.103 395.114 396.079C407.716 436.655 431.024 473.377 466.373 508.379C509.968 551.545 555.007 576.678 608.126 587.455C631.362 592.091 654.887 595.141 678.537 596.584C681.091 596.743 683.716 596.823 686.413 596.823C705.747 596.823 728.469 592.849 754.116 584.996C774.202 578.672 793.507 570.092 811.662 559.421C816.042 556.856 822.605 551.688 831.174 544.074C834.095 541.495 835.84 537.836 836.004 533.943C836.168 530.049 834.739 526.257 832.045 523.44C818.548 509.227 793.916 483.091 780.717 467.839Z" fill="#EAF3F3"/>
</g>
</g>
</g>
<path d="M444.962 205.603C452.713 190.53 447.549 180.248 433.464 176.611C422.443 173.765 406.651 175.436 396.344 180.132C387.556 184.146 380.552 190.556 370.966 201.946C369.847 203.277 365.737 208.236 364.8 209.35C362.291 212.339 354.29 222.097 353.228 223.375C352.004 224.847 350.867 226.199 349.781 227.469C350.306 220.832 350.496 215.531 350.287 210.174C349.595 192.42 344.356 180.545 332.307 176.814C325.945 174.899 319.204 178.212 316.84 184.4C314.458 191.058 312.509 197.811 310.988 204.664C309.022 212.486 306.652 219.443 301.937 231.937C301.704 232.556 301.644 232.714 301.061 234.258C298.583 240.813 297.41 243.979 296.075 247.799C296.004 248.003 296.004 248.003 295.933 248.207C295.26 250.156 292.895 257.358 292.476 258.595C290.071 265.702 288.11 270.434 285.841 274.129C281.92 280.515 265.688 284.747 217.083 292.594C207.765 294.1 191.397 295.335 170.045 296.312C157.793 296.874 82.606 297.316 69.4752 297.652C64.8791 297.77 60.6113 297.866 56.7816 297.941C55.4415 297.968 54.252 297.99 53.2269 298.008C52.6123 298.019 52.1894 298.026 51.9719 298.029C50.6683 298.05 49.6221 299.112 49.6221 300.416V443.028C49.6221 444.346 50.6907 445.415 52.0089 445.415C57.4058 445.415 63.4088 445.535 71.5452 445.787C75.8801 445.921 154.918 446.508 157.965 446.608C181.159 447.37 200.886 447.767 224.453 447.802C233.243 447.802 240.423 447.864 259.784 448.077C263.911 448.122 266.382 448.149 269.018 448.176C289.245 448.383 302.432 448.419 314.001 448.231C342.717 447.801 371.348 444.941 399.585 439.682C416.155 436.671 483.41 413.858 500.036 405.152C507.078 401.473 514.425 396.001 519.042 390.361C525.448 382.537 526.555 374.589 520.458 367.779C517.299 364.256 513.067 362.698 507.557 362.587C503.651 362.508 501.079 362.853 491.939 364.411C483.82 365.795 479.275 366.309 474.241 366.15C457.518 365.622 441.956 350.547 435.525 330.801C428.081 307.514 444.014 278.362 467.241 273.148C475.245 271.331 483.316 273.439 498.014 279.63C499.362 280.199 500.118 280.584 503.309 282.279C507.419 284.462 509.689 285.481 512.359 286.109C515.569 286.864 518.544 286.675 521.344 285.336C531.196 280.618 531.665 266.075 524.651 256.985C517.275 247.436 506.722 239.034 496.488 234.926C477.919 227.494 459.936 227.763 439.821 235.015C436.547 236.208 433.316 237.506 430.131 238.908C436.615 222.986 440.089 215.098 444.962 205.603Z" fill="#FCB7A0"/>
<path d="M395.766 258.706C404.391 251.558 416.77 244.44 429.31 239.175C430.526 238.665 431.097 237.266 430.587 236.05C430.077 234.835 428.678 234.263 427.462 234.773C414.517 240.209 401.739 247.557 392.72 255.03C391.705 255.872 391.564 257.376 392.405 258.391C393.246 259.406 394.751 259.547 395.766 258.706Z" fill="#DC8173"/>
<path d="M332.389 246.096C338.609 241.05 344.4 235.498 349.703 229.497C350.576 228.509 350.483 227.001 349.495 226.128C348.508 225.255 346.999 225.348 346.126 226.336C340.998 232.14 335.397 237.509 329.381 242.388C328.358 243.219 328.201 244.722 329.031 245.746C329.862 246.769 331.365 246.926 332.389 246.096Z" fill="#DC8173"/>
<path d="M424.649 175.501C420.829 176.684 415.714 182.021 410.91 188.357C409.278 190.511 407.598 192.771 405.489 195.641C404.568 196.894 401.351 201.285 401.336 201.305C395.19 209.685 391.458 214.596 387.344 219.568C385.348 221.982 383.743 224.006 380.364 228.33L380.106 228.66C375.746 234.241 373.653 236.852 371.036 239.892C370.239 240.82 369.463 241.764 368.352 243.145C368.131 243.42 367.363 244.375 367.356 244.385C364.486 247.955 362.907 249.776 361.032 251.536C360.071 252.438 360.023 253.949 360.925 254.91C361.827 255.871 363.338 255.919 364.299 255.016C366.386 253.057 368.072 251.114 371.077 247.375C371.086 247.364 371.851 246.41 372.07 246.138C373.153 244.794 373.901 243.884 374.656 243.005C377.336 239.891 379.461 237.239 383.868 231.599L384.125 231.27C387.478 226.979 389.063 224.979 391.022 222.611C395.211 217.548 398.988 212.578 405.185 204.129C405.202 204.105 408.417 199.718 409.335 198.469C411.432 195.616 413.099 193.373 414.715 191.24C418.8 185.852 423.628 180.814 426.061 180.061C427.32 179.671 428.025 178.334 427.635 177.075C427.245 175.816 425.909 175.111 424.649 175.501Z" fill="#DC8173"/>
<path d="M173.355 446.513C139.736 446.453 115.236 445.618 95.5682 444.938C82.5123 444.484 72.1893 444.126 62.9643 444.126C61.6461 444.126 60.5775 443.058 60.5775 441.739L59.3841 302.755C59.3841 302.12 88.389 301.422 144.012 298.275C158.226 297.471 183.235 295.682 219.038 292.909C204.121 238.012 147.493 204.382 97.3106 224.288C40.373 246.879 28.3912 297.086 48.7985 356.757C38.6426 339.285 22.2213 341.779 13.1275 351.577C3.50862 361.96 0 383.656 0 404.612C0 425.569 0.823453 445.523 17.8176 462.242C33.9286 478.115 53.4767 480.847 73.6811 480.549C95.0431 480.227 116.286 480.155 137.636 480.37C158.759 480.573 180.408 482.339 201.925 482.602C217.654 482.793 233.312 482.196 248.635 479.606C263.958 477.017 282.182 464.892 289.557 449.676V447.122C280.75 447.683 183.117 446.537 173.355 446.513Z" fill="#91D5DD"/>
<path d="M80.8654 285.45C89.5057 273.516 110.032 275.593 120.845 287.241C139.438 307.29 129.198 330.203 116.668 354.072C149.307 337.984 181.112 391.664 164.404 456.705H53.7153V295.296L80.8654 285.45Z" fill="#91D5DD"/>
<path d="M121.621 349.681C128.076 336.929 131.374 328.385 132.784 319.603C134.856 306.707 131.809 295.553 122.595 285.618C110.466 272.551 88.2841 271.134 78.9322 284.051C78.1592 285.118 78.398 286.611 79.4658 287.384C80.5335 288.157 82.0258 287.918 82.7988 286.85C90.1983 276.63 108.845 277.822 119.095 288.864C127.275 297.685 129.917 307.355 128.071 318.845C126.574 328.167 122.677 337.491 114.555 352.962C113.48 355.008 115.65 357.234 117.723 356.212C132.176 349.089 147.139 356.839 156.914 376.048C167.381 396.616 169.799 426.109 162.092 456.111C161.764 457.388 162.534 458.689 163.81 459.017C165.087 459.344 166.388 458.575 166.716 457.299C174.701 426.214 172.185 395.532 161.169 373.883C151.595 355.068 136.766 345.771 121.621 349.681Z" fill="#1A4E66"/>
<path d="M370.052 521.316C367.296 519.466 359.157 519.323 353.464 520.743C356.304 507.89 356.412 494.106 343.642 483.747C333.081 475.155 322.972 471.873 308.723 472.422C298.818 472.804 287.242 478.234 279.21 486.254C272.61 492.865 271.143 498.713 270.999 505.587C269.593 504.403 268.01 503.445 266.309 502.747C258.85 499.596 249.602 500.777 244.374 505.563C235.531 513.618 234.35 526.877 241.558 537.081C249.184 547.893 261.345 548.931 273.1 549.946L275.391 550.149C289.008 551.342 337.448 552.273 351.006 552.273H352.414C367.928 552.178 376.377 547.917 378.335 539.229C380.005 531.854 375.232 524.789 370.052 521.316Z" fill="#91D5DD"/>
<path d="M29.8037 421.494C30.9648 412.48 37.5119 404.086 45.6596 400.74C54.2137 397.226 62.4948 399.92 68.027 409.407C68.6911 410.546 70.1525 410.93 71.2912 410.266C72.43 409.602 72.8148 408.141 72.1507 407.002C65.4058 395.436 54.5813 391.915 43.8459 396.324C34.1246 400.317 26.4513 410.155 25.0691 420.884C24.9007 422.191 25.824 423.388 27.1314 423.556C28.4388 423.725 29.6352 422.801 29.8037 421.494Z" fill="#1A4E66"/>
<path d="M533.37 291.635C542.668 295.488 549.733 302.945 553.219 311.99C565.148 310.199 581.208 307.298 599.509 303.626C603.937 302.743 608.4 301.824 612.887 300.905C628.02 297.802 643.653 294.592 658.81 292.289C660.266 292.074 661.841 291.811 663.464 291.537C670.863 290.296 678.501 289.007 681.532 290.463C683.41 291.176 684.771 292.828 685.112 294.807C685.112 295.964 684.79 297.766 682.427 299.461C680.649 300.75 678.624 301.652 676.164 302.39C676.497 304.481 676.858 306.553 677.296 308.65L677.579 310.07C678.214 313.392 678.673 316.782 679.122 320.071C679.36 321.73 679.587 323.401 679.826 325.048C679.933 325.728 680.076 326.456 680.22 327.208C680.804 330.251 681.532 333.712 680.22 336.397C679.134 338.253 677.154 339.404 675.004 339.428L674.419 339.427C672.413 339.373 670.571 338.274 669.574 336.516C668.902 335.259 668.351 333.94 667.927 332.578C666.65 328.891 665.732 326.659 662.975 326.957C661.053 327.172 660.516 328.735 659.86 331.277C659.287 333.426 658.583 336.111 655.85 336.493C650.778 337.233 647.413 332.399 645.837 322.172C645.384 319.212 644.596 315.596 643.809 311.956C643.579 310.894 643.347 309.823 643.122 308.762L642.567 308.865C621.599 312.756 589.95 318.639 567.383 322.601C563.654 323.25 559.246 323.925 555.623 324.457C555.626 324.627 555.628 324.795 555.628 324.964C555.601 344.865 539.475 360.991 519.575 361.017C504.986 361.022 491.831 352.237 486.245 338.759C480.66 325.282 483.745 309.767 494.061 299.451C504.377 289.135 519.892 286.05 533.37 291.635ZM519.575 300.834C509.814 300.829 501.011 306.705 497.272 315.722C493.534 324.738 495.595 335.119 502.495 342.023C509.396 348.927 519.776 350.994 528.794 347.259C537.813 343.525 543.693 334.725 543.693 324.964C543.654 311.666 532.873 300.901 519.575 300.881V300.834Z" fill="#FCD400"/>
<path d="M965.839 205.603C958.088 190.53 963.252 180.248 977.337 176.611C988.358 173.765 1004.15 175.436 1014.46 180.132C1023.24 184.146 1030.25 190.556 1039.83 201.946C1040.95 203.277 1045.06 208.236 1046 209.35C1048.51 212.339 1056.51 222.097 1057.57 223.375C1058.8 224.847 1059.93 226.199 1061.02 227.469C1060.5 220.832 1060.3 215.531 1060.51 210.174C1061.21 192.42 1066.45 180.545 1078.49 176.814C1084.86 174.899 1091.6 178.212 1093.96 184.4C1096.34 191.058 1098.29 197.811 1099.81 204.664C1101.78 212.486 1104.15 219.443 1108.86 231.937C1109.1 232.556 1109.16 232.714 1109.74 234.258C1112.22 240.813 1113.39 243.979 1114.73 247.799C1114.8 248.003 1114.8 248.003 1114.87 248.207C1115.54 250.156 1117.91 257.358 1118.33 258.595C1120.73 265.702 1122.69 270.434 1124.96 274.129C1128.88 280.515 1145.11 284.747 1193.72 292.594C1203.04 294.1 1219.4 295.335 1240.76 296.312C1253.01 296.874 1328.2 297.316 1341.33 297.652C1345.92 297.77 1350.19 297.866 1354.02 297.941C1355.36 297.968 1356.55 297.99 1357.57 298.008C1358.19 298.019 1358.61 298.026 1358.83 298.029C1360.13 298.05 1361.18 299.112 1361.18 300.416V443.028C1361.18 444.346 1360.11 445.415 1358.79 445.415C1353.4 445.415 1347.39 445.535 1339.26 445.787C1334.92 445.921 1255.88 446.508 1252.84 446.608C1229.64 447.37 1209.92 447.767 1186.35 447.802C1177.56 447.802 1170.38 447.864 1151.02 448.077C1146.89 448.122 1144.42 448.149 1141.78 448.176C1121.56 448.383 1108.37 448.419 1096.8 448.231C1068.08 447.801 1039.45 444.941 1011.22 439.682C994.646 436.671 927.391 413.858 910.765 405.152C903.723 401.473 896.376 396.001 891.759 390.361C885.353 382.537 884.246 374.589 890.343 367.779C893.502 364.256 897.734 362.698 903.244 362.587C907.15 362.508 909.722 362.853 918.862 364.411C926.981 365.795 931.526 366.309 936.56 366.15C953.283 365.622 968.845 350.547 975.276 330.801C982.72 307.514 966.787 278.362 943.56 273.148C935.557 271.331 927.485 273.439 912.787 279.63C911.439 280.199 910.683 280.584 907.492 282.279C903.382 284.462 901.112 285.481 898.442 286.109C895.232 286.864 892.257 286.675 889.457 285.336C879.605 280.618 879.136 266.075 886.15 256.985C893.526 247.436 904.079 239.034 914.313 234.926C932.882 227.494 950.865 227.763 970.98 235.015C974.254 236.208 977.485 237.506 980.67 238.908C974.186 222.986 970.712 215.098 965.839 205.603Z" fill="#FCB7A0"/>
<path d="M1015.04 258.706C1006.41 251.558 994.031 244.44 981.491 239.175C980.275 238.665 979.704 237.266 980.214 236.05C980.724 234.835 982.123 234.263 983.339 234.773C996.284 240.209 1009.06 247.557 1018.08 255.03C1019.1 255.872 1019.24 257.376 1018.4 258.391C1017.55 259.406 1016.05 259.547 1015.04 258.706Z" fill="#DC8173"/>
<path d="M1078.41 246.096C1072.19 241.05 1066.4 235.498 1061.1 229.497C1060.22 228.509 1060.32 227.001 1061.31 226.128C1062.29 225.255 1063.8 225.348 1064.67 226.336C1069.8 232.14 1075.4 237.509 1081.42 242.388C1082.44 243.219 1082.6 244.722 1081.77 245.746C1080.94 246.769 1079.44 246.926 1078.41 246.096Z" fill="#DC8173"/>
<path d="M986.152 175.501C989.972 176.684 995.087 182.021 999.891 188.357C1001.52 190.511 1003.2 192.771 1005.31 195.641C1006.23 196.894 1009.45 201.285 1009.46 201.305C1015.61 209.685 1019.34 214.596 1023.46 219.568C1025.45 221.982 1027.06 224.006 1030.44 228.33L1030.69 228.66C1035.06 234.241 1037.15 236.852 1039.76 239.892C1040.56 240.82 1041.34 241.764 1042.45 243.145C1042.67 243.42 1043.44 244.375 1043.45 244.385C1046.31 247.955 1047.89 249.776 1049.77 251.536C1050.73 252.438 1050.78 253.949 1049.88 254.91C1048.97 255.871 1047.46 255.919 1046.5 255.016C1044.41 253.057 1042.73 251.114 1039.72 247.375C1039.72 247.364 1038.95 246.41 1038.73 246.138C1037.65 244.794 1036.9 243.884 1036.15 243.005C1033.47 239.891 1031.34 237.239 1026.93 231.599L1026.68 231.27C1023.32 226.979 1021.74 224.979 1019.78 222.611C1015.59 217.548 1011.81 212.578 1005.62 204.129C1005.6 204.105 1002.38 199.718 1001.47 198.469C999.369 195.616 997.702 193.373 996.086 191.24C992.001 185.852 987.173 180.814 984.74 180.061C983.481 179.671 982.776 178.334 983.166 177.075C983.556 175.816 984.892 175.111 986.152 175.501Z" fill="#DC8173"/>
<path d="M1322.21 370.078C1322.21 337.235 1315.35 308.028 1304.7 289.413H1330.75V464.844H1293.75C1310.42 449.968 1322.21 413.154 1322.21 370.078Z" fill="white"/>
<path d="M1211.36 296.003C1211.44 292.59 1211.51 289.176 1211.59 285.797C1211.69 281.677 1211.79 277.573 1211.88 273.484C1211.88 271.864 1211.95 270.105 1211.98 268.254C1212.16 256.011 1212.4 239.232 1217.53 229.349C1226.65 211.794 1248.89 209.85 1265.11 208.439C1267.07 208.277 1268.93 208.115 1270.67 207.929C1288.07 206.101 1319.35 207.42 1341.26 209.654C1351.22 210.672 1359.34 217.754 1362.95 228.539C1366.93 240.4 1366.54 277.072 1366.54 281.215C1366.31 297.959 1366.24 316.486 1366.16 336.1C1366.04 365.03 1365.92 394.886 1365.29 419.974C1365.24 422.867 1365.17 425.771 1365.09 428.687C1364.58 451.762 1364.03 475.635 1361.08 498.119C1357.49 525.382 1338.35 527.049 1321.36 528.484C1319.38 528.657 1317.38 528.831 1315.38 529.039C1308.47 529.768 1293.53 530.463 1280.37 530.463C1273.89 530.561 1267.41 530.275 1260.96 529.606L1259.31 529.386C1249.83 528.137 1230.09 525.533 1220.93 517.178C1210.47 507.631 1208.7 490.134 1208.32 475.959C1208.06 466.616 1207.9 457.093 1207.83 447.388H1209.82C1215.81 447.388 1221.37 447.388 1226.74 447.295C1228.68 452.566 1233.42 456.404 1239.12 457.316C1248.69 459.249 1258.79 460.279 1268.55 461.274L1272.55 461.691C1281.8 462.651 1291.36 463.646 1300.82 464.005C1308.42 464.294 1315.75 464.352 1321.99 461.783C1328.22 459.214 1329.74 454.4 1330.62 446.797C1331.16 441.089 1331.32 435.353 1331.1 429.625C1331.04 425.586 1330.98 421.409 1331.19 417.277C1332.24 395.8 1332.12 373.964 1331.99 352.833C1331.99 349.42 1331.99 346.006 1331.99 342.592C1331.99 338.715 1332.13 334.665 1332.27 330.754C1332.82 316.868 1333.39 302.472 1326.7 290.53L1326.6 290.379C1326.47 290.167 1326.38 289.937 1326.33 289.697C1325.13 284.721 1313.78 281.11 1303.6 279.861C1297.44 279.097 1291.14 278.437 1285.05 277.812C1280.53 277.349 1276 276.867 1271.47 276.366C1267.05 275.857 1262.66 274.989 1258.41 274.144C1253.43 273.064 1248.4 272.268 1243.32 271.76C1234.71 271.077 1229.76 272.547 1227.23 276.539C1224.71 280.532 1224.72 286.318 1224.77 291.838C1224.77 293.932 1224.77 295.922 1224.67 297.843C1221.9 297.554 1219.38 297.23 1217.23 296.894L1211.36 296.003Z" fill="#1A4E66"/>
<path d="M1320.8 302.492C1320.09 302.492 1252.34 301.428 1222.63 297.866C1222.74 292.638 1222.86 287.457 1222.98 282.264C1223.24 271.058 1222.53 247.985 1227.41 238.12C1235.79 221.316 1258.23 221.27 1271.9 219.766C1286.94 218.124 1303.1 219.327 1316.42 221.478C1321.98 222.368 1329.74 224.6 1333.32 233.563C1336.9 242.526 1336.8 277.846 1336.67 288.128C1336.19 326.293 1336.61 378.821 1335.72 416.848C1335.18 440.209 1335.2 469.677 1332.32 492.669C1329.11 518.482 1314.96 516.817 1298.34 518.667C1286.97 519.801 1275.52 520.037 1264.1 519.372C1257.48 518.898 1238.48 516.261 1230.5 508.617C1221.91 500.394 1220.51 484.816 1220.2 472.58C1220 464.403 1219.84 456.03 1219.76 447.541C1248.56 447.368 1270.29 446.639 1288.08 446.05C1301.18 445.61 1311.54 445.263 1320.79 445.263C1322.12 445.263 1323.19 444.228 1323.19 442.95V304.793C1323.18 303.525 1322.12 302.498 1320.8 302.492Z" fill="white"/>
<path d="M1277.19 474.391C1264.55 474.391 1253.23 463.82 1244.82 446.4C1261.83 446.083 1275.92 445.601 1288.13 445.225C1296.59 444.932 1303.86 444.685 1310.46 444.556C1301.97 463.08 1290.29 474.391 1277.19 474.391Z" fill="#0D323F"/>
<path d="M1276.47 266.738C1291.16 266.738 1304.1 280.487 1312.85 302.54C1298.43 302.249 1266.17 301.432 1241.24 299.765C1249.94 279.344 1262.41 266.738 1276.47 266.738Z" fill="#0D323F"/>
<path d="M1339.69 216.952C1345.99 220.556 1348.57 230.687 1349.32 246.989C1349.53 251.602 1349.57 255.38 1349.57 262.896C1349.57 266.523 1349.57 267.948 1349.6 269.546C1349.8 280.009 1349.86 292.126 1349.84 309.022C1349.83 312.826 1349.82 316.1 1349.81 322.537C1349.77 335.83 1349.76 341.027 1349.78 347.406C1349.86 387.488 1348.83 430.331 1346.81 478.021C1346.26 491.022 1344.1 503.504 1340.26 512.334C1339.74 513.519 1338.31 514.086 1337.05 513.6C1335.79 513.113 1335.19 511.759 1335.71 510.574C1339.29 502.34 1341.36 490.345 1341.89 477.837C1343.9 430.206 1344.93 387.426 1344.85 347.415C1344.84 341.027 1344.85 335.826 1344.88 322.526C1344.9 316.09 1344.91 312.818 1344.91 309.015C1344.94 292.147 1344.88 280.055 1344.68 269.629C1344.65 267.991 1344.64 266.552 1344.65 262.894C1344.65 255.445 1344.61 251.714 1344.4 247.191C1343.73 232.608 1341.37 223.339 1337.14 220.916C1335.97 220.251 1335.6 218.825 1336.31 217.73C1337.02 216.635 1338.53 216.287 1339.69 216.952Z" fill="#0D323F"/>
<path d="M1356.06 300.223C1356.06 292.514 1355.98 286.013 1355.81 279.863C1355.77 278.584 1356.76 277.517 1358.01 277.48C1359.25 277.442 1360.3 278.449 1360.33 279.728C1360.51 285.929 1360.58 292.472 1360.58 300.223C1360.58 301.503 1359.57 302.54 1358.32 302.54C1357.07 302.54 1356.06 301.503 1356.06 300.223Z" fill="#0D323F"/>
<path d="M1355.81 333.532C1355.98 326.673 1356 319.573 1355.88 312.103C1355.86 310.798 1356.88 309.722 1358.15 309.701C1359.43 309.68 1360.49 310.721 1360.51 312.026C1360.63 319.559 1360.61 326.724 1360.44 333.65C1360.4 334.956 1359.34 335.987 1358.06 335.955C1356.79 335.922 1355.78 334.838 1355.81 333.532Z" fill="#0D323F"/>
<path d="M1253.17 451.559C1260.39 463.419 1268.85 469.747 1277.46 469.747C1300.43 469.747 1320.04 425.205 1320.04 369.974C1320.04 314.758 1300.41 270.189 1277.46 270.189C1267.73 270.189 1258.2 278.288 1250.5 293.128C1249.91 294.271 1248.48 294.727 1247.31 294.146C1246.14 293.564 1245.68 292.166 1246.27 291.023C1254.7 274.791 1265.58 265.544 1277.46 265.544C1304.12 265.544 1324.78 312.459 1324.78 369.974C1324.78 427.505 1304.14 474.391 1277.46 474.391C1266.89 474.391 1257.08 467.062 1249.1 453.937C1248.43 452.835 1248.8 451.41 1249.92 450.753C1251.05 450.097 1252.5 450.458 1253.17 451.559Z" fill="#0D323F"/>
</svg>
