<svg width="900" height="540" viewBox="0 0 900 540" fill="none" xmlns="http://www.w3.org/2000/svg">
<path fill-rule="evenodd" clip-rule="evenodd" d="M824.554 526.369H653.669V355.485H824.554V526.369Z" fill="#B6CCFC"/>
<mask id="mask0" mask-type="alpha" maskUnits="userSpaceOnUse" x="653" y="355" width="172" height="94">
<path d="M824.554 355.485H653.669V448.927H824.554V355.485Z" fill="white"/>
</mask>
<g mask="url(#mask0)">
<path d="M870.491 401.68C870.491 401.68 807.311 358.777 794.393 377.388C781.474 395.998 795.128 454.146 739.213 448.549C683.298 442.951 683.55 344.866 720.518 351.41C757.487 357.953 760.497 466.775 648.937 395.168" stroke="#EE82DA" stroke-width="17"/>
</g>
<mask id="mask1" mask-type="alpha" maskUnits="userSpaceOnUse" x="653" y="467" width="156" height="60">
<path d="M808.174 467.65H653.669V526.369H808.174V467.65Z" fill="white"/>
</mask>
<g mask="url(#mask1)">
<path d="M808.174 562.062C808.174 562.062 796.177 488.789 736.478 473.559C676.779 458.329 669.465 497.313 695.021 508.249C720.578 519.186 751.934 473.742 645.738 467.65" stroke="#EE82DA" stroke-width="14"/>
</g>
<path fill-rule="evenodd" clip-rule="evenodd" d="M900 526.012H749.107L824.554 408.942L900 526.012Z" fill="#D5962F"/>
<path fill-rule="evenodd" clip-rule="evenodd" d="M845.544 467.657L851.768 451.17L891.435 512.722L890.818 526.012H819.876L790.411 461.921L820.87 414.657L845.544 467.657Z" fill="#EDE761"/>
<path fill-rule="evenodd" clip-rule="evenodd" d="M809.319 526.012H756.18L757.132 513.559L788.346 465.125L809.319 526.012Z" fill="#EDE761"/>
<path fill-rule="evenodd" clip-rule="evenodd" d="M539.859 457.235H618.023V398.248H548.097L544.156 415.063L539.859 457.235Z" fill="#EDC829"/>
<path fill-rule="evenodd" clip-rule="evenodd" d="M310.632 534.274L634.707 527.271V454.862L310.632 445.552V534.274Z" fill="#EDC829"/>
<path opacity="0.2" fill-rule="evenodd" clip-rule="evenodd" d="M310.632 534.274L634.707 527.271V454.862L310.632 445.552V534.274Z" fill="#343434"/>
<path fill-rule="evenodd" clip-rule="evenodd" d="M430.052 494.335H567.055C567.374 494.335 567.633 494.076 567.633 493.756C567.633 493.437 567.374 493.178 567.055 493.178H430.052C429.733 493.178 429.474 493.437 429.474 493.756C429.474 494.076 429.733 494.335 430.052 494.335Z" fill="#21211D"/>
<path fill-rule="evenodd" clip-rule="evenodd" d="M296.61 490.078C296.61 513.538 302.397 532.789 309.72 534.275C310.024 534.34 310.329 534.373 310.634 534.373C310.939 534.373 311.244 534.34 311.549 534.275C318.518 532.86 324.098 515.323 324.61 493.388C324.642 492.294 324.653 491.194 324.653 490.078C324.653 465.65 318.43 445.647 310.689 445.647C303.415 445.647 297.383 463.297 296.675 485.69C296.631 487.133 296.61 488.597 296.61 490.078Z" fill="#21211D"/>
<path fill-rule="evenodd" clip-rule="evenodd" d="M248.553 437.225V534.275H311.549C318.518 532.859 324.098 515.323 324.61 493.388C317.902 492.31 308.701 491.766 296.675 485.69C295.983 485.342 295.281 484.971 294.574 484.585C288.062 481.035 282.433 475.607 278.235 468.889C277.108 467.081 275.998 465.377 274.903 463.766C266.448 451.255 259.283 444.46 254.569 440.894C250.757 438.009 248.553 437.225 248.553 437.225Z" fill="#F1A596"/>
<path fill-rule="evenodd" clip-rule="evenodd" d="M248.553 437.225V534.275H254.569V440.894C250.757 438.009 248.553 437.225 248.553 437.225Z" fill="#EDE8D6"/>
<path fill-rule="evenodd" clip-rule="evenodd" d="M291.162 493.408C291.388 493.408 291.599 493.267 291.676 493.041L294.761 484.097C294.859 483.812 294.708 483.503 294.424 483.405C294.139 483.307 293.83 483.457 293.732 483.741L290.647 492.686C290.549 492.97 290.699 493.28 290.984 493.378C291.043 493.399 291.102 493.408 291.162 493.408Z" fill="#21211D"/>
<path fill-rule="evenodd" clip-rule="evenodd" d="M284.286 490.301C284.508 490.301 284.717 490.164 284.798 489.943L288.481 479.83C288.584 479.547 288.438 479.235 288.156 479.132C287.876 479.03 287.561 479.174 287.458 479.457L283.775 489.57C283.671 489.853 283.817 490.165 284.1 490.268C284.161 490.291 284.224 490.301 284.286 490.301Z" fill="#21211D"/>
<path fill-rule="evenodd" clip-rule="evenodd" d="M277.919 484.627C278.135 484.627 278.34 484.497 278.425 484.284L282.444 474.212C282.555 473.933 282.419 473.616 282.14 473.505C281.862 473.394 281.544 473.529 281.433 473.809L277.413 483.881C277.302 484.16 277.439 484.477 277.718 484.588C277.784 484.615 277.852 484.627 277.919 484.627Z" fill="#21211D"/>
<path fill-rule="evenodd" clip-rule="evenodd" d="M275.405 534.415C275.417 534.415 275.43 534.414 275.443 534.413C275.743 534.393 275.97 534.133 275.949 533.833C274.772 516.785 254.862 511.768 254.661 511.719C254.368 511.648 254.075 511.828 254.004 512.12C253.933 512.412 254.113 512.706 254.405 512.777C254.598 512.824 273.742 517.661 274.862 533.908C274.882 534.195 275.122 534.415 275.405 534.415Z" fill="#21211D"/>
<path fill-rule="evenodd" clip-rule="evenodd" d="M254.992 498.473C257.985 498.473 260.877 497.245 262.955 495.085C265.08 492.876 266.199 489.854 266.024 486.794L265.168 471.828C265.025 469.334 266.295 467.031 268.481 465.819C270.662 464.608 273.283 464.751 275.319 466.191C275.398 466.246 275.477 466.303 275.556 466.361C275.799 466.539 276.14 466.486 276.317 466.243C276.495 466.001 276.442 465.66 276.199 465.483C276.115 465.421 276.031 465.361 275.947 465.301C273.567 463.619 270.504 463.452 267.953 464.866C265.397 466.283 263.914 468.974 264.081 471.89L264.937 486.856C265.097 489.655 264.114 492.309 262.171 494.33C260.227 496.35 257.593 497.436 254.809 497.382C254.522 497.374 254.26 497.616 254.255 497.916C254.249 498.217 254.488 498.466 254.789 498.471C254.856 498.472 254.924 498.473 254.992 498.473Z" fill="#21211D"/>
<path fill-rule="evenodd" clip-rule="evenodd" d="M303.129 442.023C303.327 442.023 303.528 442.037 303.734 442.065C304.964 442.231 305.825 442.826 306.365 443.885C308.117 447.318 306.471 455.378 301.607 467.194C298.964 473.613 296.017 479.543 294.522 482.459C294.398 479.317 294.24 473.097 294.561 466.493C295.161 454.177 297.127 446.136 300.247 443.237C301.123 442.423 302.07 442.023 303.129 442.023ZM294.045 485.203C294.254 485.203 294.452 485.088 294.554 484.898C294.598 484.818 298.94 476.71 302.676 467.635C307.745 455.324 309.332 447.156 307.396 443.359C306.68 441.957 305.5 441.136 303.889 440.918C302.24 440.696 300.75 441.19 299.459 442.389C291.443 449.839 293.381 483.241 293.467 484.66C293.483 484.918 293.668 485.134 293.921 485.189C293.962 485.199 294.004 485.203 294.045 485.203Z" fill="#21211D"/>
<path fill-rule="evenodd" clip-rule="evenodd" d="M285.506 449.48C286.328 449.48 287.08 449.745 287.779 450.278C290.627 452.447 292.53 458.992 293.284 469.206C293.691 474.72 293.653 479.948 293.595 482.574C290.11 477.401 278.818 459.81 281.245 452.477C281.703 451.093 282.627 450.193 284.067 449.725C284.57 449.562 285.049 449.48 285.506 449.48ZM294.12 484.938C294.174 484.938 294.229 484.931 294.283 484.915C294.52 484.845 294.686 484.633 294.697 484.386C294.751 483.19 295.934 455.036 288.481 449.358C287.087 448.296 285.483 448.05 283.71 448.625C281.92 449.206 280.721 450.38 280.147 452.114C277.117 461.268 292.971 483.742 293.648 484.695C293.758 484.85 293.935 484.938 294.12 484.938Z" fill="#21211D"/>
<path fill-rule="evenodd" clip-rule="evenodd" d="M335.854 459.608L375.491 538.983L489.449 470.329C493.102 468.129 497.634 467.976 501.428 469.92L599.364 520.143C618.035 530.037 639.969 529.49 658.141 518.653C676.447 507.73 687.378 488.485 687.378 467.166V464.323V394.65L603.617 398.248L610.967 444.717L554.944 415.986L530.272 403.334C508.107 391.97 481.936 391.48 459.362 402.01L335.854 459.608Z" fill="#EDC829"/>
<path fill-rule="evenodd" clip-rule="evenodd" d="M332.248 470.244C332.363 473.473 332.95 477.268 333.974 481.443C335.749 488.684 338.857 497.074 343.137 505.638C344.612 508.6 346.158 511.425 347.737 514.104C349.958 517.855 352.251 521.307 354.537 524.372C362.693 535.271 370.816 541.32 375.492 538.984C380.686 536.387 380.142 524.159 374.932 508.986C373.804 505.692 372.449 502.257 370.886 498.757C370.059 496.883 369.166 495 368.218 493.1C364.19 485.042 359.677 477.899 355.234 472.27C352.686 469.041 350.16 466.308 347.765 464.191C343.006 459.971 338.765 458.153 335.858 459.606C333.212 460.929 332.058 464.778 332.248 470.244Z" fill="#21211D"/>
<path fill-rule="evenodd" clip-rule="evenodd" d="M256.202 458.55L310.275 539.142L315.273 535.799L345.984 515.263L347.737 514.104L370.886 498.756C370.059 496.884 369.166 495 368.218 493.1C364.19 485.042 359.676 477.899 355.234 472.27C352.686 469.041 350.16 466.308 347.764 464.19C343.692 466.156 338.787 468.524 332.248 470.244C330.876 470.609 329.428 470.941 327.898 471.235C326.401 471.524 324.822 471.78 323.162 471.987C322.394 472.085 321.604 472.161 320.804 472.237C313.416 472.918 305.718 471.545 298.488 468.306C296.544 467.435 294.677 466.64 292.869 465.911C278.877 460.227 269.143 458.577 263.236 458.245C258.472 457.973 256.202 458.55 256.202 458.55Z" fill="#F1A596"/>
<path fill-rule="evenodd" clip-rule="evenodd" d="M335.023 431.937C335.419 431.937 335.822 431.998 336.232 432.121C337.422 432.476 338.18 433.198 338.549 434.328C339.746 437.992 336.869 445.699 330.228 456.615C326.62 462.546 322.788 467.946 320.858 470.594C321.223 467.471 322.033 461.302 323.377 454.828C325.882 442.755 329.074 435.116 332.606 432.737C333.4 432.203 334.199 431.937 335.023 431.937ZM320.05 473.238C320.227 473.238 320.399 473.156 320.511 473.009C320.566 472.936 326.115 465.602 331.216 457.216C338.136 445.842 340.973 438.021 339.649 433.969C339.16 432.473 338.122 431.478 336.564 431.013C334.97 430.537 333.421 430.794 331.96 431.778C322.883 437.891 319.609 471.19 319.474 472.604C319.45 472.862 319.599 473.104 319.84 473.198C319.909 473.225 319.98 473.238 320.05 473.238Z" fill="#21211D"/>
<path fill-rule="evenodd" clip-rule="evenodd" d="M316.432 436.566C317.523 436.566 318.432 436.959 319.197 437.757C321.672 440.342 322.536 447.103 321.694 457.31C321.239 462.82 320.39 467.979 319.925 470.563C317.285 464.913 308.863 445.781 312.4 438.914C313.067 437.618 314.119 436.872 315.615 436.634C315.898 436.589 316.17 436.566 316.432 436.566ZM320.165 472.988C320.19 472.988 320.215 472.986 320.24 472.983C320.485 472.951 320.683 472.767 320.732 472.525C320.971 471.352 326.513 443.723 320.032 436.957C318.82 435.691 317.273 435.198 315.433 435.491C313.574 435.788 312.207 436.761 311.371 438.385C306.956 446.957 319.127 471.621 319.647 472.667C319.746 472.865 319.948 472.988 320.165 472.988Z" fill="#21211D"/>
<path fill-rule="evenodd" clip-rule="evenodd" d="M256.202 458.55L310.275 539.142L315.273 535.799L263.236 458.245C258.472 457.973 256.202 458.55 256.202 458.55Z" fill="#EDE8D6"/>
<path fill-rule="evenodd" clip-rule="evenodd" d="M322.581 481.558C322.627 481.558 322.673 481.552 322.72 481.54C323.011 481.463 323.184 481.165 323.108 480.874L320.685 471.728C320.608 471.437 320.309 471.264 320.02 471.341C319.729 471.418 319.556 471.716 319.633 472.006L322.055 481.153C322.119 481.397 322.34 481.558 322.581 481.558Z" fill="#21211D"/>
<path fill-rule="evenodd" clip-rule="evenodd" d="M315.14 482.809C315.183 482.809 315.227 482.803 315.27 482.793C315.563 482.721 315.741 482.426 315.669 482.134L313.093 471.684C313.021 471.392 312.726 471.213 312.434 471.285C312.142 471.357 311.963 471.652 312.035 471.944L314.611 482.394C314.673 482.643 314.895 482.809 315.14 482.809Z" fill="#21211D"/>
<path fill-rule="evenodd" clip-rule="evenodd" d="M306.692 481.644C306.729 481.644 306.767 481.64 306.806 481.632C307.1 481.569 307.287 481.279 307.224 480.985L304.95 470.382C304.887 470.089 304.602 469.901 304.303 469.964C304.009 470.027 303.822 470.317 303.885 470.611L306.16 481.214C306.215 481.469 306.441 481.644 306.692 481.644Z" fill="#21211D"/>
<path fill-rule="evenodd" clip-rule="evenodd" d="M332.228 525.007C332.341 525.007 332.454 524.972 332.552 524.899C332.793 524.72 332.844 524.379 332.665 524.138C322.488 510.41 303.012 516.913 302.817 516.98C302.533 517.078 302.382 517.387 302.479 517.671C302.577 517.956 302.887 518.107 303.171 518.01C303.359 517.945 322.091 511.704 331.79 524.786C331.897 524.931 332.062 525.007 332.228 525.007Z" fill="#21211D"/>
<path fill-rule="evenodd" clip-rule="evenodd" d="M295.088 506.095C295.186 506.095 295.284 506.07 295.373 506.015C297.985 504.412 299.827 501.768 300.428 498.762C301.028 495.756 300.342 492.608 298.545 490.124L289.76 477.978C288.295 475.953 288.124 473.329 289.312 471.131C290.498 468.936 292.792 467.643 295.273 467.759C295.37 467.764 295.467 467.769 295.566 467.775C295.863 467.792 296.125 467.565 296.143 467.265C296.161 466.965 295.933 466.707 295.633 466.689C295.528 466.682 295.425 466.677 295.323 466.672C292.413 466.534 289.741 468.047 288.354 470.613C286.965 473.183 287.166 476.25 288.878 478.616L297.663 490.762C299.306 493.034 299.909 495.8 299.36 498.549C298.811 501.299 297.192 503.62 294.803 505.087C294.547 505.244 294.467 505.58 294.624 505.836C294.727 506.003 294.906 506.095 295.088 506.095Z" fill="#21211D"/>
<path fill-rule="evenodd" clip-rule="evenodd" d="M368.219 493.678C368.316 493.678 368.414 493.654 368.505 493.602L471.857 434.744C482.893 428.459 496.008 427.502 507.84 432.12L623.731 478.878C631.359 481.956 639.711 480.681 646.073 475.466C652.435 470.253 655.326 462.313 653.806 454.23L645.14 408.132C645.081 407.819 644.78 407.611 644.465 407.671C644.151 407.73 643.944 408.032 644.003 408.346L652.669 454.444C654.11 462.105 651.37 469.63 645.34 474.572C639.311 479.514 631.394 480.723 624.164 477.806L508.266 431.045C496.102 426.298 482.625 427.28 471.285 433.739L367.932 492.597C367.654 492.755 367.557 493.108 367.716 493.386C367.822 493.573 368.018 493.678 368.219 493.678Z" fill="#21211D"/>
<path fill-rule="evenodd" clip-rule="evenodd" d="M604.898 435.583C605.131 435.583 605.351 435.441 605.439 435.21C605.552 434.912 605.402 434.577 605.104 434.464L551.766 414.157C551.466 414.043 551.133 414.194 551.019 414.492C550.906 414.791 551.056 415.125 551.354 415.238L604.692 435.545C604.76 435.571 604.83 435.583 604.898 435.583Z" fill="#21211D"/>
<path fill-rule="evenodd" clip-rule="evenodd" d="M586.567 320.224L586.632 319.991L586.659 319.874L586.583 320.113L586.431 320.608L586.262 321.171C586.387 320.809 586.48 320.547 586.567 320.224ZM538.891 413.362C535.743 413.013 533.261 410.689 531.155 408.545C530.987 408.378 530.818 408.205 530.661 408.027C526.298 403.261 524.35 396.428 525.917 389.74L525.933 389.662L529.752 373.581L535.782 345.188L538.541 333.884V333.878L539.694 329.139L540.564 325.631L542.827 316.538L543.676 313.113L544.677 309.104L544.802 308.603L544.862 308.358L545.101 307.495C545.292 306.844 545.471 306.248 545.722 305.563C545.983 304.866 546.26 304.176 546.559 303.497C546.902 302.739 547.278 301.999 547.691 301.275C548.018 300.69 548.366 300.117 548.735 299.554C549.54 298.318 550.438 297.143 551.423 296.052C555.389 291.658 560.633 288.568 566.394 287.343C569.267 286.73 572.254 286.558 575.164 286.875C575.882 286.942 576.698 287.081 577.454 287.22C577.835 287.293 578.238 287.376 578.591 287.46L578.836 287.515L579.831 287.749L581.393 288.117L581.453 288.128L591.8 290.55L592.083 290.617L594.118 291.091L595.706 291.463C599.155 292.288 602.599 293.112 606.042 293.969C606.097 293.981 606.151 293.997 606.206 294.008H606.211C607.217 294.253 608.219 294.498 609.22 294.754C611.314 295.272 613.403 295.807 615.492 296.347H615.498H615.503C617.44 296.848 619.376 297.355 621.308 297.873C623.315 298.407 625.317 298.953 627.319 299.51C631.764 300.746 635.523 303.28 638.303 306.61C639.489 308.024 640.495 309.577 641.3 311.243C643.645 316.037 644.341 321.694 642.861 327.274C641.747 331.489 639.532 335.103 636.627 337.871C631.459 342.81 624.093 345.104 616.765 343.439L616.711 343.428C606.2 341.028 595.766 338.327 585.353 335.532L582.171 334.663L580.397 340.51L575.49 356.413L568.415 384.634C564.711 402.013 570.895 416.905 538.891 413.362Z" fill="#F0B5AA"/>
<path fill-rule="evenodd" clip-rule="evenodd" d="M561.02 413.078H701.958L685.853 377.151C685.853 377.145 683.546 369.851 683.546 369.851L683.541 369.834L682.54 366.666L682.18 365.532L670.862 329.718L670.59 328.851L668.37 321.841L667.918 320.407C667.004 312.673 663.636 306.269 658.673 301.571C654.363 297.485 648.856 294.689 642.708 293.438C642.533 293.393 642.354 293.36 642.174 293.327C641.907 293.277 641.635 293.227 641.369 293.182C640.379 293.016 639.372 292.888 638.349 292.804L634.061 291.526H634.055C624.694 293.639 615.366 294.27 605.762 293.536C604.647 293.453 603.172 293.623 602.067 293.484C600.717 293.323 599.142 291.687 597.809 291.464C595.382 291.053 592.977 290.559 590.572 290.025L590.414 289.991C587.498 289.335 583.372 288.629 580.455 287.945L580.395 287.934C578.414 291.326 577.774 295.879 577.083 301.616L574.411 320.156L574.079 322.458L573.97 323.22L564.594 388.23L564.099 391.671L563.571 395.335L563.495 395.852L561.02 413.078Z" fill="#24B9CD"/>
<path fill-rule="evenodd" clip-rule="evenodd" d="M658.077 320.334L657.097 317.813C657.342 318.674 657.674 319.518 658.077 320.334ZM601.94 308.395C601.989 308.283 602.043 308.172 602.098 308.061C602.92 306.301 603.966 304.663 605.209 303.185C607.835 300.048 611.316 297.615 615.38 296.31H615.386H615.391C615.751 296.183 616.121 296.077 616.492 295.983C616.584 295.955 616.682 295.927 616.775 295.905C620.768 294.905 624.735 294.083 628.728 293.167H628.734C628.739 293.167 628.745 293.162 628.745 293.162C629.589 292.973 630.433 292.778 631.278 292.573L628.728 293.167L633.844 292.407L638.102 291.838C638.113 291.833 638.519 291.683 638.53 291.683L638.546 291.678L641.139 290.118L643.073 289.669L644.522 289.336L645.928 289.008L660.534 285.709L664.19 284.898L665.105 284.698L665.563 284.598L666.462 284.41L667.47 284.232C670.15 283.815 672.934 283.76 675.653 284.137C681.106 284.871 686.255 287.22 690.417 290.807C692.493 292.606 694.324 294.711 695.838 297.043C696.089 297.432 696.328 297.827 696.552 298.232C697.129 299.22 697.641 300.237 698.083 301.28C698.104 301.325 698.126 301.364 698.148 301.409C698.339 301.853 698.519 302.303 698.687 302.752L703.771 314.026L707.693 322.733C710.908 329.875 714.149 337.005 717.32 344.175L726.881 365.649C728.81 370.048 730.755 374.435 732.683 378.833V378.838C733.909 381.615 735.124 384.392 736.334 387.174C740.686 397.226 736.23 408.971 726.369 413.414C716.993 417.634 706.08 413.664 701.286 404.634C701.166 404.412 701.052 404.184 700.937 403.962C697.407 397.253 693.937 390.523 690.433 383.803L683.291 369.931L683.286 369.914L681.586 366.61L680.975 365.433V365.427L679.684 362.917C676.089 355.964 672.558 348.978 669.006 342.003L663.656 331.474L663.226 331.58L655.773 333.335L641.172 336.689C639.63 337.033 638.088 337.378 636.547 337.722C633.484 338.405 630.412 339.088 627.344 339.738C627.077 339.798 626.816 339.854 626.549 339.91C614.579 342.448 602.855 334.617 600.366 322.417C599.363 317.502 600.017 312.626 601.94 308.395Z" fill="#24B9CD"/>
<path fill-rule="evenodd" clip-rule="evenodd" d="M542.795 316.556L573.634 323.481L583.072 325.599L593.824 295.634C593.824 295.634 593.184 293.5 591.627 290.553L581.309 288.129L581.25 288.118L579.693 287.75L578.7 287.516L578.456 287.46C578.103 287.377 577.702 287.293 577.322 287.221C576.568 287.081 575.754 286.942 575.039 286.875C572.136 286.558 569.158 286.73 566.294 287.343C560.55 288.569 555.32 291.661 551.366 296.057C550.384 297.149 549.488 298.325 548.686 299.562C548.317 300.125 547.97 300.698 547.644 301.284C547.232 302.008 546.858 302.749 546.516 303.507C546.217 304.186 545.941 304.877 545.681 305.574C545.431 306.259 545.252 306.855 545.062 307.507L544.824 308.371L544.764 308.616L544.639 309.118L543.641 313.129L542.795 316.556Z" fill="#24B9CD"/>
<path fill-rule="evenodd" clip-rule="evenodd" d="M598.037 371.667C598.135 372.372 598.276 373.06 598.467 373.744C598.614 374.266 598.788 374.777 598.99 375.282C599.741 377.204 600.856 378.97 602.294 380.463C602.55 380.747 602.833 381.019 603.127 381.28C603.47 381.597 603.829 381.891 604.205 382.169C605.566 383.191 607.111 384.002 608.815 384.535C608.837 384.546 608.853 384.551 608.875 384.557L608.897 384.562L614.003 386.145L668.893 403.134L713.804 417.035C718.437 418.463 723.62 418.246 728.366 416.03C735.819 412.548 740.027 404.067 740.027 395.653C740.027 392.382 739.395 389.127 738.067 386.173C737.958 385.923 737.844 385.678 737.735 385.434C734.627 378.564 731.334 372.139 728.176 365.269C724.942 358.138 721.643 351.035 718.356 343.926L713.412 333.273L708.409 322.649C707.065 319.811 705.71 316.973 704.349 314.146C702.34 309.964 700.309 305.788 698.246 301.634C698.224 301.589 698.203 301.55 698.181 301.506C692.786 290.681 679.884 286.089 669.04 291.298C664.244 293.597 660.635 297.429 658.517 301.95C656.209 306.86 655.654 312.58 657.227 318.039C657.537 319.145 657.945 320.244 658.441 321.322C658.866 322.249 659.296 323.171 659.731 324.093C660.923 326.67 662.132 329.242 663.351 331.807C665.055 335.389 666.776 338.972 668.501 342.542L673.645 353.095L678.85 363.624C679.144 364.213 679.432 364.802 679.726 365.391C679.917 365.779 680.113 366.168 680.303 366.563L618.092 354.205L617.83 354.15L616.388 353.861C616.317 353.85 616.252 353.839 616.181 353.828C610.911 352.867 605.62 354.761 602.092 358.576H602.087C600.514 360.27 599.289 362.347 598.57 364.724C598.559 364.752 598.554 364.78 598.543 364.808C597.863 367.107 597.716 369.439 598.037 371.667Z" fill="#F0B5AA"/>
<path fill-rule="evenodd" clip-rule="evenodd" d="M561.543 410.647L576.406 310.87C576.451 310.592 576.052 310.508 575.986 310.781L553.73 410.647H561.543Z" fill="#21211D"/>
<path fill-rule="evenodd" clip-rule="evenodd" d="M711.998 417.811C707.683 416.504 703.375 415.171 699.07 413.826L686.15 409.803C677.542 407.102 668.928 404.427 660.337 401.655C651.743 398.896 643.176 396.029 634.596 393.213L621.745 388.907L608.913 384.528C600.764 381.747 596.364 372.741 599.083 364.411C601.545 356.874 608.996 352.476 616.428 353.767L629.767 356.07L643.089 358.445C651.957 360.083 660.837 361.67 669.691 363.365C678.548 365.047 687.382 366.826 696.221 368.58L709.474 371.238C713.892 372.121 718.308 373.014 722.717 373.935C734.697 376.436 742.426 388.391 739.98 400.638C737.534 412.885 725.839 420.786 713.858 418.285C713.24 418.156 712.593 417.989 711.998 417.811Z" fill="#F0B5AA"/>
<path fill-rule="evenodd" clip-rule="evenodd" d="M629.793 374.003C624.6 372.451 619.425 370.827 614.256 369.169L606.513 366.638L604.579 365.994C603.952 365.786 603.225 365.539 602.784 365.405C601.755 365.078 600.786 364.845 600.082 364.73C599.357 364.616 598.876 364.593 598.363 364.666C597.856 364.739 597.248 364.965 596.531 365.424C595.819 365.883 595.022 366.496 594.232 367.268L593.981 367.499L593.777 367.698C593.642 367.835 593.512 367.981 593.384 368.131L593.288 368.244L593.24 368.303L593.165 368.408L592.864 368.828L592.261 369.668C589.047 374.145 585.778 378.589 582.308 382.909C580.985 384.557 578.602 384.8 576.985 383.451C575.651 382.339 575.258 380.488 575.903 378.951C578.059 373.819 580.416 368.811 582.827 363.837L583.279 362.905L583.506 362.438L583.562 362.322L583.647 362.16L583.823 361.835C584.064 361.405 584.323 360.984 584.6 360.572C584.738 360.366 584.88 360.162 585.028 359.959L585.252 359.658L585.445 359.411C586.437 358.1 587.589 356.775 589.006 355.522C590.419 354.278 592.185 353.082 594.255 352.28C596.315 351.464 598.571 351.122 600.553 351.114C602.561 351.101 604.275 351.351 605.889 351.632C606.774 351.789 607.352 351.916 608.039 352.053L610.041 352.459L618.039 354.129C623.365 355.272 628.683 356.448 633.984 357.696C638.437 358.745 641.213 363.273 640.184 367.81C639.156 372.347 634.713 375.176 630.26 374.128C630.111 374.093 629.938 374.046 629.793 374.003Z" fill="#F0B5AA"/>
<path fill-rule="evenodd" clip-rule="evenodd" d="M635.195 384.501L600.05 370.54L605.374 369.764C605.422 369.715 605.306 369.783 605.255 369.807L605.036 369.93C604.885 370.016 604.725 370.115 604.566 370.217C604.247 370.418 603.924 370.642 603.604 370.871C602.965 371.333 602.338 371.835 601.741 372.364C600.547 373.424 599.459 374.594 598.556 375.855C598.098 376.483 597.685 377.135 597.331 377.809C596.968 378.481 596.653 379.174 596.407 379.889C595.884 381.314 595.636 382.825 595.597 384.402L595.591 384.652C595.539 386.759 593.82 388.424 591.752 388.372C589.961 388.326 588.496 387.006 588.168 385.286C587.719 382.935 587.608 380.441 587.948 378.007C588.102 376.787 588.363 375.585 588.704 374.415C589.038 373.24 589.46 372.101 589.948 371.004C590.917 368.799 592.145 366.763 593.537 364.877C594.235 363.933 594.976 363.028 595.766 362.154C596.163 361.717 596.569 361.286 597 360.861C597.215 360.648 597.434 360.437 597.667 360.222L598.027 359.896C598.171 359.773 598.251 359.695 598.499 359.505L598.499 359.504C599.946 358.449 601.709 358.171 603.308 358.59L603.823 358.728L640.305 368.504C644.722 369.688 647.361 374.295 646.199 378.795C645.037 383.295 640.514 385.983 636.096 384.799C635.789 384.717 635.484 384.615 635.195 384.501Z" fill="#F0B5AA"/>
<path fill-rule="evenodd" clip-rule="evenodd" d="M641.669 388.635L606.507 374.626L611.233 374.216L611.234 374.215C611.304 374.174 611.296 374.174 611.294 374.172C611.296 374.167 611.296 374.163 611.284 374.167C611.263 374.173 611.253 374.17 611.224 374.182C611.174 374.198 611.12 374.217 611.058 374.244C610.938 374.293 610.805 374.354 610.671 374.421C610.403 374.556 610.123 374.707 609.851 374.879C609.299 375.215 608.762 375.608 608.257 376.037C607.242 376.896 606.357 377.908 605.65 379.056C604.934 380.202 604.403 381.497 604.065 382.916C603.736 384.337 603.597 385.878 603.659 387.484L603.665 387.625C603.746 389.742 602.132 391.526 600.06 391.61C598.266 391.682 596.717 390.454 596.279 388.751C595.735 386.636 595.423 384.377 595.445 382.04C595.475 379.708 595.858 377.296 596.647 374.995C597.423 372.688 598.582 370.501 600.029 368.547C600.752 367.567 601.542 366.641 602.412 365.771C602.843 365.334 603.3 364.915 603.783 364.5C604.025 364.294 604.275 364.09 604.543 363.884C604.675 363.782 604.816 363.677 604.964 363.571L605.202 363.405L605.342 363.313C605.39 363.282 605.433 363.253 605.554 363.184L605.555 363.184C606.907 362.427 608.424 362.278 609.807 362.646L610.281 362.773L646.781 372.582C651.201 373.77 653.842 378.393 652.679 382.909C651.516 387.424 646.99 390.122 642.57 388.934C642.263 388.852 641.958 388.749 641.669 388.635Z" fill="#F0B5AA"/>
<path fill-rule="evenodd" clip-rule="evenodd" d="M647.455 392.136L611.818 376.513L618.05 375.267L618.05 375.266C617.982 375.297 617.8 375.437 617.665 375.536L617.222 375.878C616.925 376.112 616.628 376.354 616.335 376.6C615.749 377.094 615.179 377.605 614.637 378.124C613.556 379.156 612.571 380.248 611.875 381.231C611.526 381.717 611.262 382.173 611.103 382.473C610.938 382.786 610.891 382.856 610.758 382.755C610.695 382.715 610.61 382.668 610.558 382.685C610.506 382.699 610.5 382.773 610.566 382.882C610.689 383.106 611.118 383.421 611.654 383.688L611.98 383.85C613.838 384.775 614.605 387.052 613.694 388.937C612.919 390.54 611.176 391.342 609.529 390.976C608.397 390.725 607.178 390.371 605.874 389.559C605.229 389.153 604.568 388.625 603.975 387.941C603.382 387.263 602.872 386.425 602.533 385.543C602.189 384.66 602.012 383.751 601.952 382.911C601.89 382.067 601.937 381.286 602.032 380.567C602.231 379.126 602.613 377.917 603.036 376.813C603.898 374.612 604.954 372.793 606.071 371.067C606.632 370.208 607.213 369.382 607.818 368.575C608.12 368.171 608.429 367.772 608.746 367.375L609.234 366.778C609.412 366.567 609.546 366.4 609.799 366.129L609.8 366.128C611.386 364.59 613.6 364.132 615.56 364.734L616.031 364.881L653.161 376.383C657.537 377.738 660.001 382.436 658.665 386.875C657.329 391.315 652.698 393.815 648.322 392.459C648.026 392.367 647.732 392.257 647.455 392.136Z" fill="#F0B5AA"/>
<path fill-rule="evenodd" clip-rule="evenodd" d="M586.695 377.438C586.905 377.438 587.107 377.319 587.204 377.114C587.247 377.025 591.494 368.213 596.717 365.986C597.006 365.863 597.141 365.527 597.02 365.235C596.899 364.942 596.566 364.806 596.279 364.928C590.66 367.324 586.366 376.236 586.186 376.615C586.05 376.9 586.167 377.243 586.449 377.381C586.528 377.419 586.612 377.438 586.695 377.438Z" fill="#21211D"/>
<path fill-rule="evenodd" clip-rule="evenodd" d="M595.716 385.538C595.742 385.538 595.767 385.536 595.792 385.533C596.099 385.49 596.313 385.202 596.271 384.889C596.258 384.788 594.996 374.714 601.542 372.477C601.835 372.377 601.993 372.053 601.895 371.754C601.797 371.454 601.48 371.292 601.187 371.393C598.091 372.451 596.068 375.169 595.339 379.254C594.801 382.265 595.148 384.932 595.163 385.044C595.201 385.33 595.441 385.538 595.716 385.538Z" fill="#21211D"/>
<path fill-rule="evenodd" clip-rule="evenodd" d="M603.72 387.968C603.801 387.968 603.882 387.95 603.96 387.914C604.247 387.781 604.371 387.438 604.24 387.149C604.224 387.114 602.651 383.598 604.074 380.667C604.954 378.855 606.807 377.607 609.581 376.957C609.889 376.885 610.08 376.575 610.009 376.265C609.937 375.954 609.63 375.761 609.322 375.833C606.193 376.566 604.08 378.024 603.043 380.167C601.383 383.598 603.126 387.471 603.202 387.634C603.298 387.844 603.505 387.968 603.72 387.968Z" fill="#21211D"/>
<path fill-rule="evenodd" clip-rule="evenodd" d="M614.715 386.348C614.957 386.348 615.182 386.198 615.261 385.963C615.358 385.671 615.194 385.357 614.892 385.263L612.489 384.506L613.515 384.196C613.818 384.104 613.986 383.792 613.892 383.499C613.798 383.206 613.477 383.041 613.174 383.134L610.427 383.963C610.188 384.035 610.026 384.249 610.024 384.491C610.022 384.733 610.183 384.949 610.42 385.023L614.538 386.32C614.597 386.339 614.656 386.348 614.715 386.348Z" fill="#21211D"/>
<path fill-rule="evenodd" clip-rule="evenodd" d="M549.275 417.127H448.033L420.891 339.368H518.601C520.718 339.368 522.607 340.723 523.319 342.753L549.275 417.127Z" fill="#21211D"/>
<path fill-rule="evenodd" clip-rule="evenodd" d="M541.192 417.127H441.715C441.381 417.127 441.082 416.913 440.969 416.592L415.851 344.546C414.967 342.022 416.804 339.368 419.435 339.368H511.108C513.559 339.368 515.745 340.938 516.569 343.288L541.938 416.05C542.122 416.575 541.739 417.127 541.192 417.127Z" fill="#2E4C9E"/>
<mask id="mask2" mask-type="alpha" maskUnits="userSpaceOnUse" x="415" y="339" width="127" height="79">
<path fill-rule="evenodd" clip-rule="evenodd" d="M419.428 339.235C416.798 339.235 414.961 341.895 415.845 344.424L440.948 416.625C441.061 416.948 441.359 417.162 441.694 417.162H541.11C541.657 417.162 542.039 416.609 541.856 416.083L516.502 343.164C515.679 340.809 513.494 339.235 511.044 339.235H419.428Z" fill="white"/>
</mask>
<g mask="url(#mask2)">
<path fill-rule="evenodd" clip-rule="evenodd" d="M432.281 326.546L557.055 414.228L525.287 435.314L396.439 353.948L432.281 326.546Z" fill="#4965CC"/>
</g>
<path fill-rule="evenodd" clip-rule="evenodd" d="M483.207 376.021C483.627 379.04 481.544 381.488 478.554 381.488C475.564 381.488 472.8 379.04 472.38 376.021C471.959 373.001 474.043 370.553 477.032 370.553C480.022 370.553 482.787 373.001 483.207 376.021Z" fill="white"/>
<path fill-rule="evenodd" clip-rule="evenodd" d="M597.064 417.532H473.136V410.243H590.045C593.921 410.243 597.064 413.506 597.064 417.532Z" fill="#2E4C9E"/>
<path fill-rule="evenodd" clip-rule="evenodd" d="M438.871 410.243H545.876C546.187 410.243 546.44 409.971 546.44 409.635C546.44 409.3 546.187 409.028 545.876 409.028H438.871C438.559 409.028 438.306 409.3 438.306 409.635C438.306 409.971 438.559 410.243 438.871 410.243Z" fill="white"/>
<path fill-rule="evenodd" clip-rule="evenodd" d="M642.018 295.633L643.137 298.748L652.772 325.599L659.899 324L668.361 322.1L703.905 314.126L704.388 314.02C702.385 309.825 700.36 305.635 698.303 301.467C698.281 301.422 698.26 301.383 698.238 301.339C697.798 300.291 697.288 299.272 696.712 298.28C696.49 297.873 696.251 297.477 696.001 297.087C694.492 294.747 692.668 292.635 690.6 290.83C686.453 287.231 681.323 284.874 675.89 284.138C673.181 283.759 670.408 283.815 667.737 284.233L666.733 284.411L665.837 284.601L665.381 284.701L664.469 284.902L660.827 285.715L646.274 289.025L644.874 289.354C643.913 291.031 643.223 292.524 642.762 293.633C642.621 293.973 642.502 294.274 642.404 294.53C642.138 295.232 642.018 295.633 642.018 295.633Z" fill="#24B9CD"/>
<path fill-rule="evenodd" clip-rule="evenodd" d="M663.333 332.079C663.408 332.079 663.486 332.063 663.559 332.028C663.839 331.899 663.965 331.56 663.839 331.272L654.827 310.547C654.701 310.259 654.372 310.13 654.092 310.259C653.812 310.388 653.687 310.727 653.812 311.015L662.825 331.74C662.917 331.952 663.12 332.079 663.333 332.079Z" fill="#21211D"/>
<path fill-rule="evenodd" clip-rule="evenodd" d="M715.166 375.818C715.414 375.818 715.641 375.648 715.708 375.39C715.789 375.081 715.611 374.764 715.311 374.681L679.986 364.903C679.687 364.82 679.378 365.003 679.298 365.312C679.217 365.62 679.394 365.938 679.694 366.021L715.02 375.798C715.068 375.811 715.118 375.818 715.166 375.818Z" fill="#21211D"/>
<path fill-rule="evenodd" clip-rule="evenodd" d="M657.165 318.309C657.205 318.309 657.246 318.305 657.286 318.295L701.511 308.513C701.817 308.445 702.011 308.138 701.945 307.827C701.878 307.516 701.576 307.32 701.27 307.387L657.045 317.17C656.739 317.237 656.545 317.544 656.611 317.855C656.669 318.124 656.904 318.309 657.165 318.309Z" fill="#21211D"/>
<path fill-rule="evenodd" clip-rule="evenodd" d="M573.822 317.904C574.08 317.904 574.313 317.721 574.371 317.454C574.438 317.144 574.246 316.838 573.942 316.771L544.693 310.222C544.391 310.155 544.09 310.35 544.023 310.659C543.956 310.968 544.148 311.274 544.452 311.342L573.701 317.89C573.741 317.899 573.782 317.904 573.822 317.904Z" fill="#21211D"/>
<path fill-rule="evenodd" clip-rule="evenodd" d="M641.132 293.201C641.176 291.99 641.198 290.902 641.208 289.959L637.966 290.712C637.966 290.712 637.955 290.718 637.939 290.724C637.928 290.724 637.917 290.729 637.906 290.735L633.826 291.538H633.821C624.278 292.922 614.535 293.14 604.933 292.403C603.817 292.319 602.707 292.202 601.603 292.063C600.254 291.901 598.916 291.7 597.583 291.477C597.077 304.879 596.503 321.595 617.111 321.171C637.719 320.747 640.735 305.559 641.132 293.201Z" fill="#F0B5AA"/>
<mask id="mask3" mask-type="alpha" maskUnits="userSpaceOnUse" x="588" y="226" width="57" height="56">
<path fill-rule="evenodd" clip-rule="evenodd" d="M644.858 226.282H588.77V281.908H644.858V226.282Z" fill="white"/>
</mask>
<g mask="url(#mask3)">
<path fill-rule="evenodd" clip-rule="evenodd" d="M593.006 278.298C596.443 281.881 601.143 282.471 606.109 281.475C618.783 278.935 633.258 266.069 633.258 266.069C636.129 263.817 639.185 260.733 641.112 257.33L641.21 257.15C641.72 256.242 642.142 255.304 642.46 254.361C642.611 253.909 642.738 253.452 642.836 252.995C642.848 252.949 642.854 252.908 642.866 252.868C643.467 250.176 643.908 250.332 644.642 245.691C645.679 239.151 642.947 233.364 637.09 230.203C629.201 225.944 618.98 224.85 610.554 228.444C610.53 228.455 610.507 228.461 610.484 228.473C609.501 228.895 608.557 229.393 607.66 229.955C599.517 234.99 594.945 245.031 591.622 253.608C588.607 261.393 586.582 271.602 593.006 278.298Z" fill="#F0B5AA"/>
</g>
<path fill-rule="evenodd" clip-rule="evenodd" d="M610.59 252.225L605.325 297.013C604.285 305.858 610.612 313.871 619.457 314.911C628.302 315.951 636.316 309.624 637.356 300.779C637.464 299.853 637.485 298.848 637.438 297.947L634.786 252.93C634.392 246.231 628.642 241.12 621.943 241.515C615.97 241.866 611.26 246.481 610.59 252.225Z" fill="#F0B5AA"/>
<path fill-rule="evenodd" clip-rule="evenodd" d="M607.189 281.149C607.189 281.149 610.942 280.523 615.914 277.967C616.522 277.655 617.123 278.394 616.685 278.92L606.07 291.365L607.189 281.149Z" fill="#21211D"/>
<path fill-rule="evenodd" clip-rule="evenodd" d="M635.691 268.58C635.691 268.58 634.495 267.866 633.633 266.603C633.502 266.411 633.204 266.466 633.159 266.695C632.852 268.255 632.578 272.384 636.106 275.783L635.691 268.58Z" fill="#21211D"/>
<path fill-rule="evenodd" clip-rule="evenodd" d="M610.554 228.444C610.531 228.456 610.507 228.461 610.485 228.473C609.5 228.895 608.557 229.393 607.66 229.955C610.009 234.799 613.731 239.087 617.967 242.473C621.212 245.071 624.796 247.23 628.593 248.916C627.47 251.877 626.645 254.697 626.117 257.376C626 257.712 625.94 258.06 625.94 258.403C625.94 259.623 626.683 260.779 627.892 261.244C629.36 261.81 631.017 261.167 631.719 259.764L633.216 256.917C634.218 254.09 637.925 252.785 639.4 252.317C640.548 252.541 641.705 252.725 642.866 252.867C643.467 250.176 643.908 250.333 644.642 245.691C645.679 239.151 642.946 233.363 637.089 230.204C629.201 225.944 618.98 224.85 610.554 228.444Z" fill="#654206"/>
<path fill-rule="evenodd" clip-rule="evenodd" d="M631.816 261.733C632.103 266.693 636.358 270.482 641.318 270.194C646.279 269.906 650.067 265.652 649.779 260.691C649.492 255.731 645.237 251.943 640.277 252.23C635.316 252.518 631.528 256.773 631.816 261.733Z" fill="#F0B5AA"/>
<path fill-rule="evenodd" clip-rule="evenodd" d="M637.577 262.33C637.652 262.33 637.727 262.315 637.8 262.285L644.865 259.325C645.16 259.202 645.298 258.863 645.175 258.568C645.052 258.274 644.712 258.134 644.418 258.258L637.353 261.217C637.058 261.341 636.919 261.68 637.043 261.975C637.136 262.196 637.351 262.33 637.577 262.33Z" fill="#21211D"/>
<path fill-rule="evenodd" clip-rule="evenodd" d="M641.968 263.571C642.037 263.571 642.107 263.559 642.175 263.533C642.473 263.419 642.623 263.084 642.509 262.785L641.494 260.13C641.38 259.831 641.044 259.682 640.747 259.796C640.448 259.91 640.299 260.245 640.413 260.543L641.428 263.199C641.516 263.429 641.736 263.571 641.968 263.571Z" fill="#21211D"/>
<path fill-rule="evenodd" clip-rule="evenodd" d="M639.012 231.704C644.838 223.52 656.332 219.904 665.795 223.277C670.274 224.874 674.138 227.788 678.257 230.166C682.375 232.543 687.093 234.443 691.788 233.691C695.79 233.05 699.272 230.543 702.056 227.598C704.841 224.654 707.073 221.236 709.661 218.118C714.624 212.141 721.02 207.231 728.367 204.705C735.714 202.18 744.036 202.172 751.111 205.382L766.352 263.299C759.527 258.075 750.993 255.121 742.399 255.007C733.805 254.893 725.197 257.621 718.236 262.662C713.986 265.741 710.203 269.724 705.219 271.366C700.228 273.011 694.629 272.008 689.991 269.538C685.353 267.068 681.568 263.248 678.278 259.151C674.338 254.245 670.841 246.944 665.506 243.608C659.147 239.632 650.537 238.422 643.053 238.912L639.012 231.704Z" fill="#654206"/>
<path fill-rule="evenodd" clip-rule="evenodd" d="M644.826 239.3C644.932 239.3 645.04 239.285 645.147 239.251C645.714 239.074 646.032 238.472 645.855 237.904C645.797 237.716 644.377 233.25 640.305 230.328C639.821 229.98 639.147 230.091 638.8 230.575C638.453 231.059 638.564 231.732 639.047 232.079C642.515 234.568 643.785 238.505 643.797 238.545C643.941 239.005 644.367 239.3 644.826 239.3Z" fill="#EDC829"/>
<path fill-rule="evenodd" clip-rule="evenodd" d="M605.461 264.029C605.463 264.029 605.466 264.029 605.468 264.029L607.571 264.023C607.908 264.022 608.179 263.749 608.178 263.413C608.177 263.076 607.9 262.789 607.568 262.805L605.465 262.811C605.464 262.812 605.462 262.812 605.461 262.812C605.014 262.812 604.602 262.608 604.33 262.252C604.057 261.896 603.969 261.443 604.088 261.01L606.614 251.807C606.703 251.482 606.512 251.147 606.188 251.058C605.864 250.969 605.529 251.16 605.44 251.484L602.913 260.688C602.693 261.491 602.857 262.331 603.362 262.992C603.867 263.651 604.631 264.029 605.461 264.029Z" fill="#21211D"/>
<path fill-rule="evenodd" clip-rule="evenodd" d="M588.416 248.067C588.52 248.067 588.625 248.041 588.721 247.985C595.336 244.139 600.893 247.77 601.126 247.927C601.404 248.114 601.783 248.04 601.97 247.762C602.158 247.483 602.085 247.105 601.807 246.918C601.549 246.743 595.4 242.693 588.109 246.932C587.819 247.101 587.72 247.474 587.889 247.764C588.002 247.959 588.206 248.067 588.416 248.067Z" fill="#21211D"/>
<mask id="mask4" mask-type="alpha" maskUnits="userSpaceOnUse" x="587" y="250" width="16" height="7">
<path fill-rule="evenodd" clip-rule="evenodd" d="M602.106 250.615H587.045V256.811H602.106V250.615Z" fill="white"/>
</mask>
<g mask="url(#mask4)">
<path fill-rule="evenodd" clip-rule="evenodd" d="M587.045 253.256C587.045 253.256 590.057 256.98 594.956 256.806C597.032 256.728 599.448 255.96 602.106 253.898C602.106 253.898 599.517 250.927 595.208 250.64C592.925 250.481 590.164 251.068 587.045 253.256Z" fill="white"/>
</g>
<mask id="mask5" mask-type="alpha" maskUnits="userSpaceOnUse" x="587" y="250" width="10" height="7">
<path fill-rule="evenodd" clip-rule="evenodd" d="M596.116 250.615H587.045V256.811H596.116V250.615Z" fill="white"/>
</mask>
<g mask="url(#mask5)">
<path fill-rule="evenodd" clip-rule="evenodd" d="M587.045 253.256C587.045 253.256 590.057 256.98 594.956 256.806C595.644 255.974 596.061 254.935 596.111 253.777C596.16 252.618 595.823 251.526 595.208 250.64C592.925 250.481 590.164 251.068 587.045 253.256Z" fill="#21211D"/>
</g>
<mask id="mask6" mask-type="alpha" maskUnits="userSpaceOnUse" x="608" y="245" width="16" height="4">
<path fill-rule="evenodd" clip-rule="evenodd" d="M623.267 245.005H608.999V248.067H623.267V245.005Z" fill="white"/>
</mask>
<g mask="url(#mask6)">
<path fill-rule="evenodd" clip-rule="evenodd" d="M622.658 248.067C622.868 248.067 623.072 247.959 623.185 247.764C623.354 247.474 623.255 247.101 622.964 246.932C615.673 242.693 609.525 246.743 609.267 246.918C608.988 247.106 608.915 247.484 609.103 247.763C609.291 248.041 609.669 248.115 609.948 247.927C610.181 247.77 615.738 244.139 622.352 247.985C622.448 248.041 622.554 248.067 622.658 248.067Z" fill="#21211D"/>
</g>
<path fill-rule="evenodd" clip-rule="evenodd" d="M607.681 268.833C610.112 268.833 611.401 267.065 611.758 266.052C611.87 265.735 611.704 265.388 611.387 265.276C611.071 265.164 610.724 265.329 610.611 265.645C610.577 265.738 609.758 267.892 607.194 267.586C606.859 267.546 606.557 267.785 606.517 268.119C606.477 268.453 606.716 268.755 607.049 268.795C607.268 268.821 607.478 268.833 607.681 268.833Z" fill="#21211D"/>
<path fill-rule="evenodd" clip-rule="evenodd" d="M619.258 257.64C619.487 257.64 619.703 257.503 619.793 257.277C619.911 256.982 619.767 256.646 619.471 256.528L613.429 254.12L619.243 251.662C619.536 251.539 619.674 251.2 619.55 250.907C619.426 250.614 619.087 250.477 618.794 250.601L611.688 253.604C611.473 253.695 611.334 253.907 611.336 254.141C611.338 254.374 611.481 254.584 611.699 254.67L619.045 257.599C619.114 257.627 619.187 257.64 619.258 257.64Z" fill="#21211D"/>
<path fill-rule="evenodd" clip-rule="evenodd" d="M134.398 450.385C134.678 450.385 134.94 450.21 135.037 449.93L164.871 363.81C164.993 363.457 164.806 363.071 164.453 362.949C164.1 362.827 163.714 363.013 163.592 363.367L133.758 449.487C133.636 449.84 133.823 450.225 134.176 450.348C134.249 450.373 134.324 450.385 134.398 450.385Z" fill="#21211D"/>
<path fill-rule="evenodd" clip-rule="evenodd" d="M122.591 468.37C122.965 468.37 123.268 468.067 123.268 467.693V277.916C123.268 277.542 122.965 277.239 122.591 277.239C122.218 277.239 121.915 277.542 121.915 277.916V467.693C121.915 468.067 122.218 468.37 122.591 468.37Z" fill="#21211D"/>
<path fill-rule="evenodd" clip-rule="evenodd" d="M115.805 479.319C115.873 479.319 115.942 479.309 116.01 479.287C116.366 479.174 116.563 478.793 116.45 478.436L79.1518 361.358C79.0384 361.002 78.6577 360.805 78.3013 360.919C77.9453 361.033 77.7484 361.413 77.8618 361.769L115.16 478.847C115.252 479.135 115.518 479.319 115.805 479.319Z" fill="#21211D"/>
<path fill-rule="evenodd" clip-rule="evenodd" d="M113.699 535.255H130.463C145.561 535.255 158.481 524.417 161.107 509.549L175.407 428.602H68.7539L83.0539 509.549C85.6807 524.417 98.6008 535.255 113.699 535.255Z" fill="#4965CC"/>
<path fill-rule="evenodd" clip-rule="evenodd" d="M63.3269 412.897C56.3938 395.26 47.7865 376.864 47.3592 357.578C47.2409 352.24 47.882 346.706 50.5696 342.091C56.5631 331.802 70.586 330.043 80.0398 336.498C84.7066 339.684 88.066 344.842 88.1498 349.582C88.1369 348.84 92.0394 347.391 92.6627 347.164C94.3681 346.543 96.1655 346.174 97.9766 346.061C101.4 345.848 104.926 346.538 107.911 348.257C113.756 351.624 117.61 358.321 117.374 365.089C117.116 372.446 112.565 378.947 107.524 384.314C95.262 397.369 79.1723 405.11 63.3269 412.897Z" fill="#F1A596"/>
<path fill-rule="evenodd" clip-rule="evenodd" d="M185.651 418.259C172.244 407.94 157.206 397.809 148.022 383.24C145.48 379.207 143.43 374.676 143.369 369.908C143.232 359.279 153.16 351.493 163.362 352.093C168.399 352.39 173.339 354.796 175.58 358.386C175.229 357.824 177.551 354.922 177.924 354.462C178.945 353.204 180.151 352.096 181.486 351.178C184.009 349.443 187.026 348.352 190.101 348.297C196.122 348.19 202.148 351.548 205.074 356.838C208.256 362.589 207.757 369.657 206.362 376.08C202.969 391.706 194.206 405.021 185.651 418.259Z" fill="#F1A596"/>
<path fill-rule="evenodd" clip-rule="evenodd" d="M138.399 347.446C119.298 336.048 98.097 325.148 83.8526 307.549C79.9095 302.677 76.5315 297.079 75.7134 290.864C73.8897 277.007 85.6471 265.305 99.0601 264.511C105.681 264.118 112.503 266.495 115.984 270.835C115.439 270.155 118.023 266.008 118.438 265.35C119.576 263.548 120.98 261.916 122.58 260.51C125.605 257.854 129.376 255.963 133.381 255.416C141.225 254.344 149.613 257.796 154.252 264.249C159.297 271.265 159.738 280.57 158.912 289.171C156.901 310.098 147.521 328.838 138.399 347.446Z" fill="#F1A596"/>
<path fill-rule="evenodd" clip-rule="evenodd" d="M138.399 348.123C138.462 348.123 138.526 348.114 138.589 348.096C138.948 347.99 139.154 347.614 139.049 347.256L116.634 270.645C116.529 270.287 116.154 270.08 115.795 270.186C115.436 270.291 115.23 270.667 115.335 271.025L137.75 347.636C137.836 347.931 138.106 348.123 138.399 348.123Z" fill="#21211D"/>
<path fill-rule="evenodd" clip-rule="evenodd" d="M185.65 418.936C185.687 418.936 185.725 418.933 185.763 418.927C186.131 418.865 186.38 418.515 186.318 418.147L176.247 358.274C176.185 357.905 175.837 357.656 175.468 357.719C175.099 357.781 174.851 358.13 174.912 358.499L184.983 418.371C185.039 418.702 185.325 418.936 185.65 418.936Z" fill="#21211D"/>
<path fill-rule="evenodd" clip-rule="evenodd" d="M63.3267 413.574C63.5968 413.574 63.8524 413.411 63.9569 413.144L88.7802 349.829C88.9167 349.481 88.745 349.089 88.3971 348.952C88.0488 348.816 87.6559 348.987 87.5199 349.335L62.6969 412.65C62.5605 412.998 62.7318 413.39 63.0801 413.527C63.1611 413.559 63.2445 413.574 63.3267 413.574Z" fill="#21211D"/>
<path fill-rule="evenodd" clip-rule="evenodd" d="M59.6313 364.265C59.6588 364.265 59.6864 364.264 59.7143 364.26L83.8998 361.304C84.2708 361.258 84.5348 360.921 84.4895 360.55C84.4441 360.178 84.1063 359.915 83.7358 359.96L59.5499 362.917C59.1789 362.962 58.9149 363.299 58.9606 363.67C59.0023 364.013 59.2943 364.265 59.6313 364.265Z" fill="#21211D"/>
<path fill-rule="evenodd" clip-rule="evenodd" d="M90.8367 388.195C90.9853 388.195 91.1348 388.146 91.2595 388.046C91.5511 387.812 91.5981 387.386 91.3644 387.095L79.5734 372.381C79.3397 372.089 78.9137 372.043 78.6221 372.276C78.3305 372.51 78.2835 372.936 78.5172 373.228L90.3082 387.941C90.4418 388.108 90.6382 388.195 90.8367 388.195Z" fill="#21211D"/>
<path fill-rule="evenodd" clip-rule="evenodd" d="M61.4397 395.732C61.4701 395.732 61.5009 395.73 61.532 395.725L70.9141 394.449C71.2843 394.398 71.5435 394.057 71.4933 393.687C71.4431 393.316 71.1008 393.056 70.7315 393.108L61.3494 394.385C60.9788 394.435 60.7196 394.776 60.7698 395.146C60.816 395.486 61.1064 395.732 61.4397 395.732Z" fill="#21211D"/>
<path fill-rule="evenodd" clip-rule="evenodd" d="M146.885 287.222C147.203 287.222 147.486 286.998 147.549 286.676C147.621 286.309 147.382 285.953 147.015 285.881L119.113 280.419C118.745 280.348 118.39 280.587 118.319 280.953C118.247 281.32 118.486 281.676 118.853 281.747L146.755 287.21C146.799 287.218 146.843 287.222 146.885 287.222Z" fill="#21211D"/>
<path fill-rule="evenodd" clip-rule="evenodd" d="M108.457 314.116C108.629 314.116 108.801 314.05 108.933 313.92L124.445 298.608C124.711 298.346 124.714 297.917 124.451 297.651C124.188 297.384 123.76 297.382 123.494 297.644L107.982 312.957C107.716 313.22 107.713 313.648 107.976 313.914C108.108 314.048 108.283 314.116 108.457 314.116Z" fill="#21211D"/>
<path fill-rule="evenodd" clip-rule="evenodd" d="M143.367 323.955C143.633 323.955 143.885 323.798 143.993 323.537C144.136 323.191 143.971 322.796 143.626 322.653L129.93 316.991C129.585 316.848 129.189 317.013 129.047 317.358C128.904 317.704 129.068 318.1 129.414 318.242L143.109 323.904C143.193 323.939 143.281 323.955 143.367 323.955Z" fill="#21211D"/>
<path fill-rule="evenodd" clip-rule="evenodd" d="M159.15 378.936C159.267 378.936 159.386 378.905 159.495 378.841L177.469 368.144C177.791 367.953 177.896 367.537 177.705 367.216C177.514 366.895 177.098 366.789 176.777 366.981L158.803 377.677C158.482 377.869 158.376 378.284 158.568 378.605C158.694 378.817 158.919 378.936 159.15 378.936Z" fill="#21211D"/>
<path fill-rule="evenodd" clip-rule="evenodd" d="M197.971 386.229C198.279 386.229 198.557 386.018 198.63 385.706C198.714 385.342 198.488 384.978 198.124 384.893L179.577 380.58C179.213 380.495 178.849 380.722 178.765 381.086C178.68 381.45 178.906 381.814 179.27 381.899L197.817 386.212C197.869 386.224 197.92 386.229 197.971 386.229Z" fill="#21211D"/>
<path fill-rule="evenodd" clip-rule="evenodd" d="M175.408 402.701C175.532 402.701 175.658 402.667 175.771 402.595L182.556 398.273C182.871 398.072 182.964 397.654 182.764 397.338C182.563 397.023 182.145 396.93 181.829 397.131L175.044 401.454C174.728 401.655 174.636 402.073 174.836 402.388C174.966 402.591 175.184 402.701 175.408 402.701Z" fill="#21211D"/>
<mask id="mask7" mask-type="alpha" maskUnits="userSpaceOnUse" x="68" y="428" width="108" height="108">
<path fill-rule="evenodd" clip-rule="evenodd" d="M175.407 428.602L161.107 509.549C158.481 524.417 145.561 535.255 130.462 535.255H113.699C98.6006 535.255 85.6805 524.417 83.0541 509.549L68.7537 428.602" fill="white"/>
</mask>
<g mask="url(#mask7)">
<path fill-rule="evenodd" clip-rule="evenodd" d="M149.672 560.495C151.063 560.495 152.47 560.203 153.864 559.522C157.665 557.666 160.037 552.897 159.633 547.926C159.264 543.375 156.954 539.253 154.743 535.82C143.574 518.478 127.012 505.408 110.996 492.767C95.8436 480.808 80.1756 468.443 69.1638 452.51C67.9395 450.739 66.7135 448.831 66.3527 446.707C66.0441 444.891 66.5058 442.563 68.2323 441.457C69.6538 440.545 71.5953 440.672 73.4818 440.944C84.1781 442.487 95.0324 446.798 105.743 453.756C114.585 459.5 123.464 467.066 132.889 476.886C137.928 482.137 142.863 487.69 147.636 493.061C158.446 505.228 169.625 517.809 182.827 527.789C187.771 531.527 192.142 532.404 195.136 530.258C199.239 527.318 197.983 521.207 195.441 516.469C185.247 497.475 168.94 482.722 153.171 468.455C141.442 457.844 129.314 446.871 119.732 434.203C117.99 431.901 116.24 429.415 115.643 426.56C115.141 424.158 115.668 420.848 118.011 419.256C121.058 417.186 125.445 418.898 128.479 420.365C159.21 435.23 184.548 458.844 209.052 481.681C209.379 481.986 209.892 481.968 210.197 481.641C210.502 481.313 210.484 480.801 210.156 480.496C185.564 457.577 160.135 433.878 129.184 418.907C125.789 417.264 120.841 415.375 117.101 417.915C114.125 419.938 113.428 423.88 114.058 426.891C114.723 430.075 116.669 432.839 118.44 435.18C128.114 447.97 140.299 458.995 152.084 469.656C167.751 483.831 183.952 498.488 194.013 517.235C196.129 521.177 197.446 526.61 194.192 528.941C190.996 531.232 186.312 528.393 183.804 526.497C170.73 516.613 159.605 504.093 148.846 491.985C144.064 486.603 139.118 481.037 134.058 475.764C124.546 465.853 115.573 458.21 106.626 452.398C95.7168 445.311 84.6435 440.918 73.7131 439.341C71.5164 439.023 69.2261 438.895 67.3583 440.093C65.0081 441.599 64.3577 444.636 64.7558 446.978C65.1717 449.429 66.5613 451.594 67.8309 453.431C78.9812 469.564 94.746 482.006 109.992 494.038C125.904 506.597 142.358 519.583 153.381 536.697C155.484 539.961 157.679 543.863 158.019 548.057C158.306 551.593 156.906 556.233 153.153 558.066C151.058 559.09 145.279 560.485 136.903 551.344C128.924 542.635 122.046 532.74 115.394 523.17C109.766 515.074 103.946 506.701 97.4644 499.045C87.5817 487.372 67.2064 467.827 41.6245 467.827C41.5524 467.827 41.4812 467.827 41.4091 467.828C41.1632 467.829 40.9312 467.942 40.7781 468.134C40.6254 468.327 40.5683 468.578 40.623 468.818C43.272 480.422 51.6765 489.382 59.8039 498.048C61.4806 499.835 63.214 501.683 64.8522 503.51C74.8227 514.629 83 527.166 89.1567 540.773C91.2149 545.322 91.4279 548.532 89.8076 550.587C86.9495 554.211 80.6421 551.8 78.0627 550.596C63.8077 543.936 50.8118 535.048 39.4363 524.179C39.1132 523.87 38.6004 523.881 38.291 524.205C37.982 524.528 37.9937 525.041 38.3169 525.35C49.8204 536.342 62.9621 545.33 77.377 552.063C80.306 553.431 87.5043 556.124 91.0796 551.59C91.826 550.643 94.0977 547.762 90.6325 540.105C84.4073 526.348 76.1394 513.671 66.0583 502.429C64.4079 500.588 62.668 498.733 60.9857 496.939C53.2442 488.686 45.2472 480.16 42.4463 469.454C66.9934 469.868 86.6332 488.759 96.2283 500.092C102.66 507.689 108.458 516.029 114.063 524.095C120.746 533.709 127.656 543.649 135.708 552.438C138.73 555.736 144.065 560.495 149.672 560.495Z" fill="#EDC829"/>
</g>
<mask id="mask8" mask-type="alpha" maskUnits="userSpaceOnUse" x="335" y="87" width="148" height="218">
<path d="M482.809 87.6003H335.736V304.539H482.809V87.6003Z" fill="white"/>
</mask>
<g mask="url(#mask8)">
<path fill-rule="evenodd" clip-rule="evenodd" d="M482.809 87.6003V304.539H352.224C343.117 304.539 335.736 297.164 335.736 288.071V273.543V87.6003H482.809Z" fill="#B6CCFC"/>
</g>
<path fill-rule="evenodd" clip-rule="evenodd" d="M457.746 189.115H360.547V114.596H457.746V189.115Z" fill="#4965CC"/>
<path fill-rule="evenodd" clip-rule="evenodd" d="M390.534 212.2H457.729C458.186 212.2 458.556 211.838 458.556 211.39C458.556 210.942 458.186 210.58 457.729 210.58H390.534C390.077 210.58 389.707 210.942 389.707 211.39C389.707 211.838 390.077 212.2 390.534 212.2Z" fill="#21211D"/>
<path fill-rule="evenodd" clip-rule="evenodd" d="M390.534 257.154H457.729C458.186 257.154 458.556 256.792 458.556 256.344C458.556 255.897 458.186 255.534 457.729 255.534H390.534C390.077 255.534 389.707 255.897 389.707 256.344C389.707 256.792 390.077 257.154 390.534 257.154Z" fill="#21211D"/>
<path fill-rule="evenodd" clip-rule="evenodd" d="M360.562 234.475H457.731C458.187 234.475 458.556 234.112 458.556 233.665C458.556 233.217 458.187 232.855 457.731 232.855H360.562C360.106 232.855 359.737 233.217 359.737 233.665C359.737 234.112 360.106 234.475 360.562 234.475Z" fill="#21211D"/>
<path fill-rule="evenodd" clip-rule="evenodd" d="M386.062 188.71H457.746V169.006L426.88 129.581L386.062 188.71Z" fill="#FF6D7B"/>
<path fill-rule="evenodd" clip-rule="evenodd" d="M376.747 143.554C376.747 149.481 381.552 154.286 387.479 154.286C393.406 154.286 398.212 149.481 398.212 143.554C398.212 137.626 393.406 132.821 387.479 132.821C381.552 132.821 376.747 137.626 376.747 143.554Z" fill="#EDE761"/>
<path fill-rule="evenodd" clip-rule="evenodd" d="M352.042 304.539C356.594 304.539 360.713 302.685 363.698 299.686C366.683 296.686 368.527 292.545 368.527 287.971V273.354H508.37V287.971C508.37 292.545 506.526 296.686 503.541 299.686C500.557 302.685 496.437 304.539 491.886 304.539H352.042Z" fill="#4965CC"/>
<path fill-rule="evenodd" clip-rule="evenodd" d="M338.974 272.544C340.986 272.544 343.013 271.908 344.729 270.594C348.852 267.437 349.614 261.562 346.431 257.472L308.997 209.359C305.816 205.269 299.893 204.513 295.771 207.67C291.649 210.828 290.886 216.702 294.069 220.792L331.503 268.905C333.36 271.292 336.152 272.544 338.974 272.544Z" fill="#F73132"/>
<path fill-rule="evenodd" clip-rule="evenodd" d="M273.857 119.595C243.078 119.595 218.127 144.546 218.127 175.325C218.127 206.104 243.078 231.055 273.857 231.055C304.635 231.055 329.586 206.104 329.586 175.325C329.586 144.546 304.635 119.595 273.857 119.595ZM274.011 137.288C294.933 137.288 311.894 154.208 311.894 175.079C311.894 195.951 294.933 212.871 274.011 212.871C253.09 212.871 236.13 195.951 236.13 175.079C236.13 154.208 253.09 137.288 274.011 137.288Z" fill="#B6CCFC"/>
<path fill-rule="evenodd" clip-rule="evenodd" d="M273.879 126.91C300.367 126.91 321.916 148.547 321.916 175.143C321.916 201.738 300.367 223.376 273.879 223.376C247.39 223.376 225.841 201.738 225.841 175.143C225.841 148.547 247.39 126.91 273.879 126.91ZM273.879 225.16C301.346 225.16 323.693 202.722 323.693 175.143C323.693 147.564 301.346 125.126 273.879 125.126C246.411 125.126 224.064 147.564 224.064 175.143C224.064 202.722 246.411 225.16 273.879 225.16Z" fill="white"/>
<path fill-rule="evenodd" clip-rule="evenodd" d="M291.219 169.271C291.647 169.271 292.023 168.968 292.092 168.542C292.169 168.071 291.839 167.629 291.356 167.555L268.421 164.017C267.935 163.94 267.485 164.264 267.409 164.735C267.333 165.206 267.662 165.648 268.145 165.722L291.08 169.26C291.127 169.267 291.173 169.271 291.219 169.271Z" fill="#21211D"/>
<path fill-rule="evenodd" clip-rule="evenodd" d="M298.912 184.66C299.338 184.66 299.713 184.35 299.786 183.911C299.867 183.422 299.541 182.959 299.058 182.877L247.778 174.143C247.299 174.061 246.837 174.39 246.756 174.879C246.675 175.369 247.001 175.832 247.484 175.914L298.764 184.648C298.814 184.656 298.863 184.66 298.912 184.66Z" fill="#21211D"/>
<path fill-rule="evenodd" clip-rule="evenodd" d="M67.8099 499.194C67.8099 499.194 100.27 494.657 97.4701 461.344C97.4701 461.344 62.0885 466.109 67.8099 499.194Z" fill="#066952"/>
<path fill-rule="evenodd" clip-rule="evenodd" d="M67.8097 499.599C67.9295 499.599 68.0482 499.546 68.128 499.444L97.5452 462.081C97.6837 461.905 97.6533 461.65 97.4776 461.512C97.3014 461.374 97.047 461.404 96.9089 461.58L67.4918 498.943C67.3532 499.119 67.3836 499.373 67.5594 499.512C67.6335 499.57 67.7218 499.599 67.8097 499.599Z" fill="white"/>
<path fill-rule="evenodd" clip-rule="evenodd" d="M37.7714 494.993C37.7714 494.993 33.3197 462.522 3.87085e-06 465.234C3.87085e-06 465.234 4.67162 500.628 37.7714 494.993Z" fill="#B6CCFC"/>
<path fill-rule="evenodd" clip-rule="evenodd" d="M53.7901 501.118C53.7901 501.118 97.7786 482.467 81.2511 436.622C81.2511 436.622 33.2354 456.697 53.7901 501.118Z" fill="#B6CCFC"/>
<path fill-rule="evenodd" clip-rule="evenodd" d="M42.1339 504.427C42.1339 504.427 -9.2571 462.111 30.9552 407.4C30.9552 407.4 87.164 453.211 42.1339 504.427Z" fill="#066952"/>
<path fill-rule="evenodd" clip-rule="evenodd" d="M42.1333 504.832C42.1491 504.832 42.1649 504.832 42.1807 504.829C42.4026 504.804 42.5622 504.603 42.5362 504.38L31.3576 407.961C31.3317 407.739 31.1296 407.577 30.9088 407.605C30.6865 407.631 30.5273 407.832 30.5533 408.054L41.7315 504.474C41.7554 504.68 41.9308 504.832 42.1333 504.832Z" fill="white"/>
<path fill-rule="evenodd" clip-rule="evenodd" d="M10.5447 492.901H92.0515C92.0515 508.553 83.2274 522.14 70.2846 528.968L73.1248 535.08H29.4709L32.3111 528.968C19.3687 522.14 10.5447 508.553 10.5447 492.901Z" fill="#EDC829"/>
<path fill-rule="evenodd" clip-rule="evenodd" d="M31.9056 529.373H70.2849C70.5085 529.373 70.6899 529.191 70.6899 528.968C70.6899 528.744 70.5085 528.563 70.2849 528.563H31.9056C31.682 528.563 31.5006 528.744 31.5006 528.968C31.5006 529.191 31.682 529.373 31.9056 529.373Z" fill="white"/>
<mask id="mask9" mask-type="alpha" maskUnits="userSpaceOnUse" x="10" y="492" width="83" height="44">
<path d="M92.0514 492.902C92.0514 508.552 83.227 522.14 70.285 528.968L73.1252 535.079H29.4712L32.3114 528.968C19.3686 522.14 10.545 508.552 10.545 492.902" fill="white"/>
</mask>
<g mask="url(#mask9)">
<path fill-rule="evenodd" clip-rule="evenodd" d="M69.3571 499.5C70.127 499.5 70.8823 499.634 71.5781 499.907C74.8177 501.178 76.9236 505.016 76.4765 508.833C76.1327 511.766 74.4143 514.632 71.7871 516.748C70.6847 515.81 69.6098 514.883 68.5633 513.973C65.585 511.385 62.2693 507.92 63.0724 504.076C63.3907 502.553 64.4664 501.196 66.0244 500.355C67.0717 499.788 68.23 499.5 69.3571 499.5ZM97.3244 536.1C97.4654 536.1 97.6023 536.026 97.6768 535.895C97.7873 535.7 97.7197 535.453 97.5249 535.343C88.0897 529.977 79.6654 523.415 72.4152 517.28C75.1376 515.042 76.918 512.024 77.2808 508.927C77.7693 504.756 75.445 500.554 71.8742 499.153C69.9399 498.394 67.6092 498.577 65.6393 499.642C63.8715 500.597 62.6468 502.153 62.2794 503.91C61.3901 508.166 64.8864 511.851 68.032 514.585C69.0376 515.459 70.0695 516.349 71.1273 517.25C70.8969 517.415 70.6604 517.575 70.4186 517.728C67.6545 519.483 64.1541 520.559 59.717 521.016C50.4009 521.976 40.1149 520.164 27.3466 515.316C23.3368 513.794 19.3164 512.085 15.4284 510.432C9.24133 507.802 2.84403 505.082 -3.68772 503.039C-3.89994 502.973 -4.12836 503.091 -4.19519 503.305C-4.2616 503.518 -4.14294 503.746 -3.92951 503.812C2.56418 505.843 8.94285 508.555 15.1117 511.178C19.0066 512.834 23.0346 514.546 27.0591 516.074C39.95 520.968 50.3531 522.795 59.8001 521.821C64.3647 521.351 67.9801 520.236 70.8528 518.412C71.165 518.214 71.4684 518.005 71.7624 517.789C79.0709 523.98 87.5782 530.618 97.1248 536.047C97.1879 536.083 97.2568 536.1 97.3244 536.1Z" fill="#21211D"/>
</g>
<mask id="mask10" mask-type="alpha" maskUnits="userSpaceOnUse" x="10" y="492" width="83" height="44">
<path d="M92.0514 492.902C92.0514 508.552 83.227 522.14 70.285 528.968L73.1252 535.079H29.4712L32.3114 528.968C19.3686 522.14 10.545 508.552 10.545 492.902" fill="white"/>
</mask>
<g mask="url(#mask10)">
<path fill-rule="evenodd" clip-rule="evenodd" d="M26.4468 494.813C27.0033 494.813 27.4909 494.886 27.7525 494.935C30.7005 495.482 33.6565 497.49 33.6014 500.268C33.5613 502.296 31.8814 503.898 30.2343 504.585C30.0853 504.648 29.9346 504.705 29.7819 504.757C28.0271 503.53 26.3889 502.009 24.9394 500.241C24.1359 499.261 22.9132 497.404 23.752 495.983C24.3117 495.033 25.4825 494.813 26.4468 494.813ZM40.1542 509.048C43.7218 509.048 47.189 507.935 49.7785 505.861C53.7183 502.707 55.5068 497.351 54.129 492.836C54.0634 492.623 53.8378 492.501 53.6232 492.567C53.4093 492.633 53.2886 492.859 53.3538 493.073C54.6377 497.278 52.9594 502.277 49.2723 505.229C45.8878 507.939 40.9043 508.912 36.2679 507.768C34.3243 507.289 32.4124 506.451 30.6073 505.307C32.4776 504.504 34.3644 502.651 34.4114 500.284C34.475 497.055 31.184 494.748 27.9003 494.138C25.6409 493.719 23.8305 494.255 23.0542 495.571C21.9655 497.417 23.3757 499.611 24.3129 500.754C25.6607 502.398 27.1681 503.836 28.7808 505.034C27.3171 505.347 25.7526 505.324 24.2452 505.237C15.3795 504.725 6.56196 502.226 -1.25403 498.01C-1.45086 497.904 -1.69628 497.977 -1.80239 498.174C-1.90891 498.371 -1.8352 498.617 -1.63837 498.723C6.2813 502.995 15.2155 505.527 24.1987 506.045C26.0037 506.149 27.8951 506.164 29.6511 505.649C31.6813 507.016 33.8566 508.007 36.0735 508.554C37.4197 508.887 38.7943 509.048 40.1542 509.048Z" fill="#21211D"/>
</g>
<mask id="mask11" mask-type="alpha" maskUnits="userSpaceOnUse" x="10" y="492" width="83" height="44">
<path d="M92.0514 492.902C92.0514 508.552 83.227 522.14 70.285 528.968L73.1252 535.079H29.4712L32.3114 528.968C19.3686 522.14 10.545 508.552 10.545 492.902" fill="white"/>
</mask>
<g mask="url(#mask11)">
<path fill-rule="evenodd" clip-rule="evenodd" d="M97.7723 511.511C97.889 511.511 98.0044 511.461 98.0846 511.364C98.2271 511.192 98.2033 510.937 98.0311 510.794C90.4946 504.547 84.1337 497.114 79.1256 488.703C79.0114 488.51 78.7631 488.448 78.5703 488.562C78.378 488.676 78.3152 488.925 78.4294 489.117C83.4853 497.608 89.9061 505.111 97.514 511.418C97.5897 511.48 97.6812 511.511 97.7723 511.511Z" fill="#21211D"/>
</g>
</svg>
