<svg width="1100" height="auto" viewBox="0 0 1948 1117" fill="none" xmlns="http://www.w3.org/2000/svg">
<path fill-rule="evenodd" clip-rule="evenodd" d="M248.265 998.61C248.265 974.382 566.366 954.74 958.76 954.74C1351.16 954.74 1669.26 974.382 1669.26 998.61C1669.26 1012.64 1562.59 1025.13 1396.6 1033.16C1411.19 1038.97 1419.25 1045.37 1419.25 1052.07C1419.25 1078.94 1289.82 1100.72 1130.17 1100.72C998.636 1100.72 887.62 1067.7 852.595 1056.07C844.911 1053.51 836.605 1052.75 828.486 1053.87C791.03 1059.07 677.005 1073.68 580.21 1073.68C420.557 1073.68 291.132 1051.9 291.132 1025.03C291.132 1021.49 293.398 1018.04 297.663 1014.71C265.783 1009.73 248.265 1004.29 248.265 998.61Z" fill="#E7F7F6"/>
<path fill-rule="evenodd" clip-rule="evenodd" d="M1444.18 1063.46C1444.18 1069.57 1465.88 1074.53 1492.66 1074.53C1519.44 1074.53 1541.14 1069.57 1541.14 1063.46C1541.14 1057.34 1519.44 1052.38 1492.66 1052.38C1465.88 1052.38 1444.18 1057.34 1444.18 1063.46Z" fill="#96DAD5"/>
<path fill-rule="evenodd" clip-rule="evenodd" d="M684.374 1105.91C684.374 1112.03 706.08 1116.99 732.857 1116.99C759.632 1116.99 781.339 1112.03 781.339 1105.91C781.339 1099.8 759.632 1094.84 732.857 1094.84C706.08 1094.84 684.374 1099.8 684.374 1105.91Z" fill="#96DAD5"/>
<path fill-rule="evenodd" clip-rule="evenodd" d="M1603.16 1046.84C1603.16 1049.9 1613.03 1052.38 1625.21 1052.38C1637.39 1052.38 1647.27 1049.9 1647.27 1046.84C1647.27 1043.79 1637.39 1041.31 1625.21 1041.31C1613.03 1041.31 1603.16 1043.79 1603.16 1046.84Z" fill="#96DAD5"/>
<path fill-rule="evenodd" clip-rule="evenodd" d="M265.241 116.77C247.66 121.917 229.236 111.838 224.091 94.2587C218.945 76.6782 229.023 58.2554 246.603 53.1083C264.182 47.9613 282.605 58.0404 287.753 75.6209C292.899 93.2002 282.82 111.624 265.241 116.77Z" fill="#FF90A0"/>
<path fill-rule="evenodd" clip-rule="evenodd" d="M1761.59 245.714C1761.59 263.331 1747.31 277.614 1729.69 277.614C1712.07 277.614 1697.79 263.331 1697.79 245.714C1697.79 228.095 1712.07 213.814 1729.69 213.814C1747.31 213.814 1761.59 228.095 1761.59 245.714Z" fill="#FF90A0"/>
<path fill-rule="evenodd" clip-rule="evenodd" d="M150.015 24.3298C150.015 36.6617 140.018 46.6596 127.684 46.6596C115.352 46.6596 105.355 36.6617 105.355 24.3298C105.355 11.9979 115.352 2 127.684 2C140.018 2 150.015 11.9979 150.015 24.3298Z" stroke="#FF90A0" stroke-width="3.82797"/>
<path fill-rule="evenodd" clip-rule="evenodd" d="M88.6987 260.935C82.7594 284.504 58.8363 298.797 35.2665 292.856C11.6979 286.917 -2.59474 262.995 3.34454 239.426C9.28382 215.855 33.2058 201.564 56.7755 207.503C80.3453 213.442 94.638 237.364 88.6987 260.935Z" stroke="#2A8C79" stroke-width="3.82797"/>
<path fill-rule="evenodd" clip-rule="evenodd" d="M325.692 263.661C323.885 270.834 316.604 275.184 309.431 273.376C302.258 271.57 297.908 264.289 299.714 257.115C301.522 249.942 308.803 245.592 315.976 247.399C323.15 249.207 327.5 256.488 325.692 263.661Z" fill="#96DAD5"/>
<path fill-rule="evenodd" clip-rule="evenodd" d="M781.629 24.3292C781.629 31.7292 775.63 37.7277 768.231 37.7277C760.832 37.7277 754.833 31.7292 754.833 24.3292C754.833 16.9292 760.832 10.9319 768.231 10.9319C775.63 10.9319 781.629 16.9292 781.629 24.3292Z" fill="#FF90A0"/>
<path fill-rule="evenodd" clip-rule="evenodd" d="M858.189 68.9894C858.189 72.8648 855.046 76.0074 851.171 76.0074C847.294 76.0074 844.153 72.8648 844.153 68.9894C844.153 65.114 847.294 61.9715 851.171 61.9715C855.046 61.9715 858.189 65.114 858.189 68.9894Z" fill="#2A8C79"/>
<path fill-rule="evenodd" clip-rule="evenodd" d="M1886.64 719.744C1886.64 708.116 1877.21 698.69 1865.58 698.69C1853.95 698.69 1844.53 708.116 1844.53 719.744C1844.53 731.372 1853.95 740.798 1865.58 740.798C1877.21 740.798 1886.64 731.372 1886.64 719.744Z" stroke="#FF90A0" stroke-width="3.82797"/>
<path fill-rule="evenodd" clip-rule="evenodd" d="M1357.1 631.063C1357.1 625.425 1352.53 620.855 1346.89 620.855C1341.25 620.855 1336.68 625.425 1336.68 631.063C1336.68 636.7 1341.25 641.27 1346.89 641.27C1352.53 641.27 1357.1 636.7 1357.1 631.063Z" fill="#FF90A0"/>
<path fill-rule="evenodd" clip-rule="evenodd" d="M1947.88 561.521C1947.88 553.417 1941.31 546.847 1933.21 546.847C1925.1 546.847 1918.54 553.417 1918.54 561.521C1918.54 569.625 1925.1 576.195 1933.21 576.195C1941.31 576.195 1947.88 569.625 1947.88 561.521Z" fill="#96DAD5"/>
<path fill-rule="evenodd" clip-rule="evenodd" d="M1894.29 875.052C1894.29 879.128 1890.98 882.433 1886.91 882.433C1882.83 882.433 1879.53 879.128 1879.53 875.052C1879.53 870.977 1882.83 867.672 1886.91 867.672C1890.98 867.672 1894.29 870.977 1894.29 875.052Z" fill="#2A8C79"/>
<path fill-rule="evenodd" clip-rule="evenodd" d="M1843.25 57.5055C1843.25 68.4284 1834.4 77.2833 1823.47 77.2833C1812.55 77.2833 1803.7 68.4284 1803.7 57.5055C1803.7 46.5826 1812.55 37.7277 1823.47 37.7277C1834.4 37.7277 1843.25 46.5826 1843.25 57.5055Z" fill="#96DAD5"/>
<path fill-rule="evenodd" clip-rule="evenodd" d="M193.211 177.285C182.731 180.352 171.748 174.344 168.68 163.864C165.612 153.384 171.62 142.402 182.101 139.332C192.581 136.265 203.564 142.273 206.633 152.753C209.7 163.234 203.692 174.217 193.211 177.285Z" fill="#FF90A0"/>
<path opacity="0.5" fill-rule="evenodd" clip-rule="evenodd" d="M1127.19 953.062C1109.55 936.333 1111.66 901.459 1127.43 879.739C1143.35 857.804 1170.72 866.104 1187.48 881.828C1187.48 881.828 1194.17 846.012 1197.91 828.467C1201.75 810.403 1207.28 794.427 1215.59 777.799C1232.14 744.677 1262.04 726.828 1298.48 733.178C1324.11 737.642 1370.24 758.158 1410.2 850.223C1417.73 812.613 1463.1 799.603 1491.55 819.707C1506.68 830.392 1515.79 846.285 1526.37 860.739C1536.95 875.188 1545.87 890.777 1553.27 907.133C1557.69 916.899 1573.34 939.193 1562.46 945.369C1530.85 963.32 1336.9 956.553 1260.04 955.627C1189.13 954.772 1136.11 961.522 1127.19 953.062Z" fill="#FFC5EB"/>
<path fill-rule="evenodd" clip-rule="evenodd" d="M1533.15 338.459C1503.98 330.061 1464.51 328.715 1451.5 364.713C1441.75 391.672 1461.76 436.956 1490.25 445.735C1549.81 464.09 1596.43 356.673 1533.15 338.459Z" fill="#FD839D"/>
<path fill-rule="evenodd" clip-rule="evenodd" d="M1507.17 296.337C1492.42 275.709 1468.19 297.977 1487.2 314.789C1502.32 328.153 1517.7 311.071 1507.17 296.337Z" fill="#FD839D"/>
<path fill-rule="evenodd" clip-rule="evenodd" d="M1521.41 457.712C1510.16 466.492 1513.1 498.067 1532.47 497.058C1562.11 495.517 1544.44 439.739 1521.41 457.712Z" fill="#FD839D"/>
<path fill-rule="evenodd" clip-rule="evenodd" d="M1428.52 384.898C1412.49 369.554 1392.2 395.315 1410.84 410.512C1430.44 426.495 1441.01 396.859 1428.52 384.898Z" fill="#FD839D"/>
<path fill-rule="evenodd" clip-rule="evenodd" d="M1543.1 303.026C1525.5 309.719 1529.47 342.96 1551.96 336.006C1573.8 329.262 1563.11 295.418 1543.1 303.026Z" fill="#FD839D"/>
<path fill-rule="evenodd" clip-rule="evenodd" d="M1568.27 412.822C1563.74 409.738 1556.3 407.84 1551.48 412.388C1541.8 421.534 1546.77 438.192 1555.06 446.231C1581.15 471.545 1590.35 427.863 1568.27 412.822Z" fill="#FD839D"/>
<path fill-rule="evenodd" clip-rule="evenodd" d="M1470.66 429.398C1453.43 426.236 1432.43 457.208 1452.86 467.38C1479.75 480.776 1484.61 431.957 1470.66 429.398Z" fill="#FD839D"/>
<path fill-rule="evenodd" clip-rule="evenodd" d="M1444.86 315.905C1428.79 307.858 1403.58 339.826 1435.57 350.551C1462.04 359.422 1468.09 327.537 1444.86 315.905Z" fill="#FD839D"/>
<path fill-rule="evenodd" clip-rule="evenodd" d="M1509.64 553.708C1509.29 523.031 1508.84 475.117 1498.18 451.618C1498.13 557.9 1490.27 657.949 1480.01 764.068C1479.31 771.29 1478.56 778.503 1477.8 785.712C1476.02 726.069 1464.08 677.683 1456.68 651.985C1442.39 602.314 1410.65 540.047 1365.33 512.845C1357.47 553.258 1351.9 595.682 1354.45 636.587C1357.24 681.478 1372.04 724.988 1384.78 767.853C1394.87 801.833 1440.04 916.491 1463.08 927.358C1436.38 871.322 1412.65 813.613 1396.77 753.374C1380.68 692.352 1365.17 622.121 1381.29 560.51C1418.82 602.694 1444.62 696.336 1451.05 724.33C1475.96 832.804 1464.1 932.892 1471.23 958.397C1485.12 925.487 1485.38 876.006 1488.48 840.388C1493.02 788.195 1499.34 735.993 1504.3 684.254C1508.53 640.024 1510.15 598.353 1509.64 553.708Z" fill="#556EF8"/>
<path fill-rule="evenodd" clip-rule="evenodd" d="M1496.83 938.322C1499.57 919.278 1513.93 845.378 1521.03 828.494C1531.3 804.053 1548.18 773.761 1571.91 761.661C1571.05 798.778 1577.09 840.146 1563.4 873.96C1550.32 906.286 1532.34 930.455 1506.79 951.277C1537.14 904.019 1554.53 864.236 1556.03 807.557C1537.32 819.438 1496.83 938.322 1496.83 938.322Z" fill="#556EF8"/>
<path fill-rule="evenodd" clip-rule="evenodd" d="M1408.36 953.312C1402.8 927.513 1367.8 856.317 1331 834.682C1328.15 856.368 1351.85 883.229 1363.75 899.258C1371.52 909.726 1399.81 947.071 1408.36 953.312Z" fill="#556EF8"/>
<path fill-rule="evenodd" clip-rule="evenodd" d="M1364.46 830.078C1352.26 831.222 1345.26 851.061 1343.03 883.2C1341.55 904.518 1313.63 928.191 1314.23 895.369C1314.27 894.595 1314.3 893.818 1314.31 893.042C1314.31 892.984 1314.31 892.932 1314.31 892.874L1314.31 892.876C1314.48 878.615 1310.01 863.987 1302.62 851.45C1287.8 826.326 1248.72 798.548 1242.71 768.091C1239.43 751.502 1249.69 734.443 1257.12 718.228C1259.3 730.409 1263.01 742.129 1271.21 752.314C1278.1 760.894 1291.06 769.711 1301.28 772.615C1314.59 776.396 1325.61 767.43 1314.19 755.141C1305.45 745.732 1289.66 740.518 1279.51 731.293C1272.01 724.475 1265.8 715.374 1262.06 705.729C1262.14 705.449 1262.22 705.17 1262.31 704.891C1269.63 713.606 1278.82 720.816 1288.7 725.867C1299.54 731.401 1314.62 738.744 1326.82 734.483C1343.72 728.574 1331.1 714.704 1320.06 711.807C1305.37 707.954 1290.37 705.276 1277.97 695.262C1266.67 686.14 1260.94 663.932 1246.46 659.946L1246.41 660.104C1242.06 658.684 1236.57 658.311 1229.56 659.573C1199.65 664.952 1182.12 646.176 1179.73 651.05C1175.29 660.11 1202.22 678.716 1228.3 676.543C1226.18 691.739 1195.64 677.718 1194.77 681.069C1193.1 688.17 1215.83 690.684 1221.68 693.534C1234.6 699.84 1226.14 710.023 1218.07 716.291C1214.82 718.815 1211.91 721.324 1209.26 723.843C1203.5 717.337 1197.46 710.75 1189.97 707.426C1184.39 704.951 1157.17 703.42 1157.22 711.017C1157.34 726.534 1187.63 709.009 1193.89 733.792C1194.23 735.136 1194.57 738.341 1195.57 741.862C1191.07 751.305 1190.04 761.608 1192.31 773.894C1181.99 772.7 1172.27 770.903 1162.93 776.958C1157.91 780.211 1137.21 789.947 1145.98 797.228C1150.33 800.845 1172.89 786.407 1180.12 788.115C1184.45 789.141 1192.45 792.618 1200.57 795.27C1209.11 809.789 1222.31 822.173 1234.44 832.638C1243.68 840.608 1258.1 856.193 1262.89 867.153C1265.7 873.564 1267.51 878.638 1268.73 884.546C1248.34 881.299 1225.5 890.484 1229.73 908.198C1231.8 916.911 1243.18 921.327 1238.74 928.292C1233.42 936.646 1211.6 927.649 1212.08 935.676C1212.62 944.711 1236.57 944.403 1245.91 939.009C1256 933.187 1249.17 919.713 1259.38 913.515C1262.91 911.376 1266.85 909.929 1270.99 909.016C1270.03 911.838 1269.66 915.248 1270.14 919.23C1272.63 940.082 1293.24 941.718 1298.24 950.462C1302.44 957.802 1293.61 961.101 1287.37 962.847C1279.93 964.928 1270.69 965.26 1274.73 970.104C1282.17 979.033 1314.33 969.814 1314.33 953.301C1314.33 943.052 1302.71 932.721 1307.36 919.997C1307.86 919.102 1308.33 918.194 1308.77 917.279C1321.87 935.7 1354.22 914.516 1351.81 897.042C1357.29 900.624 1364.61 891.388 1356.95 874.203C1377.68 889.808 1374.88 866.308 1368.03 854.185C1372.69 857.776 1386.28 864.278 1389.9 859.096C1396.65 849.453 1378.75 828.739 1364.46 830.078Z" fill="#FD839D"/>
<path fill-rule="evenodd" clip-rule="evenodd" d="M1239.95 670.321C1236.71 669.723 1234.01 668.208 1231.99 665.581C1230.41 663.534 1226.83 666.932 1228.17 668.676C1230.59 671.809 1233.63 673.889 1237.56 674.614C1238.79 674.841 1239.88 674.106 1240.47 673.044C1240.88 672.312 1241.18 670.549 1239.95 670.321Z" fill="black"/>
<path fill-rule="evenodd" clip-rule="evenodd" d="M1223.45 657.566C1221.44 657.52 1219.78 656.553 1218.64 654.903C1217.17 652.786 1213.56 656.174 1214.83 658C1216.55 660.488 1218.97 661.938 1222.03 662.012C1224.22 662.065 1226.25 657.632 1223.45 657.566Z" fill="black"/>
<path fill-rule="evenodd" clip-rule="evenodd" d="M1178.81 655.555C1179.58 656.29 1180.35 657.024 1181.13 657.759C1182.7 659.266 1185.31 657.63 1186.39 656.35C1187.61 654.898 1188.44 652.431 1186.86 650.922C1186.09 650.185 1185.32 649.45 1184.55 648.715C1182.98 647.21 1180.36 648.846 1179.29 650.126C1178.07 651.577 1177.23 654.045 1178.81 655.555Z" fill="black"/>
<path fill-rule="evenodd" clip-rule="evenodd" d="M1216.38 714.196C1223.24 725.94 1238.37 733.544 1251.49 735.299C1255.2 735.795 1258.71 728.341 1253.92 727.699C1242.5 726.177 1228.83 719.058 1222.9 708.902C1220.7 705.134 1214.45 710.889 1216.38 714.196Z" fill="black"/>
<path opacity="0.5" fill-rule="evenodd" clip-rule="evenodd" d="M830.682 937.062C848.322 920.333 846.213 885.459 830.444 863.739C814.522 841.804 787.155 850.104 770.394 865.828C770.394 865.828 763.699 830.012 759.964 812.467C756.122 794.403 750.594 778.427 742.285 761.799C725.729 728.677 695.833 710.828 659.39 717.178C633.765 721.642 587.632 742.158 547.669 834.223C540.145 796.613 494.772 783.603 466.321 803.707C451.196 814.392 442.086 830.285 431.504 844.739C420.926 859.188 412.004 874.777 404.6 891.133C400.182 900.899 384.538 923.193 395.413 929.369C427.023 947.32 620.972 940.553 697.837 939.627C768.745 938.772 821.761 945.522 830.682 937.062Z" fill="#FFC5EB"/>
<path fill-rule="evenodd" clip-rule="evenodd" d="M507.697 750.09C504.845 812.191 504.328 879.327 511.484 939.796C537.127 924.153 528.966 716.818 528.494 662.468C527.977 602.473 540.999 491.713 518.174 436.098L507.697 750.09Z" fill="#AA99F2"/>
<path fill-rule="evenodd" clip-rule="evenodd" d="M509.179 342.932C457.254 298.108 393.29 313.75 382.214 344.288C376.75 359.352 385.519 394.884 430.081 400.475C399.316 412.012 393.73 448.643 420.118 464.254C450.025 481.948 505.738 475.486 520.406 449.029C537.886 473.866 588.708 479.766 614.294 457.899C636.946 438.538 638.623 403.386 599.678 391.92C617.433 394.728 646.243 389.004 654.812 376.689C662.828 365.164 659.661 341.355 650.763 330.62C626.988 301.942 564.727 300.396 509.179 342.932Z" fill="#556EF8"/>
<path fill-rule="evenodd" clip-rule="evenodd" d="M515.279 400.962C519.925 372.77 548.137 341.942 582.92 351.468C579.11 329.761 533.167 306.599 514.168 304.888C479.319 301.75 456.166 322.074 438.137 347.09C438.137 347.09 478.281 345.775 515.279 400.962Z" fill="#FFC5EB"/>
<path fill-rule="evenodd" clip-rule="evenodd" d="M478.124 333.847C480.822 351.266 504.023 330.04 488.153 325.533C482.697 323.982 477.312 328.614 478.124 333.847Z" fill="#FA0000"/>
<path fill-rule="evenodd" clip-rule="evenodd" d="M507.327 307.072C509.219 292.932 525.184 299.509 515.438 310.951C510.483 316.767 506.606 312.459 507.327 307.072Z" fill="#FA0000"/>
<path fill-rule="evenodd" clip-rule="evenodd" d="M523.421 347.183C523.719 337.89 544.355 339.963 537.876 349.575C533.884 355.492 523.19 354.351 523.421 347.183Z" fill="#FA0000"/>
<path fill-rule="evenodd" clip-rule="evenodd" d="M524.343 713.413C528.611 678.462 494.12 610.848 477.39 579.391C468.687 563.024 439.753 516.24 415.744 523.838C380.139 535.109 404.378 606.072 415.696 627.167C432.602 658.678 461.031 718.696 520.843 732.826C559.695 742.003 619.844 654.226 631.563 608.684C642.04 567.978 642.04 535.812 615.71 532.824C587.057 529.574 553.411 586.045 546.36 604.726C534.611 635.87 523.209 680.376 524.343 713.413Z" fill="#AA99F2"/>
<path fill-rule="evenodd" clip-rule="evenodd" d="M462.488 941.699C467.824 910.331 485.567 803.264 433.706 784.573C381.37 765.71 373.735 834.395 389.281 868.177C411.584 916.646 462.488 941.699 462.488 941.699Z" fill="#AA99F2"/>
<path fill-rule="evenodd" clip-rule="evenodd" d="M756.128 818.575C760.511 799.992 752.927 782.186 760.65 763.888C764.453 768.705 767.504 775.08 771.073 780.655L777.906 777.794C777.906 777.794 778.885 765.013 784.095 756.95C788.136 762.186 791.052 768.312 791.914 774.631C794.777 773.194 808.998 772.609 812.156 776.216C818.576 783.551 810.039 791.607 805.545 796.359C793.494 809.106 800.17 819.945 797.542 836.861C854.83 820.615 902.395 843.517 897.48 855.021C892.453 866.788 846.707 836.648 807.117 857.846C844.57 856.528 882.498 872.007 875.928 883.268C871.076 891.585 845.697 875.989 815.925 877.476C768.898 879.828 751.797 921.084 680.376 940.555C702.8 941.07 726.171 939.302 726.171 950.583C726.171 960.844 701.348 959.348 701.348 959.348H602.59C567.96 959.348 567.48 901.112 553.705 882.33C538.311 861.34 508.486 859.253 492.141 839.916C473.477 817.836 482.455 773.588 496.165 776.505C508.456 779.121 491.103 807.037 501.294 821.9C512.763 838.633 538.341 843.387 555.448 852.717C574.396 863.058 587.274 878.814 592.211 899.456C595.591 913.571 602.474 949.051 602.474 949.051C609.947 929.398 619.58 904.754 636.674 891.73C656.255 876.818 676.747 879.518 698.776 872.091C727.12 862.54 749.413 848.965 756.128 818.514" fill="black"/>
<path fill-rule="evenodd" clip-rule="evenodd" d="M778.88 787.092C782.121 786.493 784.818 784.978 786.841 782.351C788.417 780.304 791.998 783.702 790.654 785.447C788.241 788.58 785.196 790.659 781.268 791.384C780.04 791.612 778.945 790.876 778.354 789.814C777.947 789.082 777.651 787.319 778.88 787.092Z" fill="#F4E138"/>
<path fill-rule="evenodd" clip-rule="evenodd" d="M795.377 774.336C797.392 774.29 799.046 773.324 800.188 771.673C801.653 769.556 805.267 772.944 804 774.77C802.276 777.259 799.861 778.709 796.8 778.782C794.61 778.835 792.576 774.403 795.377 774.336Z" fill="#F4E138"/>
</svg>
