<svg width="800" height="455" viewBox="0 0 800 455" fill="none" xmlns="http://www.w3.org/2000/svg">
<path fill-rule="evenodd" clip-rule="evenodd" d="M660.677 8H435.44C426.882 8 418.721 14.9335 417.212 23.4866L345.746 428.546C344.237 437.099 349.952 444.032 358.51 444.032H583.747C592.305 444.032 600.466 437.099 601.975 428.546L673.441 23.4866C674.95 14.9335 669.235 8 660.677 8Z" fill="#4965CC"/>
<mask id="mask0" mask-type="alpha" maskUnits="userSpaceOnUse" x="312" y="8" width="329" height="437">
<path fill-rule="evenodd" clip-rule="evenodd" d="M312 8H640.192V444.032H312V8Z" fill="white"/>
</mask>
<g mask="url(#mask0)">
<path fill-rule="evenodd" clip-rule="evenodd" d="M627.186 8H401.939C393.381 8 385.22 14.9335 383.71 23.4866L312.242 428.546C310.732 437.099 316.447 444.032 325.006 444.032H550.253C558.811 444.032 566.972 437.099 568.481 428.546L639.95 23.4866C641.46 14.9335 635.745 8 627.186 8Z" fill="#B6CCFC"/>
</g>
<path fill-rule="evenodd" clip-rule="evenodd" d="M537.657 26.8963H465.497C464.812 26.8963 464.256 26.3049 464.256 25.5751C464.256 24.8456 464.812 24.2542 465.497 24.2542H537.657C538.342 24.2542 538.898 24.8456 538.898 25.5751C538.898 26.3049 538.342 26.8963 537.657 26.8963Z" fill="#21211D"/>
<path fill-rule="evenodd" clip-rule="evenodd" d="M550.76 25.4103C550.586 26.4136 549.644 27.2266 548.656 27.2266C547.668 27.2266 547.008 26.4136 547.183 25.4103C547.357 24.4067 548.299 23.5936 549.287 23.5936C550.275 23.5936 550.934 24.4067 550.76 25.4103Z" fill="#21211D"/>
<path fill-rule="evenodd" clip-rule="evenodd" d="M646.828 82.7126C646.755 82.7126 646.683 82.706 646.609 82.6932C645.93 82.5743 645.476 81.928 645.596 81.2509L653.335 37.5031C653.455 36.826 654.103 36.3751 654.782 36.493C655.462 36.6123 655.915 37.2583 655.796 37.9354L648.056 81.6831C647.95 82.2876 647.422 82.7126 646.828 82.7126Z" fill="#21211D"/>
<path fill-rule="evenodd" clip-rule="evenodd" d="M636.919 139.85C636.847 139.85 636.774 139.843 636.701 139.831C636.021 139.712 635.567 139.065 635.687 138.388L643.427 94.6402C643.547 93.9627 644.195 93.5135 644.874 93.6301C645.554 93.7494 646.007 94.3953 645.888 95.0724L638.148 138.821C638.041 139.425 637.514 139.85 636.919 139.85Z" fill="#21211D"/>
<path fill-rule="evenodd" clip-rule="evenodd" d="M561.729 29.9501C558.872 34.2437 554.028 36.9667 549.247 36.9667H463.708C458.927 36.9667 455.044 34.2437 453.702 29.9501C452.361 25.656 448.478 22.9331 443.696 22.9331H414.109C408.368 22.9331 402.893 27.5856 401.88 33.3241L334.29 416.467C333.278 422.205 337.112 426.858 342.853 426.858H538.182C543.924 426.858 549.399 422.205 550.412 416.467L618.002 33.3241C619.014 27.5856 615.18 22.9331 609.439 22.9331H574.21C569.429 22.9331 564.585 25.656 561.729 29.9501Z" fill="white"/>
<path fill-rule="evenodd" clip-rule="evenodd" d="M456.493 134.566H435.968C422.417 134.566 413.369 123.618 415.758 110.114L419.377 89.6601C421.767 76.1556 434.689 65.2081 448.24 65.2081H468.764C482.315 65.2081 491.364 76.1556 488.974 89.6601L485.355 110.114C482.966 123.618 470.044 134.566 456.493 134.566Z" fill="#EDC829"/>
<path fill-rule="evenodd" clip-rule="evenodd" d="M549.299 134.566H528.775C515.224 134.566 506.176 123.618 508.565 110.114L512.184 89.6601C514.574 76.1556 527.496 65.2081 541.047 65.2081H561.571C575.123 65.2081 584.171 76.1556 581.781 89.6601L578.162 110.114C575.773 123.618 562.851 134.566 549.299 134.566Z" fill="#F73132"/>
<path fill-rule="evenodd" clip-rule="evenodd" d="M441.3 220.107H420.775C407.225 220.107 398.176 209.159 400.566 195.655L404.185 175.201C406.574 161.697 419.496 150.749 433.047 150.749H453.572C467.123 150.749 476.171 161.697 473.782 175.201L470.163 195.655C467.773 209.159 454.851 220.107 441.3 220.107Z" fill="#4965CC"/>
<path fill-rule="evenodd" clip-rule="evenodd" d="M534.437 220.107H513.913C500.362 220.107 491.313 209.159 493.703 195.655L497.322 175.201C499.711 161.697 512.633 150.749 526.185 150.749H546.709C560.26 150.749 569.308 161.697 566.919 175.201L563.3 195.655C560.91 209.159 547.988 220.107 534.437 220.107Z" fill="#FBD4AB"/>
<path fill-rule="evenodd" clip-rule="evenodd" d="M426.107 305.978H405.583C392.032 305.978 382.984 295.03 385.373 281.526L388.992 261.072C391.381 247.567 404.304 236.62 417.855 236.62H438.379C451.93 236.62 460.978 247.567 458.589 261.072L454.97 281.526C452.581 295.03 439.658 305.978 426.107 305.978Z" fill="#B6CCFC"/>
<path fill-rule="evenodd" clip-rule="evenodd" d="M519.245 305.978H498.72C485.169 305.978 476.121 295.03 478.51 281.526L482.129 261.072C484.519 247.567 497.441 236.62 510.992 236.62H531.516C545.068 236.62 554.116 247.567 551.726 261.072L548.107 281.526C545.718 295.03 532.796 305.978 519.245 305.978Z" fill="#D5962F"/>
<path fill-rule="evenodd" clip-rule="evenodd" d="M410.915 391.519H390.39C376.839 391.519 367.791 380.571 370.18 367.067L373.799 346.613C376.189 333.109 389.111 322.161 402.662 322.161H423.187C436.737 322.161 445.786 333.109 443.396 346.613L439.777 367.067C437.388 380.571 424.466 391.519 410.915 391.519Z" fill="#FBD4AB"/>
<path fill-rule="evenodd" clip-rule="evenodd" d="M504.052 391.519H483.527C469.977 391.519 460.928 380.571 463.318 367.067L466.937 346.613C469.326 333.109 482.249 322.161 495.799 322.161H516.324C529.875 322.161 538.923 333.109 536.534 346.613L532.915 367.067C530.525 380.571 517.603 391.519 504.052 391.519Z" fill="#066952"/>
<mask id="mask1" mask-type="alpha" maskUnits="userSpaceOnUse" x="313" y="9" width="328" height="436">
<path fill-rule="evenodd" clip-rule="evenodd" d="M402.757 9.03514C394.222 9.03514 386.084 15.9534 384.579 24.488L313.311 428.669C311.807 437.203 317.505 444.121 326.039 444.121H550.652C559.187 444.121 567.326 437.203 568.83 428.669L640.098 24.488C641.603 15.9534 635.905 9.03514 627.37 9.03514H402.757Z" fill="white"/>
</mask>
<g mask="url(#mask1)">
<path opacity="0.5" fill-rule="evenodd" clip-rule="evenodd" d="M576.385 -32.9648L682.76 -14.412L311.807 412.549L265.627 387.751L576.385 -32.9648Z" fill="white"/>
</g>
<mask id="mask2" mask-type="alpha" maskUnits="userSpaceOnUse" x="313" y="9" width="328" height="436">
<path fill-rule="evenodd" clip-rule="evenodd" d="M402.757 9.03514C394.222 9.03514 386.084 15.9534 384.579 24.488L313.311 428.669C311.807 437.203 317.505 444.121 326.039 444.121H550.652C559.187 444.121 567.326 437.203 568.83 428.669L640.098 24.488C641.603 15.9534 635.905 9.03514 627.37 9.03514H402.757Z" fill="white"/>
</mask>
<g mask="url(#mask2)">
<path opacity="0.5" fill-rule="evenodd" clip-rule="evenodd" d="M673.842 45.8752L682.76 71.3284L367.773 424.066L338.364 423.374L673.842 45.8752Z" fill="white"/>
</g>
<path fill-rule="evenodd" clip-rule="evenodd" d="M689.919 220.839H620.283V261.232C620.283 270.081 627.456 277.253 636.304 277.253H673.899C682.747 277.253 689.919 270.081 689.919 261.232V220.839Z" fill="#F73132"/>
<path fill-rule="evenodd" clip-rule="evenodd" d="M736.044 164.607C736.044 209.289 699.823 245.511 655.141 245.511C610.459 245.511 574.237 209.289 574.237 164.607C574.237 119.925 610.459 83.7034 655.141 83.7034C699.823 83.7034 736.044 119.925 736.044 164.607Z" fill="#EDC829"/>
<path fill-rule="evenodd" clip-rule="evenodd" d="M640.979 141.167C639.507 141.167 638.173 142.447 637.581 143.784C636.871 145.4 636.828 147.279 636.982 149.602C637.412 156.33 638.843 162.94 641.236 169.249C641.811 170.753 642.476 172.193 643.208 173.524C643.361 172.724 643.515 171.923 643.668 171.122C644.054 169.112 644.44 167.101 644.823 165.093C645.986 159.046 647.433 151.522 645.021 145.161C644.687 144.281 643.426 141.392 641.229 141.18C641.146 141.172 641.062 141.167 640.979 141.167ZM667.511 137.093C665.22 137.093 663.159 139.032 662.241 141.085C661.125 143.573 661.089 146.436 661.155 149.651C661.361 159.273 662.037 169.007 663.165 178.625C665.112 176.746 666.583 174.546 667.554 172.848C672.1 164.903 674.234 155.504 673.564 146.383C673.103 139.986 670.276 137.397 667.994 137.122C667.833 137.102 667.671 137.093 667.511 137.093ZM676.223 244.203C675.614 244.203 675.044 243.82 674.835 243.21C668.263 224.022 663.568 204.083 660.87 183.906C658.936 184.904 656.934 185.408 654.895 185.408C654.867 185.408 654.839 185.408 654.81 185.408C651.196 185.378 647.786 183.77 644.817 180.721C641.859 196.121 638.906 211.525 635.953 226.922L633.005 242.299C632.852 243.095 632.084 243.619 631.288 243.464C630.492 243.311 629.97 242.542 630.123 241.746L633.071 226.37C636.176 210.174 639.283 193.971 642.394 177.773C640.89 175.624 639.547 173.053 638.493 170.293C635.995 163.706 634.501 156.81 634.053 149.793C633.895 147.414 633.888 144.894 634.895 142.599C636.146 139.778 638.869 137.993 641.516 138.259C644.169 138.515 646.448 140.652 647.765 144.12C650.472 151.259 648.938 159.236 647.706 165.645C647.323 167.653 646.937 169.664 646.551 171.676C646.206 173.472 645.862 175.269 645.518 177.064C648.295 180.627 651.426 182.445 654.832 182.473C654.853 182.473 654.875 182.473 654.895 182.473C656.779 182.473 658.649 181.898 660.466 180.76C659.197 170.469 658.442 160.028 658.22 149.712C658.15 146.267 658.2 142.924 659.563 139.885C660.939 136.807 664.276 133.713 668.346 134.208C673.769 134.861 676.123 141.06 676.491 146.17C677.204 155.866 674.935 165.859 670.101 174.306C668.781 176.615 666.612 179.772 663.598 182.138C666.239 202.594 670.952 222.817 677.612 242.259C677.874 243.026 677.466 243.861 676.699 244.123C676.542 244.177 676.381 244.203 676.223 244.203Z" fill="#21211D"/>
<path fill-rule="evenodd" clip-rule="evenodd" d="M712.147 150.084C711.421 150.084 710.79 149.545 710.694 148.806C708.667 133.263 698.95 118.787 685.333 111.026C684.628 110.625 684.383 109.728 684.784 109.024C685.186 108.32 686.082 108.075 686.786 108.476C701.185 116.683 711.462 131.991 713.604 148.426C713.709 149.23 713.142 149.967 712.338 150.071C712.274 150.08 712.21 150.084 712.147 150.084Z" fill="white"/>
<path fill-rule="evenodd" clip-rule="evenodd" d="M620.283 253.732H689.919V251.906H620.283V253.732Z" fill="white"/>
<path fill-rule="evenodd" clip-rule="evenodd" d="M620.283 264.238H689.919V262.412H620.283V264.238Z" fill="white"/>
<path d="M171.412 161.098H73.651V170.345H171.412V161.098Z" fill="#EDC829"/>
<path fill-rule="evenodd" clip-rule="evenodd" d="M173.467 415.408L128.769 219.058L135.505 407.45L63.0822 407.139L73.6199 168.364H171.164L242.751 396.212L173.467 415.408Z" fill="#EDC829"/>
<path fill-rule="evenodd" clip-rule="evenodd" d="M135.592 407.144C135.592 400.756 119.283 395.624 99.3599 395.624C79.4375 395.624 63.2389 400.802 63.2389 407.191C63.2389 413.579 79.4375 418.758 99.3599 418.758C119.283 418.758 135.592 413.532 135.592 407.144Z" fill="#21211D"/>
<path fill-rule="evenodd" clip-rule="evenodd" d="M229.094 411.573C224.055 414.088 217.915 416.307 211.091 417.821C204.307 419.326 197.838 420.121 192.221 420.246C181.73 420.494 174.244 418.418 173.361 414.353C172.455 410.176 179.057 404.346 189.362 399.656C194.446 397.343 200.43 395.308 206.86 393.88C211.535 392.842 215.974 392.137 220.041 391.746C232.917 390.516 242.067 392.474 243.098 397.213C243.977 401.269 238.422 406.924 229.094 411.573Z" fill="#21211D"/>
<mask id="mask3" mask-type="alpha" maskUnits="userSpaceOnUse" x="81" y="395" width="81" height="60">
<path fill-rule="evenodd" clip-rule="evenodd" d="M81.883 395.623H161.694V454.047H81.883V395.623Z" fill="white"/>
</mask>
<g mask="url(#mask3)">
<path fill-rule="evenodd" clip-rule="evenodd" d="M161.694 454.047H81.883V397.065C87.0597 396.144 93.0139 395.623 99.3406 395.623C104.828 395.623 110.041 396.014 114.711 396.71C116.154 402.652 118.525 409.678 122.405 416.078C125.567 421.293 129.727 426.094 135.206 429.558C157.352 443.563 161.694 454.047 161.694 454.047Z" fill="#F1A596"/>
</g>
<mask id="mask4" mask-type="alpha" maskUnits="userSpaceOnUse" x="189" y="391" width="86" height="64">
<path fill-rule="evenodd" clip-rule="evenodd" d="M189.362 391.747H274.065V454.046H189.362V391.747Z" fill="white"/>
</mask>
<g mask="url(#mask4)">
<path fill-rule="evenodd" clip-rule="evenodd" d="M274.065 454.047H196.919L192.221 420.246L189.362 399.656C194.446 397.343 200.431 395.308 206.86 393.88C211.535 392.843 215.975 392.137 220.042 391.747C221.804 397.235 224.686 404.534 229.094 411.573C233.41 418.468 239.199 425.115 246.84 429.558C270.931 443.563 274.065 454.047 274.065 454.047Z" fill="#F1A596"/>
</g>
<path d="M128.047 167.989C128.278 167.98 128.474 168.149 128.504 168.373L128.507 168.416L129.254 188.145C129.413 191.948 126.408 195.123 122.641 195.123C122.395 195.123 122.197 194.924 122.197 194.679C122.197 194.434 122.395 194.235 122.641 194.235C125.864 194.235 128.447 191.544 128.37 188.289L128.366 188.18L127.62 168.45C127.611 168.204 127.802 167.998 128.047 167.989Z" fill="#21211D"/>
<path d="M153.999 168.022C154.226 167.929 154.486 168.037 154.579 168.264C155.878 171.418 157.853 174.178 160.635 176.279C164.121 178.913 168.692 180.365 174.497 180.365C174.742 180.365 174.941 180.564 174.941 180.809C174.941 181.054 174.742 181.253 174.497 181.253C168.503 181.253 163.744 179.741 160.099 176.988C157.181 174.783 155.114 171.895 153.758 168.602C153.665 168.375 153.773 168.116 153.999 168.022Z" fill="#21211D"/>
<path d="M93.6247 168.264C93.7177 168.037 93.977 167.929 94.2039 168.022C94.4309 168.115 94.5395 168.374 94.4465 168.601C93.1012 171.884 91.0396 174.771 88.121 176.976C84.4688 179.736 79.6916 181.253 73.6676 181.253C73.4224 181.253 73.2235 181.054 73.2235 180.809C73.2235 180.564 73.4224 180.365 73.6676 180.365C79.5031 180.365 84.0917 178.908 87.5855 176.268C90.3672 174.165 92.3362 171.409 93.6247 168.264Z" fill="#21211D"/>
<path d="M134.075 219.134C134.32 219.134 134.519 219.333 134.519 219.578C134.519 219.809 134.343 219.998 134.117 220.02L134.075 220.022H124.397C124.152 220.022 123.953 219.823 123.953 219.578C123.953 219.347 124.129 219.157 124.354 219.136L124.397 219.134H134.075Z" fill="#21211D"/>
<path d="M130.506 219.425C130.728 219.367 130.956 219.488 131.035 219.698L131.048 219.742L180.452 407.077C180.514 407.315 180.373 407.558 180.136 407.62C179.913 407.679 179.686 407.558 179.607 407.347L179.593 407.304L130.19 219.968C130.127 219.731 130.269 219.488 130.506 219.425Z" fill="#21211D"/>
<path d="M78.2156 180.386C78.4462 180.394 78.6297 180.577 78.6433 180.803L78.6439 180.845L70.9188 402.705C70.9103 402.95 70.7046 403.142 70.4596 403.134C70.2289 403.125 70.0454 402.943 70.0318 402.717L70.0312 402.674L77.7563 180.814C77.7649 180.569 77.9705 180.378 78.2156 180.386Z" fill="#21211D"/>
<path d="M205.469 382.394C215.253 380.517 225.979 380.002 237.664 381.088C237.908 381.111 238.088 381.327 238.065 381.571C238.042 381.815 237.826 381.995 237.582 381.972C225.98 380.894 215.338 381.405 205.636 383.267C197.601 384.808 190.472 387.223 184.231 390.272C180.27 392.207 176.907 394.279 174.13 396.349L173.723 396.656C172.993 397.212 172.352 397.734 171.798 398.214L171.649 398.344C171.479 398.493 171.326 398.631 171.191 398.755L170.961 398.971C170.927 399.004 170.899 399.031 170.877 399.052L170.842 399.087C170.67 399.262 170.389 399.263 170.214 399.091C170.04 398.918 170.038 398.637 170.211 398.463L170.345 398.332L170.428 398.252C170.605 398.086 170.816 397.893 171.063 397.676C171.765 397.06 172.61 396.374 173.599 395.637C176.419 393.535 179.83 391.434 183.841 389.474C190.151 386.391 197.355 383.951 205.469 382.394Z" fill="#21211D"/>
<path d="M99.0442 385.864C108.192 385.898 116.831 387.195 124.703 389.335C127.376 390.061 129.777 390.838 131.878 391.617L132.163 391.723C132.922 392.009 133.587 392.274 134.152 392.513L134.48 392.653L134.847 392.816C135.069 392.92 135.165 393.184 135.062 393.406C134.959 393.628 134.695 393.725 134.472 393.621L134.307 393.547L134.026 393.424L133.807 393.331C133.252 393.097 132.599 392.836 131.85 392.555C129.708 391.749 127.237 390.944 124.47 390.192C116.669 388.071 108.106 386.786 99.0409 386.752C87.4049 386.709 75.7867 388.747 64.4442 393.282C64.2164 393.373 63.958 393.262 63.867 393.035C63.776 392.807 63.8867 392.548 64.1145 392.457C75.4242 387.936 87.005 385.872 98.6037 385.864L99.0442 385.864Z" fill="#21211D"/>
<path d="M157.582 448.637C157.827 448.637 158.026 448.836 158.026 449.081C158.026 449.312 157.85 449.501 157.624 449.523L157.582 449.525H82.0163C81.771 449.525 81.5722 449.326 81.5722 449.081C81.5722 448.85 81.7483 448.66 81.9735 448.639L82.0163 448.637H157.582Z" fill="#21211D"/>
<path d="M270.336 448.637C270.581 448.637 270.78 448.836 270.78 449.081C270.78 449.312 270.604 449.501 270.379 449.523L270.336 449.525H196.502C196.257 449.525 196.058 449.326 196.058 449.081C196.058 448.85 196.234 448.66 196.459 448.639L196.502 448.637H270.336Z" fill="#21211D"/>
<path d="M82.0318 436.742L82.1971 436.75L82.3617 436.762C82.4197 436.766 82.4808 436.771 82.5449 436.777L82.6432 436.786C83.1197 436.831 83.6497 436.901 84.22 437.001C85.8499 437.286 87.4807 437.753 89.0071 438.447C93.4086 440.447 96.0746 443.894 96.0746 449.081C96.0746 449.326 95.8758 449.525 95.6305 449.525C95.3853 449.525 95.1865 449.326 95.1865 449.081C95.1865 444.276 92.7471 441.122 88.6397 439.255C87.188 438.596 85.6279 438.148 84.0671 437.876C83.5888 437.792 83.1409 437.73 82.7321 437.687L82.5593 437.67C82.4328 437.658 82.318 437.649 82.2157 437.642L82.0008 437.629C81.7557 437.621 81.5639 437.415 81.5725 437.17C81.5811 436.925 81.7867 436.733 82.0318 436.742Z" fill="#21211D"/>
<path d="M195.034 436.742L195.199 436.75L195.364 436.762C195.422 436.766 195.483 436.771 195.547 436.777L195.645 436.786C196.122 436.831 196.652 436.901 197.222 437.001C198.852 437.286 200.483 437.753 202.009 438.447C206.411 440.447 209.077 443.894 209.077 449.081C209.077 449.326 208.878 449.525 208.633 449.525C208.387 449.525 208.189 449.326 208.189 449.081C208.189 444.276 205.749 441.122 201.642 439.255C200.19 438.596 198.63 438.148 197.069 437.876C196.591 437.792 196.143 437.73 195.734 437.687L195.562 437.67C195.435 437.658 195.32 437.649 195.218 437.642L195.003 437.629C194.758 437.621 194.566 437.415 194.575 437.17C194.583 436.925 194.789 436.733 195.034 436.742Z" fill="#21211D"/>
<path fill-rule="evenodd" clip-rule="evenodd" d="M99.2978 411.733C99.2978 414.713 96.9099 417.129 93.9639 417.129C91.0182 417.129 88.6299 414.713 88.6299 411.733C88.6299 408.753 91.0182 406.337 93.9639 406.337C96.9099 406.337 99.2978 408.753 99.2978 411.733Z" fill="white"/>
<path fill-rule="evenodd" clip-rule="evenodd" d="M207.959 411.733C207.959 414.713 205.571 417.129 202.625 417.129C199.679 417.129 197.291 414.713 197.291 411.733C197.291 408.753 199.679 406.337 202.625 406.337C205.571 406.337 207.959 408.753 207.959 411.733Z" fill="white"/>
<path d="M249.933 431.453C250.156 431.399 250.381 431.524 250.456 431.736L250.469 431.78L251.583 436.365C252.699 440.959 249.306 445.398 244.649 445.487L244.508 445.488H207.959C207.714 445.488 207.515 445.289 207.515 445.044C207.515 444.813 207.691 444.623 207.916 444.602L207.959 444.6H244.508C248.617 444.6 251.651 440.737 250.749 436.697L250.72 436.575L249.606 431.989C249.548 431.751 249.694 431.511 249.933 431.453Z" fill="#21211D"/>
<path d="M138.817 431.719C139.042 431.673 139.263 431.806 139.331 432.02L139.342 432.064L140.283 436.616C141.218 441.144 137.844 445.402 133.289 445.487L133.151 445.488H95.3629C95.1177 445.488 94.9189 445.289 94.9189 445.044C94.9189 444.813 95.095 444.623 95.3201 444.602L95.3629 444.6H133.151C137.169 444.6 140.184 440.896 139.437 436.916L139.413 436.796L138.472 432.244C138.423 432.004 138.577 431.769 138.817 431.719Z" fill="#21211D"/>
<path d="M122.392 416.063C122.624 415.982 122.877 416.104 122.958 416.336C123.034 416.553 122.931 416.789 122.727 416.884L122.685 416.902L115.391 419.447C115.159 419.527 114.906 419.405 114.825 419.174C114.749 418.957 114.852 418.72 115.056 418.625L115.098 418.608L122.392 416.063Z" fill="#21211D"/>
<path d="M125.872 421.11C126.102 421.025 126.357 421.143 126.442 421.373C126.522 421.589 126.423 421.827 126.221 421.925L126.179 421.943L117.932 424.982C117.702 425.067 117.446 424.949 117.362 424.719C117.282 424.503 117.381 424.265 117.583 424.166L117.625 424.148L125.872 421.11Z" fill="#21211D"/>
<path d="M130.453 426.091C130.68 425.999 130.939 426.109 131.031 426.336C131.117 426.549 131.026 426.79 130.827 426.895L130.785 426.914L122.572 430.23C122.344 430.321 122.086 430.211 121.994 429.984C121.908 429.771 121.999 429.53 122.198 429.425L122.239 429.406L130.453 426.091Z" fill="#21211D"/>
<path d="M228.528 411.255C228.759 411.174 229.013 411.296 229.093 411.528C229.169 411.745 229.066 411.981 228.863 412.076L228.82 412.094L221.526 414.639C221.294 414.719 221.041 414.597 220.96 414.366C220.885 414.149 220.987 413.912 221.191 413.817L221.233 413.8L228.528 411.255Z" fill="#21211D"/>
<path d="M232.274 416.436C232.504 416.352 232.759 416.469 232.844 416.7C232.924 416.915 232.825 417.153 232.623 417.252L232.581 417.27L224.334 420.308C224.104 420.393 223.848 420.275 223.763 420.045C223.684 419.829 223.783 419.592 223.985 419.493L224.027 419.475L232.274 416.436Z" fill="#21211D"/>
<path d="M236.588 421.417C236.816 421.325 237.075 421.435 237.166 421.663C237.252 421.876 237.161 422.117 236.962 422.222L236.921 422.241L228.707 425.556C228.48 425.648 228.221 425.538 228.129 425.311C228.043 425.098 228.134 424.857 228.334 424.752L228.375 424.733L236.588 421.417Z" fill="#21211D"/>
<path d="M258.04 399.025C255.217 399.33 251.52 400.496 247.148 402.353C245.382 403.103 243.535 403.954 241.631 404.887C239.211 406.073 236.81 407.336 234.517 408.606L233.895 408.952C233.106 409.393 232.383 409.805 231.737 410.18L230.68 410.802C230.297 411.032 230.455 411.618 230.901 411.626L231.219 411.63L231.754 411.634C233.227 411.64 235.069 411.616 237.155 411.543C240.664 411.421 244.127 411.182 247.368 410.798L247.964 410.726C252.604 410.146 256.439 409.298 259.218 408.134C262.774 406.644 264.554 404.642 264.098 402.076C263.657 399.591 261.496 398.651 258.04 399.025ZM263.224 402.231C263.915 406.125 257.853 408.663 247.263 409.916C244.049 410.296 240.61 410.534 237.124 410.655L236.258 410.683C235.156 410.716 234.134 410.734 233.212 410.742L232.532 410.746L233.419 410.239C233.711 410.073 234.015 409.903 234.328 409.727C236.794 408.349 239.398 406.97 242.022 405.684C243.913 404.758 245.745 403.913 247.495 403.17C251.793 401.345 255.418 400.202 258.135 399.908C261.138 399.583 262.831 400.294 263.207 402.142L263.224 402.231Z" fill="#21211D"/>
<path d="M231.66 410.726L230.981 410.766C230.544 410.793 230.137 410.821 229.764 410.848L229.067 410.904C228.647 410.942 228.511 411.487 228.863 411.718L229.311 412.005C229.377 412.048 229.448 412.092 229.522 412.139L230.075 412.485C230.459 412.723 230.875 412.977 231.318 413.244C233.218 414.386 235.242 415.528 237.304 416.595C239.172 417.56 240.983 418.416 242.706 419.135L243.176 419.329C246.448 420.658 249.259 421.421 251.492 421.492C254.334 421.584 256.221 420.539 256.857 418.217C257.557 415.664 256.158 413.766 253.111 412.52C250.656 411.517 247.157 410.93 242.873 410.683C239.246 410.474 235.372 410.521 231.66 410.726ZM242.821 411.57C247.016 411.812 250.431 412.385 252.775 413.343C255.452 414.437 256.561 415.94 256.001 417.982C255.032 421.515 250.357 421.365 243.048 418.315C241.349 417.607 239.56 416.761 237.712 415.806C235.668 414.749 233.66 413.616 231.776 412.483L231.137 412.096C230.932 411.97 230.734 411.848 230.543 411.73L230.476 411.688L231.036 411.652C231.253 411.639 231.477 411.626 231.709 411.613C235.39 411.409 239.233 411.362 242.821 411.57Z" fill="#21211D"/>
<path d="M151.561 403.343C148.758 403.695 145.101 404.921 140.784 406.848C139.047 407.623 137.232 408.5 135.36 409.46C132.94 410.701 130.536 412.023 128.24 413.352L127.616 413.715C126.984 414.084 126.394 414.434 125.852 414.76L125.143 415.19L124.395 415.651C124.017 415.888 124.185 416.471 124.631 416.471L125.002 416.468C125.26 416.465 125.552 416.461 125.878 416.454L126.043 416.451C127.163 416.428 128.41 416.387 129.753 416.324C133.592 416.144 137.431 415.826 141.017 415.333C145.928 414.66 149.969 413.712 152.854 412.443C156.398 410.883 158.148 408.844 157.643 406.281C157.157 403.813 154.99 402.912 151.561 403.343ZM156.772 406.453C157.538 410.341 151.498 412.999 140.896 414.454C137.34 414.942 133.526 415.258 129.712 415.437L129.38 415.452C128.403 415.495 127.48 415.527 126.623 415.549L126.248 415.558L126.936 415.146C127.295 414.933 127.672 414.711 128.064 414.481C130.534 413.039 133.141 411.596 135.766 410.25C137.624 409.297 139.425 408.427 141.146 407.659C145.39 405.764 148.975 404.563 151.672 404.224C154.696 403.844 156.397 404.552 156.772 406.453Z" fill="#21211D"/>
<path d="M125.993 415.242L125.241 415.297C124.835 415.327 124.448 415.359 124.083 415.391L123.421 415.451L122.784 415.514C122.365 415.56 122.239 416.108 122.596 416.332L123.042 416.606L123.253 416.734C123.779 417.053 124.38 417.407 125.042 417.789C126.936 418.88 128.954 419.97 131.013 420.988C132.905 421.924 134.739 422.752 136.484 423.444C140.003 424.841 143.012 425.629 145.367 425.667C148.231 425.714 150.112 424.634 150.707 422.29C151.358 419.73 149.931 417.861 146.875 416.675C144.412 415.718 140.916 415.197 136.641 415.029C133.222 414.895 129.564 414.995 125.993 415.242ZM136.606 415.917C140.791 416.081 144.202 416.59 146.553 417.503C149.237 418.545 150.367 420.024 149.847 422.071C148.941 425.638 144.227 425.561 136.811 422.619C135.091 421.936 133.278 421.118 131.407 420.192C129.366 419.183 127.364 418.101 125.486 417.019L125.269 416.894C124.983 416.729 124.71 416.569 124.45 416.415L124.208 416.271L124.38 416.257C124.899 416.213 125.459 416.169 126.055 416.128C129.596 415.883 133.224 415.784 136.606 415.917Z" fill="#21211D"/>
<path fill-rule="evenodd" clip-rule="evenodd" d="M223.517 74.4991H238.204V63.24H223.517V74.4991Z" fill="#F0B5AA"/>
<path fill-rule="evenodd" clip-rule="evenodd" d="M227.41 64.7023C227.41 64.7023 254.604 48.6708 256.748 53.1668C258.662 57.1793 235.864 70.0867 235.864 70.0867L227.41 64.7023Z" fill="#F0B5AA"/>
<path fill-rule="evenodd" clip-rule="evenodd" d="M226.517 71.2607C226.517 71.2607 234.297 76.6854 235.872 87.4048L214.644 82.7833C214.644 82.7833 216.21 72.8866 218.169 63.8748C218.681 61.5212 220.28 59.5505 222.469 58.5471L231.743 54.2975C232.971 53.7344 234.45 54.3933 234.773 55.7051C235.311 57.8895 234.601 61.3786 227.397 64.8795L226.517 71.2607Z" fill="#F0B5AA"/>
<path fill-rule="evenodd" clip-rule="evenodd" d="M68.3786 171.831L69.8517 100.35C71.4938 86.7909 83.2446 76.7472 96.8938 77.2364L142.98 78.5591C154.723 78.9799 164.76 87.1419 167.568 98.5519L181.817 171.831H68.3786Z" fill="#24B9CD"/>
<path fill-rule="evenodd" clip-rule="evenodd" d="M114.24 109.973C106.079 108.261 97.949 106.421 89.8213 104.561L77.6424 101.707L77.2619 101.618L77.0714 101.573L77.0238 101.562L77.4442 101.641C77.7339 101.691 78.0259 101.732 78.3188 101.763C78.6118 101.795 78.905 101.817 79.198 101.83C79.4176 101.842 79.5682 101.848 79.7572 101.851C79.9372 101.854 80.1172 101.852 80.2972 101.847L80.8028 101.825C81.0858 101.81 81.3686 101.785 81.65 101.749L82.0225 101.699L82.3488 101.648C82.8257 101.559 83.1088 101.498 83.4437 101.407L83.839 101.295L84.1858 101.183C84.3622 101.126 84.5755 101.039 84.6878 100.997L85.0306 100.849C85.2262 100.757 85.3183 100.707 85.3913 100.663C85.4273 100.641 85.4375 100.636 85.46 100.619C85.4682 100.614 85.4742 100.608 85.4752 100.604C85.4646 100.603 85.3583 100.662 85.2176 100.753C85.0765 100.844 84.8949 100.972 84.7142 101.107L84.4599 101.301L84.3807 101.362L84.3919 101.35C84.3714 101.368 84.4728 101.278 84.3519 101.385L84.0058 101.682L83.6296 101.988L81.2569 103.893C74.8585 109.07 68.4935 114.398 62.2916 119.789C56.0967 125.182 50.0137 130.674 44.3637 136.224C41.5531 138.992 38.8395 141.793 36.4675 144.48C35.2904 145.815 34.2015 147.136 33.3573 148.273C32.9369 148.836 32.5851 149.352 32.3586 149.708L32.1426 150.055C32.1145 150.093 32.1366 150.049 32.2258 149.786C32.3087 149.515 32.4834 149.037 32.6281 147.985L32.6796 147.539L32.7143 147.041C32.7252 146.85 32.7301 146.657 32.7291 146.466L32.7239 146.041C32.7113 145.772 32.6938 145.522 32.6694 145.282C32.638 145.03 32.6112 144.812 32.5709 144.59C32.4144 143.715 32.1835 143.061 31.9887 142.604C31.7908 142.146 31.626 141.873 31.5207 141.711C31.3083 141.396 31.3109 141.482 31.4985 141.694C31.6733 141.906 32.0138 142.255 32.4408 142.639C33.2999 143.417 34.5116 144.349 35.8549 145.269C37.203 146.196 38.6962 147.132 40.2647 148.052C43.4072 149.895 46.8335 151.671 50.3532 153.389C53.8795 155.104 57.5208 156.751 61.2182 158.338C64.917 159.925 68.6755 161.454 72.4631 162.926C74.3565 163.662 76.2582 164.384 78.1603 165.089L81.0096 166.13L83.7607 167.105L84.0979 167.224C92.0741 170.051 96.2487 178.809 93.4219 186.785C90.6506 194.604 82.1546 198.762 74.3076 196.259L71.0475 195.215L67.9066 194.174C65.8216 193.473 63.7475 192.756 61.677 192.023C57.5367 190.555 53.4122 189.022 49.2887 187.399C45.1649 185.774 41.0438 184.062 36.9074 182.203C32.7668 180.343 28.6245 178.334 24.4089 176.01C22.2998 174.844 20.1711 173.595 17.9956 172.186C15.8181 170.768 13.5987 169.213 11.2524 167.234C10.0786 166.238 8.87347 165.139 7.6138 163.799C6.36306 162.463 5.03932 160.89 3.71525 158.776C3.05635 157.714 2.39647 156.504 1.79504 155.068C1.19691 153.634 0.655593 151.964 0.323999 150.045C0.242091 149.562 0.169761 149.084 0.119559 148.568C0.0657245 148.066 0.0284035 147.552 0.013211 147.019L0.00264219 146.624L0 146.198C0.00363301 145.874 0.013211 145.55 0.0290641 145.226C0.0439264 144.886 0.0690272 144.629 0.0961097 144.334C0.123192 144.055 0.155559 143.745 0.191559 143.493C0.487154 141.395 0.951519 139.895 1.39343 138.631C1.84293 137.374 2.29639 136.363 2.73797 135.455C3.17955 134.552 3.61551 133.747 4.03892 133.018C4.88805 131.555 5.70878 130.309 6.51531 129.152C8.12804 126.847 9.69486 124.873 11.2594 122.991C14.3801 119.249 17.4959 115.915 20.6362 112.678C26.911 106.236 33.2639 100.255 39.6926 94.3979C46.1267 88.5501 52.6077 82.8756 59.233 77.2659L61.7592 75.1443L61.8428 75.0749L61.6908 75.2004L61.4207 75.4339C61.3242 75.5191 61.4507 75.4065 61.455 75.4025L61.6149 75.2605L62.138 74.8054C62.4683 74.5227 62.7864 74.2588 63.11 73.9959C63.7564 73.4724 64.4176 72.9625 65.1396 72.4423C65.8612 71.9228 66.6354 71.396 67.5294 70.8474C68.4284 70.3005 69.4437 69.7215 70.7727 69.1178L71.2797 68.8928L71.8454 68.6603C72.2008 68.5137 72.6662 68.3459 73.0909 68.1993C73.2944 68.1273 73.5754 68.0414 73.8155 67.9677C74.0758 67.8905 74.2924 67.8234 74.5913 67.7461C75.1839 67.5949 75.7222 67.4637 76.461 67.3382L76.9825 67.2534L77.2441 67.2147L77.5516 67.1771C77.9644 67.1295 78.3786 67.0922 78.7931 67.0654C78.9823 67.0512 79.2598 67.0426 79.4969 67.0374C79.743 67.0321 79.989 67.0308 80.2351 67.0334C80.49 67.0367 80.7064 67.041 80.9924 67.0545C81.3507 67.0747 81.7101 67.1037 82.0687 67.1421C82.4271 67.1807 82.7848 67.2283 83.1405 67.2847L83.659 67.3742L83.7082 67.3848L83.9044 67.4277L84.2971 67.5136L96.8584 70.2602C105.224 72.1341 113.587 74.0276 121.92 76.0492C131.255 78.3139 136.987 87.7175 134.722 97.0526C132.503 106.202 123.426 111.89 114.277 109.981L114.24 109.973Z" fill="#F0B5AA"/>
<path fill-rule="evenodd" clip-rule="evenodd" d="M120.802 77.8273C124.789 76.3754 128.783 74.9407 132.787 73.5354L138.789 71.4187L144.802 69.3353C148.813 67.9538 152.816 66.5462 156.838 65.195L157.591 64.9397L157.779 64.8756L158.148 64.7564C158.621 64.6084 159.099 64.4707 159.579 64.3439C160.534 64.0843 161.534 63.9178 162.52 63.7699C163.518 63.6602 164.522 63.5631 165.527 63.5714C167.541 63.5479 169.544 63.8062 171.492 64.2686C173.429 64.7584 175.318 65.4493 177.079 66.3923C180.619 68.2352 183.703 71.0121 185.964 74.3519C186.524 75.1845 187.035 76.0571 187.492 76.9442C187.713 77.3897 187.924 77.8412 188.126 78.2966L188.378 78.8819L188.452 79.0609L189.042 80.4933C192.187 88.1434 195.41 95.785 198.789 103.266C202.116 110.757 205.578 118.164 209.231 125.058C210.149 126.774 211.052 128.462 211.972 130.076C212.889 131.689 213.815 133.241 214.715 134.627C215.164 135.328 215.605 135.975 216.021 136.559C216.438 137.15 216.827 137.653 217.131 138.023C217.422 138.388 217.665 138.628 217.52 138.516C217.498 138.499 217.474 138.483 217.449 138.469C217.424 138.453 217.35 138.388 217.299 138.354L217.109 138.228C217.009 138.155 216.905 138.087 216.798 138.024L216.636 137.932L216.385 137.781C216.214 137.684 216.04 137.596 215.86 137.514C215.605 137.383 215.342 137.264 215.074 137.159L214.633 136.995C214.446 136.924 214.256 136.859 214.065 136.799C213.662 136.675 213.353 136.605 212.78 136.472C212.521 136.416 212.26 136.37 211.997 136.333L211.603 136.284L211.236 136.246C210.799 136.197 210.355 136.176 209.913 136.183C209.471 136.196 209.034 136.225 208.592 136.26C208.151 136.302 207.712 136.373 207.282 136.471C206.855 136.568 206.487 136.643 206.094 136.768C205.902 136.827 205.711 136.892 205.523 136.963L205.001 137.166C204.689 137.286 204.383 137.424 204.086 137.578C203.938 137.655 203.791 137.736 203.648 137.821C203.535 137.88 203.422 137.942 203.311 138.007C203.089 138.137 202.873 138.279 202.666 138.431L202.171 138.794C202.026 138.907 201.886 139.027 201.753 139.153L201.46 139.419C201.373 139.503 201.289 139.591 201.21 139.682C201.166 139.737 201.144 139.757 201.12 139.781L201.049 139.857C201.003 139.91 200.959 139.964 200.919 140.021C200.665 140.349 200.783 140.273 200.943 140.027C200.989 139.948 201.038 139.87 201.089 139.793C201.139 139.715 201.2 139.586 201.258 139.486C201.374 139.297 201.505 138.997 201.637 138.749C202.168 137.62 202.758 136.151 203.315 134.568C203.873 132.978 204.401 131.252 204.921 129.472C205.943 125.899 206.878 122.096 207.749 118.223C208.629 114.347 209.433 110.385 210.235 106.392C211.034 102.397 211.764 98.3585 212.522 94.311L214.723 82.248L214.781 81.931C216.165 74.3502 223.432 69.3264 231.012 70.7103C237.662 71.9237 242.341 77.6704 242.458 84.1785L242.49 85.9088L242.506 87.5737C242.519 88.6795 242.51 89.7796 242.498 90.8784C242.477 93.0767 242.439 95.2711 242.352 97.4641C242.216 101.854 241.941 106.241 241.598 110.654C241.256 115.068 240.781 119.496 240.181 123.975C239.568 128.455 238.829 132.975 237.811 137.638C237.307 139.975 236.717 142.344 236.007 144.802C235.292 147.266 234.47 149.804 233.315 152.568C233.002 153.284 232.722 153.962 232.355 154.717C232.174 155.091 232.013 155.444 231.812 155.833L231.2 156.998C230.312 158.595 229.284 160.312 227.681 162.279L227.028 163.041L226.695 163.417C226.584 163.541 226.477 163.663 226.334 163.807C226.065 164.083 225.791 164.356 225.514 164.624L225.096 165.025C224.954 165.157 224.824 165.283 224.642 165.435C224.302 165.727 223.955 166.013 223.603 166.292L223.072 166.705L222.796 166.911L222.474 167.133C222.043 167.427 221.603 167.711 221.157 167.983L220.484 168.382C220.221 168.523 219.954 168.66 219.686 168.794C219.149 169.06 218.602 169.311 218.051 169.542C217.788 169.657 217.473 169.773 217.155 169.882C216.84 169.991 216.523 170.094 216.203 170.192C215.555 170.384 214.939 170.564 214.251 170.699C213.558 170.833 212.856 170.94 212.152 171.019C211.448 171.105 210.747 171.14 210.039 171.135C209.333 171.135 208.624 171.108 207.921 171.052C207.754 171.041 207.557 171.018 207.357 170.992L206.767 170.908C206.374 170.848 205.982 170.778 205.592 170.7C204.755 170.535 204.198 170.364 203.542 170.165C203.223 170.066 202.907 169.96 202.593 169.85L202.362 169.766L202.17 169.691L201.785 169.535C201.275 169.324 200.769 169.098 200.271 168.86C199.858 168.65 199.453 168.434 199.05 168.208L198.451 167.865L197.956 167.554C197.628 167.345 197.303 167.13 196.981 166.911C196.676 166.7 196.43 166.514 196.154 166.31C195.894 166.114 195.602 165.897 195.374 165.71L194.696 165.149C192.943 163.654 191.719 162.353 190.617 161.12C189.528 159.89 188.596 158.732 187.751 157.618C186.901 156.499 186.119 155.413 185.39 154.35C183.919 152.218 182.617 150.158 181.378 148.117C180.144 146.075 178.969 144.064 177.867 142.049C173.458 134.01 169.622 126.084 165.944 118.121C162.334 110.137 158.899 102.167 155.635 94.1045L155.029 92.5889L154.953 92.3993C154.951 92.3957 154.93 92.3409 154.944 92.3789L154.976 92.4601L155.041 92.6219C155.132 92.8366 155.232 93.0473 155.342 93.2524C155.551 93.6722 155.796 94.0831 156.064 94.4744C157.127 96.0693 158.612 97.3561 160.26 98.2313C161.919 99.0956 163.791 99.5626 165.699 99.5475C166.173 99.5293 166.65 99.525 167.119 99.4431C167.587 99.4015 168.053 99.2829 168.501 99.1799C168.726 99.1247 168.948 99.059 169.166 98.9827C169.35 98.918 169.205 98.9665 169.156 98.9827L168.966 99.0444L168.211 99.2925C164.183 100.626 160.137 101.903 156.1 103.206L150.04 105.15L143.969 107.06C139.923 108.34 135.868 109.59 131.807 110.822C122.613 113.613 112.897 108.422 110.106 99.2281C107.413 90.354 112.201 80.9778 120.802 77.8273Z" fill="#F0B5AA"/>
<path fill-rule="evenodd" clip-rule="evenodd" d="M31.5192 141.709C31.5235 141.717 31.5325 141.731 31.5371 141.74C31.5282 141.726 31.5103 141.709 31.4971 141.695C31.3105 141.482 31.3062 141.393 31.5192 141.709ZM121.919 76.0478C116.458 74.7247 110.988 73.4548 105.514 72.2117C102.628 71.5548 99.7462 70.9065 96.8603 70.2581L84.2957 67.5145L83.905 67.4257L83.7094 67.3857L83.6606 67.3722L83.1414 67.2833C82.786 67.2302 82.4263 67.1813 82.067 67.1413C81.7116 67.106 81.3519 67.0749 80.9923 67.0525C80.7082 67.0393 80.4906 67.035 80.2333 67.035C79.9889 67.0304 79.7448 67.0304 79.4961 67.0393C79.261 67.0439 78.9812 67.0525 78.7946 67.066C78.3772 67.0925 77.9643 67.1281 77.5515 67.177L77.245 67.217L76.9831 67.2523L76.4593 67.3369C75.7224 67.4657 75.1851 67.5941 74.5902 67.7454C74.2927 67.8253 74.075 67.8917 73.8174 67.9673C73.5733 68.0426 73.2936 68.1272 73.0895 68.1982C72.6677 68.3445 72.2014 68.5133 71.8463 68.6599L71.2779 68.8908L70.772 69.117C69.4443 69.7211 68.4277 70.2981 67.5306 70.8487C66.6339 71.3949 65.8614 71.923 65.1378 72.4426C64.4185 72.9621 63.7569 73.4727 63.1086 73.9965C62.7846 74.2584 62.4692 74.5249 62.1363 74.8047L61.6346 75.2486L61.6168 75.2618L61.5104 75.3552L59.2328 77.2642C52.6085 82.8762 46.1263 88.5503 39.6929 94.3975C33.2641 100.254 26.9106 106.234 20.637 112.677C17.4981 115.913 14.3813 119.247 11.2602 122.99C9.69277 124.873 8.13024 126.849 6.51388 129.153C5.71032 130.307 4.88893 131.555 4.0365 133.02C3.61474 133.748 3.17976 134.552 2.74017 135.453C2.29595 136.363 1.84315 137.375 1.39464 138.632C0.950747 139.897 0.489024 141.393 0.191778 143.493C0.156108 143.747 0.125063 144.057 0.0940168 144.333C0.0672646 144.63 0.0451363 144.887 0.0273015 145.225C0.0140905 145.549 0.00517315 145.873 0.000549316 146.197V146.624L0.0140905 147.019C0.0273015 147.551 0.0672646 148.067 0.120769 148.568C0.169319 149.083 0.240328 149.563 0.324878 150.047C0.657794 151.965 1.19515 153.634 1.79427 155.068C2.39834 156.502 3.05525 157.714 3.71679 158.775C5.03987 160.889 6.36294 162.465 7.61501 163.797C8.87137 165.138 10.0792 166.239 11.2513 167.233C13.5999 169.213 15.82 170.767 17.9955 172.184C20.171 173.596 22.2977 174.843 24.4111 176.011C28.3404 178.177 32.2072 180.069 36.0655 181.823C39.8705 174.057 45.6645 162.918 51.6494 154.007C51.2145 153.803 50.7792 153.598 50.3531 153.39C46.8321 151.672 43.4091 149.896 40.2656 148.053C38.6984 147.134 37.2023 146.197 35.8567 145.269C35.8392 145.261 35.8257 145.247 35.8082 145.238C36.0255 144.985 36.2431 144.732 36.4697 144.479C38.8404 141.793 41.5533 138.991 44.3636 136.225C50.0156 130.676 56.0982 125.184 62.2918 119.789C68.4944 114.399 74.8564 109.071 81.2588 103.895C104.004 111.788 115.637 115.753 116.158 115.792C124.465 116.369 132.694 105.417 134.724 97.0526C135.079 95.5875 135.238 94.1224 135.212 92.684C135.11 85.638 130.701 79.2178 123.97 76.6826C123.309 76.4296 122.625 76.2209 121.919 76.0478Z" fill="#24B9CD"/>
<path fill-rule="evenodd" clip-rule="evenodd" d="M69.8107 191.086C69.8107 191.086 59.2403 217.101 54.011 214.553C49.5514 212.379 63.8942 184.96 63.8942 184.96L69.8107 191.086Z" fill="#F0B5AA"/>
<path fill-rule="evenodd" clip-rule="evenodd" d="M75.3937 194.23C75.3937 194.23 64.7265 223.508 60.181 221.383C55.4567 219.175 67.4929 188.674 67.4929 188.674L75.3937 194.23Z" fill="#F0B5AA"/>
<path fill-rule="evenodd" clip-rule="evenodd" d="M84.5592 192.56C84.5592 192.56 73.3645 227.498 68.4187 225.695C62.9886 223.714 74.6982 191.169 74.6982 191.169L84.5592 192.56Z" fill="#F0B5AA"/>
<mask id="mask5" mask-type="alpha" maskUnits="userSpaceOnUse" x="76" y="193" width="14" height="33">
<path fill-rule="evenodd" clip-rule="evenodd" d="M76.4172 193.611H89.2442V225.883H76.4172V193.611Z" fill="white"/>
</mask>
<g mask="url(#mask5)">
<path fill-rule="evenodd" clip-rule="evenodd" d="M89.2442 193.611C89.2442 193.611 84.3482 226.823 78.3904 225.862C73.0409 224.999 80.2634 193.611 80.2634 193.611H89.2442Z" fill="#F0B5AA"/>
</g>
<path fill-rule="evenodd" clip-rule="evenodd" d="M94.2904 180.897C94.2904 180.897 98.0578 210.408 91.8282 211.288C85.5573 212.173 84.5592 183.832 84.5592 183.832L94.2904 180.897Z" fill="#F0B5AA"/>
<path fill-rule="evenodd" clip-rule="evenodd" d="M59.9259 211.49C59.8754 211.49 59.8239 211.481 59.774 211.463C59.5435 211.379 59.4249 211.124 59.5088 210.894L63.5203 199.893C63.6042 199.662 63.8595 199.544 64.0893 199.628C64.3199 199.712 64.4384 199.966 64.3546 200.197L60.3431 211.198C60.2773 211.378 60.1072 211.49 59.9259 211.49Z" fill="#21211D"/>
<path fill-rule="evenodd" clip-rule="evenodd" d="M67.4931 214.472C67.4508 214.472 67.4076 214.466 67.365 214.453C67.1301 214.382 66.997 214.135 67.0677 213.9L70.2899 203.196C70.3606 202.961 70.6086 202.829 70.8428 202.899C71.0776 202.97 71.2107 203.217 71.14 203.452L67.9182 214.156C67.8604 214.348 67.684 214.472 67.4931 214.472Z" fill="#21211D"/>
<path fill-rule="evenodd" clip-rule="evenodd" d="M76.235 216.053C76.202 216.053 76.1687 216.049 76.135 216.041C75.8962 215.986 75.7469 215.748 75.802 215.509L78.4224 204.119C78.4776 203.88 78.7154 203.731 78.9548 203.786C79.1936 203.841 79.3429 204.079 79.2878 204.318L76.6674 215.708C76.6201 215.914 76.4372 216.053 76.235 216.053Z" fill="#21211D"/>
<path fill-rule="evenodd" clip-rule="evenodd" d="M85.8373 210.75C85.8122 210.75 85.7867 210.748 85.761 210.744C85.5192 210.702 85.3574 210.472 85.3993 210.231L87.2898 199.308C87.3317 199.067 87.561 198.905 87.8031 198.946C88.0448 198.988 88.2066 199.218 88.165 199.46L86.2742 210.382C86.2369 210.598 86.0493 210.75 85.8373 210.75Z" fill="#21211D"/>
<path fill-rule="evenodd" clip-rule="evenodd" d="M200.944 140.026C200.784 140.275 200.664 140.35 200.917 140.022C200.957 139.964 201.002 139.911 201.046 139.857C201.01 139.915 200.975 139.968 200.944 140.026ZM169.168 98.9841C169.132 98.9973 169.092 99.0016 169.057 99.0152L169.155 98.9841C169.177 98.9795 169.217 98.962 169.239 98.9574C169.221 98.9663 169.203 98.9752 169.168 98.9841ZM210.29 106.119C210.267 106.208 210.254 106.301 210.236 106.39C209.433 110.386 208.629 114.346 207.75 118.222C207.541 119.141 207.333 120.056 207.12 120.966C204.234 115.265 201.468 109.298 198.79 103.264C195.412 95.7874 192.188 88.1419 189.04 80.4921L188.45 79.0623L188.379 78.8804L188.126 78.2988C187.926 77.8417 187.713 77.3885 187.491 76.9446C187.034 76.0565 186.523 75.1866 185.964 74.3517C183.704 71.0129 180.618 68.2337 177.079 66.3911C175.317 65.4498 173.43 64.7572 171.49 64.2687C169.545 63.807 167.543 63.5497 165.527 63.5718C164.524 63.5629 163.516 63.6607 162.521 63.7717C161.535 63.9183 160.532 64.0824 159.578 64.3444C159.098 64.4685 158.623 64.6063 158.148 64.7572L157.78 64.8771L157.593 64.9392L156.838 65.1968C152.816 66.5466 148.815 67.9539 144.802 69.3348L140.273 70.9019L138.79 71.4168L132.788 73.5349C129.844 74.5693 126.905 75.6173 123.97 76.6827C122.913 77.0602 121.857 77.442 120.8 77.8281C114.709 80.0571 110.531 85.4115 109.567 91.4985C109.172 94.0069 109.319 96.6398 110.105 99.2282C111.214 102.878 113.59 106.932 116.626 110.31C121.244 115.443 127.384 119.034 132.93 117.352C136.992 116.122 139.239 122.586 143.284 121.308L151.053 113.6H157.438L158.41 113.289C160.643 118.586 162.055 118.866 164.439 124.14C168.12 132.105 173.457 134.01 177.866 142.051C178.971 144.066 180.143 146.078 181.377 148.115C182.616 150.158 183.921 152.218 185.391 154.349C186.119 155.414 186.901 156.498 187.753 157.617C188.596 158.731 189.529 159.89 190.617 161.12C191.718 162.354 192.943 163.655 194.697 165.147L195.376 165.71C195.603 165.897 195.896 166.115 196.153 166.31C196.429 166.514 196.677 166.701 196.983 166.914C197.303 167.131 197.627 167.344 197.956 167.553L198.453 167.864L199.052 168.21C199.452 168.432 199.86 168.65 200.269 168.858C200.771 169.098 201.277 169.325 201.787 169.533L202.169 169.688L202.36 169.768L202.595 169.848C202.906 169.959 203.221 170.066 203.541 170.164C204.198 170.364 204.753 170.537 205.592 170.701C205.983 170.776 206.374 170.847 206.769 170.91L207.359 170.994C207.555 171.016 207.754 171.043 207.923 171.052C208.625 171.109 209.331 171.136 210.041 171.136C210.747 171.14 211.448 171.105 212.154 171.02C212.856 170.941 213.557 170.834 214.25 170.701C214.938 170.563 215.555 170.386 216.203 170.19C216.523 170.093 216.838 169.99 217.154 169.879C217.473 169.773 217.788 169.657 218.05 169.542C218.601 169.311 219.147 169.058 219.684 168.792C219.955 168.658 220.221 168.521 220.483 168.383L221.158 167.984C221.602 167.713 222.042 167.429 222.473 167.136L222.797 166.909L223.072 166.705L223.605 166.292C223.956 166.013 224.302 165.728 224.644 165.435C224.826 165.284 224.954 165.155 225.096 165.022L225.514 164.623C225.794 164.356 226.064 164.081 226.335 163.806C226.477 163.664 226.584 163.539 226.695 163.415L227.028 163.042L227.68 162.278C229.283 160.312 230.313 158.593 231.201 156.999L231.814 155.832C232.014 155.445 232.173 155.09 232.356 154.718C232.724 153.963 233.004 153.283 233.315 152.568C234.469 149.802 235.29 147.267 236.005 144.803C236.716 142.343 237.306 139.977 237.812 137.637C238.829 132.976 239.566 128.456 240.179 123.976C240.729 119.869 241.169 115.811 241.502 111.762C225.487 111.003 215.644 108.241 210.29 106.119Z" fill="#24B9CD"/>
<path fill-rule="evenodd" clip-rule="evenodd" d="M141.432 78.7072C141.361 84.0349 139.154 89.1541 135.212 92.6838C134.821 93.0345 134.413 93.3674 133.986 93.6871C132.446 94.8372 130.723 95.7474 128.872 96.3733C127.025 96.9995 125.044 97.3367 122.989 97.3367C119.131 97.3367 115.552 96.147 112.577 94.1046C111.468 93.341 110.46 92.4665 109.567 91.4984C106.384 88.053 104.617 83.4447 104.572 78.6762C104.555 77.2065 104.746 75.746 105.056 74.312L105.514 72.2118C110.988 73.4549 116.458 74.7248 121.919 76.0479C122.625 76.2209 123.309 76.4297 123.97 76.6827C126.905 75.6172 129.844 74.5692 132.788 73.5348L138.79 71.4171L140.273 70.9019L141.006 74.5382C141.281 75.9102 141.45 77.3089 141.432 78.7072Z" fill="#F0B5AA"/>
<path fill-rule="evenodd" clip-rule="evenodd" d="M175.429 139.43C175.215 139.43 175.027 139.275 174.992 139.056L169.353 103.695C169.314 103.453 169.479 103.225 169.721 103.186C169.964 103.148 170.191 103.313 170.23 103.555L175.868 138.916C175.907 139.159 175.742 139.386 175.5 139.425C175.476 139.429 175.453 139.43 175.429 139.43Z" fill="#21211D"/>
<path fill-rule="evenodd" clip-rule="evenodd" d="M207.105 121.074L202.215 140.675C202.138 140.982 201.683 140.913 201.704 140.598C202.138 134.276 203.12 121.402 202.123 110.623L207.105 121.074Z" fill="#21211D"/>
<path fill-rule="evenodd" clip-rule="evenodd" d="M240.523 121.75C223.177 121.75 208.479 115.22 208.332 115.154C208.109 115.054 208.009 114.791 208.11 114.567C208.21 114.343 208.473 114.244 208.697 114.344C208.841 114.41 223.374 120.861 240.521 120.861C240.779 120.861 240.967 121.059 240.967 121.306C240.967 121.551 240.768 121.75 240.523 121.75Z" fill="#21211D"/>
<path fill-rule="evenodd" clip-rule="evenodd" d="M26.4787 177.374C26.4067 177.374 26.3337 177.356 26.266 177.319C26.051 177.201 25.972 176.932 26.0896 176.717C33.3272 163.491 42.0861 149.948 42.1739 149.813C42.307 149.607 42.5822 149.548 42.7879 149.681C42.9937 149.815 43.0525 150.09 42.919 150.296C42.8315 150.43 34.0898 163.947 26.8684 177.143C26.7878 177.29 26.6355 177.374 26.4787 177.374Z" fill="#21211D"/>
<path fill-rule="evenodd" clip-rule="evenodd" d="M69.579 114.045C69.4518 114.045 69.3256 113.991 69.2381 113.886C69.0809 113.698 69.106 113.418 69.2939 113.261L79.0634 105.101C79.2514 104.944 79.5314 104.969 79.6886 105.157C79.8459 105.346 79.8208 105.625 79.6325 105.783L69.8633 113.942C69.7804 114.011 69.6794 114.045 69.579 114.045Z" fill="#21211D"/>
<path fill-rule="evenodd" clip-rule="evenodd" d="M270.042 93.7608H265.929C260.213 93.7608 255.477 89.3249 255.103 83.6208L253.503 59.1812H282.468L280.868 83.6208C280.494 89.3249 275.759 93.7608 270.042 93.7608Z" fill="#B53D0B"/>
<path fill-rule="evenodd" clip-rule="evenodd" d="M251.619 65.275C246.982 65.275 243.21 69.047 243.21 73.6834C243.21 78.3201 246.982 82.0925 251.619 82.0925H256.843V65.275H251.619ZM258.397 85.2004H251.619C245.269 85.2004 240.103 80.0339 240.103 73.6838C240.103 67.3333 245.269 62.1671 251.619 62.1671H258.397C259.255 62.1671 259.951 62.8627 259.951 63.7211V83.6465C259.951 84.5045 259.255 85.2004 258.397 85.2004Z" fill="#B53D0B"/>
<path fill-rule="evenodd" clip-rule="evenodd" d="M252.9 67.3505C252.142 73.7169 234.975 70.5436 234.955 67.3304C234.931 63.5752 253.728 60.3956 252.9 67.3505Z" fill="#F0B5AA"/>
<path fill-rule="evenodd" clip-rule="evenodd" d="M245.466 71.4684C241.449 71.4684 236.74 70.2896 234.996 68.7251C234.5 68.2802 234.247 67.8119 234.244 67.3333C234.241 66.7894 234.515 66.2583 235.058 65.7546C237.086 63.8744 242.945 62.4925 247.349 62.8551C247.594 62.8753 247.775 63.0896 247.755 63.334C247.735 63.5784 247.521 63.7601 247.276 63.7399C243.151 63.4004 237.506 64.6961 235.662 66.4056C235.308 66.7329 235.13 67.0433 235.132 67.3277C235.134 67.5992 235.381 67.8783 235.589 68.0642C237.228 69.5356 242.756 70.9492 247.163 70.499C247.405 70.4742 247.625 70.6513 247.65 70.8953C247.675 71.1394 247.497 71.3574 247.253 71.3822C246.683 71.4406 246.083 71.4684 245.466 71.4684Z" fill="#21211D"/>
<path fill-rule="evenodd" clip-rule="evenodd" d="M252.529 73.6152C251.771 79.9816 234.549 76.0104 234.584 73.5951C234.638 69.8072 253.357 66.6603 252.529 73.6152Z" fill="#F0B5AA"/>
<path fill-rule="evenodd" clip-rule="evenodd" d="M245.585 77.4992C241.162 77.4992 235.985 76.0532 234.415 74.6152C234.051 74.2813 233.868 73.9362 233.873 73.5887C233.885 72.7974 234.464 72.0454 235.596 71.3544C239.096 69.2169 246.84 68.1425 250.553 69.9821C250.772 70.0911 250.862 70.3573 250.753 70.5773C250.645 70.7969 250.378 70.8864 250.158 70.7778C247.286 69.3549 239.933 69.7463 236.059 72.1124C235.229 72.619 234.768 73.1481 234.761 73.6016C234.761 73.6142 234.767 73.7331 235.015 73.9603C236.464 75.2873 242.656 77.0024 247.259 76.5305C247.501 76.5057 247.721 76.6831 247.746 76.9268C247.771 77.1709 247.594 77.3889 247.35 77.414C246.783 77.4721 246.191 77.4992 245.585 77.4992Z" fill="#21211D"/>
<path fill-rule="evenodd" clip-rule="evenodd" d="M252.113 79.8787C251.356 86.2451 234.2 83.1953 234.169 79.8586C234.137 76.5813 252.941 72.9238 252.113 79.8787Z" fill="#F0B5AA"/>
<path fill-rule="evenodd" clip-rule="evenodd" d="M242.337 83.9265C242.322 83.9265 242.308 83.9259 242.293 83.9242C238.025 83.5034 233.478 81.9366 233.458 79.8628C233.452 79.199 233.942 78.5526 234.914 77.9413C238.058 75.9656 246.34 74.4354 250.223 76.35C250.443 76.4584 250.533 76.7246 250.425 76.9445C250.316 77.1645 250.05 77.2547 249.83 77.1463C246.254 75.383 238.299 76.8633 235.387 78.6933C234.723 79.1108 234.343 79.5342 234.346 79.8542C234.357 80.9854 237.795 82.5883 242.38 83.0407C242.624 83.0648 242.802 83.2822 242.778 83.5262C242.756 83.7554 242.563 83.9265 242.337 83.9265Z" fill="#21211D"/>
<path fill-rule="evenodd" clip-rule="evenodd" d="M234.917 88.388C234.897 88.388 234.876 88.3867 234.856 88.3837C234.613 88.35 234.443 88.1257 234.477 87.883C235.725 78.8989 226.271 73.4008 226.175 73.3463C226.015 73.2552 225.928 73.0738 225.956 72.8915L226.595 68.8361C226.853 67.2016 227.649 65.6668 228.837 64.5151L231.388 62.0417C231.564 61.8713 231.845 61.8756 232.016 62.0516C232.187 62.2277 232.182 62.5087 232.006 62.6795L229.455 65.1526C228.404 66.1715 227.7 67.5285 227.472 68.9745L226.879 72.7366C228.466 73.737 236.564 79.3078 235.357 88.0049C235.325 88.2271 235.135 88.388 234.917 88.388Z" fill="#21211D"/>
<path fill-rule="evenodd" clip-rule="evenodd" d="M265.125 56.9616C264.88 56.9616 264.681 56.7628 264.681 56.5178C264.681 54.3882 265.151 53.3098 265.606 52.2668C266.043 51.2628 266.457 50.3149 266.457 48.3706C266.457 46.4259 266.043 45.4777 265.606 44.474C265.151 43.4307 264.681 42.352 264.681 40.2224C264.681 38.0928 265.151 37.0141 265.606 35.9708C266.043 34.9671 266.457 34.0185 266.457 32.0742C266.457 31.8288 266.656 31.6303 266.901 31.6303C267.146 31.6303 267.345 31.8288 267.345 32.0742C267.345 34.2038 266.875 35.2825 266.42 36.3258C265.982 37.3295 265.569 38.2777 265.569 40.2224C265.569 42.1667 265.982 43.1153 266.42 44.119C266.875 45.1623 267.345 46.241 267.345 48.3706C267.345 50.4998 266.875 51.5785 266.42 52.6215C265.982 53.6252 265.569 54.5734 265.569 56.5178C265.569 56.7628 265.37 56.9616 265.125 56.9616Z" fill="#21211D"/>
<path fill-rule="evenodd" clip-rule="evenodd" d="M270.577 56.9617C270.332 56.9617 270.133 56.7628 270.133 56.5178C270.133 54.7908 270.612 53.9198 271.076 53.0776C271.504 52.2998 271.909 51.565 271.909 50.0662C271.909 48.5674 271.504 47.8322 271.076 47.0544C270.612 46.2122 270.133 45.3413 270.133 43.6143C270.133 43.3692 270.332 43.1704 270.577 43.1704C270.822 43.1704 271.021 43.3692 271.021 43.6143C271.021 45.1131 271.425 45.8479 271.854 46.6261C272.317 47.4683 272.797 48.3389 272.797 50.0662C272.797 51.7932 272.317 52.6638 271.854 53.506C271.425 54.2841 271.021 55.019 271.021 56.5178C271.021 56.7628 270.822 56.9617 270.577 56.9617Z" fill="#21211D"/>
<path fill-rule="evenodd" clip-rule="evenodd" d="M110.281 73.302L109.962 78.7191C109.924 79.4533 109.941 80.2734 110.029 81.0281C110.878 88.2412 117.412 93.4011 124.626 92.553C131.839 91.7051 136.999 85.1703 136.151 77.9568L135.518 72.5721C135.518 72.5721 128.784 75.497 123.497 75.5795C118.211 75.6621 110.281 73.302 110.281 73.302Z" fill="#F0B5AA"/>
<path fill-rule="evenodd" clip-rule="evenodd" d="M36.009 145.392L29.6631 140.321C29.3011 140.032 29.5792 139.452 30.0317 139.553L39.1149 141.579L36.009 145.392Z" fill="#21211D"/>
<mask id="mask6" mask-type="alpha" maskUnits="userSpaceOnUse" x="253" y="59" width="30" height="35">
<path fill-rule="evenodd" clip-rule="evenodd" d="M253.503 59.181L255.103 83.6206C255.477 89.3251 260.213 93.761 265.929 93.761H270.042C275.759 93.761 280.494 89.3251 280.868 83.6206L282.468 59.181" fill="white"/>
</mask>
<g mask="url(#mask6)">
<path fill-rule="evenodd" clip-rule="evenodd" d="M254.07 91.6358C255.738 87.1464 259.95 84.308 263.703 81.6705C267.472 79.0223 271.497 75.9828 273.005 71.4293C273.658 69.4582 273.67 66.8587 271.902 65.4471C270.127 64.0289 267.41 64.4328 265.674 65.7086C263.989 66.9462 262.739 69.1805 263.537 71.2797C264.419 73.6022 267.016 74.5445 269.328 74.4441C270.758 74.382 272.166 74.0269 273.542 73.6524C274.829 73.3016 276.1 72.8951 277.352 72.4347C279.919 71.4908 282.408 70.3275 284.773 68.9536C285.35 68.6187 285.918 68.2706 286.481 67.9116C287.021 67.5668 286.52 66.7018 285.977 67.0489C281.718 69.7671 277.031 71.791 272.121 72.9879C269.881 73.5335 267.129 73.916 265.299 72.1619C263.747 70.6746 264.203 68.4839 265.606 67.0737C266.964 65.7086 269.444 64.9289 271.152 66.1261C272.879 67.3366 272.533 69.8846 271.892 71.5846C270.339 75.7087 266.515 78.4833 263.041 80.9184C259.531 83.3793 255.742 85.9901 253.741 89.9144C253.5 90.386 253.292 90.8739 253.107 91.3703C252.883 91.9737 253.848 92.2343 254.07 91.6358Z" fill="white"/>
</g>
<mask id="mask7" mask-type="alpha" maskUnits="userSpaceOnUse" x="253" y="59" width="30" height="35">
<path fill-rule="evenodd" clip-rule="evenodd" d="M253.503 59.181L255.103 83.6206C255.477 89.3251 260.213 93.761 265.929 93.761H270.042C275.759 93.761 280.494 89.3251 280.868 83.6206L282.468 59.181" fill="white"/>
</mask>
<g mask="url(#mask7)">
<path fill-rule="evenodd" clip-rule="evenodd" d="M284.223 77.1548C280.036 75.4588 275.095 77.3787 273.178 81.4731C272.178 83.6103 272.239 85.9358 272.475 88.2315C272.711 90.5348 273.055 92.8927 272.332 95.1461C271.637 97.3124 270.122 99.1725 268.153 100.305C267.596 100.626 268.098 101.489 268.657 101.168C270.377 100.178 271.794 98.6794 272.684 96.9038C273.677 94.9222 273.877 92.786 273.709 90.5996C273.531 88.2708 273.013 85.8657 273.52 83.5446C273.948 81.587 275.157 79.8244 276.841 78.7338C278.956 77.3645 281.637 77.1782 283.957 78.1182C284.553 78.3593 284.812 77.3936 284.223 77.1548Z" fill="white"/>
</g>
<mask id="mask8" mask-type="alpha" maskUnits="userSpaceOnUse" x="253" y="59" width="30" height="35">
<path fill-rule="evenodd" clip-rule="evenodd" d="M253.503 59.181L255.103 83.6206C255.477 89.3251 260.213 93.761 265.929 93.761H270.042C275.759 93.761 280.494 89.3251 280.868 83.6206L282.468 59.181" fill="white"/>
</mask>
<g mask="url(#mask8)">
<path fill-rule="evenodd" clip-rule="evenodd" d="M259.378 96.2668C258.98 93.6127 260.132 90.5392 262.416 89.0334C263.465 88.3418 265.026 87.8821 266.048 88.8742C267.041 89.8393 267.127 91.5432 267.193 92.8349C267.293 94.7719 267.075 96.7024 266.562 98.5721C266.392 99.193 267.356 99.4579 267.526 98.8376C268.053 96.9134 268.29 94.907 268.196 92.9128C268.122 91.3401 267.973 89.4585 266.835 88.25C265.701 87.0455 263.962 87.1387 262.57 87.7995C261.127 88.4852 259.984 89.8066 259.271 91.2146C258.436 92.8633 258.141 94.7072 258.414 96.5323C258.51 97.1661 259.472 96.8966 259.378 96.2668Z" fill="white"/>
</g>
<mask id="mask9" mask-type="alpha" maskUnits="userSpaceOnUse" x="253" y="59" width="30" height="35">
<path fill-rule="evenodd" clip-rule="evenodd" d="M253.503 59.181L255.103 83.6206C255.477 89.3251 260.213 93.761 265.929 93.761H270.042C275.759 93.761 280.494 89.3251 280.868 83.6206L282.468 59.181" fill="white"/>
</mask>
<g mask="url(#mask9)">
<path fill-rule="evenodd" clip-rule="evenodd" d="M249.882 65.6644C249.967 67.8327 250.574 69.9662 251.678 71.8376C252.156 72.6484 252.74 73.591 253.623 74.0068C254.541 74.4391 255.553 74.1429 256.249 73.4434C256.997 72.6923 257.268 71.6146 257.559 70.6301C257.905 69.456 258.236 68.2772 258.55 67.0942C259.173 64.7539 259.731 62.3964 260.225 60.0257C260.784 57.3422 261.259 54.6415 261.653 51.929C261.692 51.6598 261.587 51.3956 261.305 51.3144C261.07 51.2473 260.729 51.3969 260.69 51.6635C260.054 56.0353 259.207 60.3754 258.143 64.6634C257.62 66.7738 257.053 68.8763 256.419 70.9564C256.159 71.8078 255.798 72.9106 254.83 73.1781C253.962 73.4183 253.336 72.5569 252.918 71.9327C251.672 70.0756 250.968 67.8974 250.881 65.6644C250.855 65.0237 249.857 65.0204 249.882 65.6644Z" fill="white"/>
</g>
<mask id="mask10" mask-type="alpha" maskUnits="userSpaceOnUse" x="253" y="59" width="30" height="35">
<path fill-rule="evenodd" clip-rule="evenodd" d="M253.503 59.181L255.103 83.6206C255.477 89.3251 260.213 93.761 265.929 93.761H270.042C275.759 93.761 280.494 89.3251 280.868 83.6206L282.468 59.181" fill="white"/>
</mask>
<g mask="url(#mask10)">
<path fill-rule="evenodd" clip-rule="evenodd" d="M272.34 52.76C271.633 55.2622 272.143 58.0625 273.661 60.1723C275.221 62.3406 277.722 63.589 280.384 63.6547C281.893 63.6917 283.395 63.334 284.72 62.6104C285.285 62.3026 284.781 61.4396 284.216 61.7481C282.165 62.8674 279.608 62.9532 277.467 62.0225C275.305 61.0829 273.783 59.1283 273.235 56.8547C272.931 55.5918 272.95 54.2756 273.303 53.0255C273.478 52.4059 272.515 52.1414 272.34 52.76Z" fill="white"/>
</g>
<mask id="mask11" mask-type="alpha" maskUnits="userSpaceOnUse" x="253" y="59" width="30" height="35">
<path fill-rule="evenodd" clip-rule="evenodd" d="M253.503 59.181L255.103 83.6206C255.477 89.3251 260.213 93.761 265.929 93.761H270.042C275.759 93.761 280.494 89.3251 280.868 83.6206L282.468 59.181" fill="white"/>
</mask>
<g mask="url(#mask11)">
<path fill-rule="evenodd" clip-rule="evenodd" d="M262.319 55.4298C262.409 57.9848 262.76 61.0815 265.5 62.1502C268.244 63.22 270.077 60.3532 271.143 58.2969C271.898 56.8421 272.476 55.2987 272.868 53.7078C273.022 53.0836 272.059 52.8173 271.905 53.4422C271.34 55.734 270.397 58.1262 268.927 59.9985C268.289 60.8116 267.381 61.5448 266.282 61.3404C265.263 61.1505 264.444 60.3416 264.001 59.4374C263.397 58.2061 263.365 56.7724 263.318 55.4298C263.296 54.7888 262.297 54.7858 262.319 55.4298Z" fill="white"/>
</g>
<mask id="mask12" mask-type="alpha" maskUnits="userSpaceOnUse" x="101" y="19" width="47" height="46">
<path fill-rule="evenodd" clip-rule="evenodd" d="M101.721 19.3345H147.46V64.6971H101.721V19.3345Z" fill="white"/>
</mask>
<g mask="url(#mask12)">
<path fill-rule="evenodd" clip-rule="evenodd" d="M144.006 61.7535C141.203 64.6751 137.37 65.1563 133.321 64.3444C122.984 62.2726 111.18 51.7805 111.18 51.7805C108.839 49.9445 106.347 47.4288 104.775 44.6539L104.695 44.5075C104.28 43.7664 103.935 43.0018 103.676 42.2326C103.553 41.8644 103.449 41.4915 103.369 41.1186C103.359 41.081 103.355 41.0479 103.345 41.0149C102.854 38.8202 102.495 38.9474 101.896 35.1621C101.051 29.8289 103.279 25.1092 108.056 22.5321C114.489 19.0583 122.824 18.1662 129.696 21.0974C129.715 21.1067 129.733 21.1116 129.752 21.1209C130.554 21.4653 131.324 21.8712 132.055 22.3293C138.696 26.4353 142.425 34.6241 145.134 41.619C147.593 47.9672 149.245 56.2927 144.006 61.7535Z" fill="#F0B5AA"/>
</g>
<path fill-rule="evenodd" clip-rule="evenodd" d="M129.666 40.4912L133.96 77.0152C134.808 84.2284 129.648 90.7635 122.435 91.6113C115.222 92.4595 108.687 87.2996 107.839 80.0864C107.75 79.3317 107.733 78.5117 107.772 77.7775L109.934 41.0656C110.256 35.6025 114.945 31.4348 120.408 31.7568C125.279 32.0435 129.119 35.8069 129.666 40.4912Z" fill="#F0B5AA"/>
<path fill-rule="evenodd" clip-rule="evenodd" d="M132.44 64.0782C132.44 64.0782 129.379 63.5676 125.324 61.4836C124.828 61.229 124.339 61.832 124.696 62.2604L133.352 72.4097L132.44 64.0782Z" fill="#21211D"/>
<path fill-rule="evenodd" clip-rule="evenodd" d="M109.196 53.8282C109.196 53.8282 110.172 53.2463 110.874 52.2165C110.982 52.0593 111.224 52.1042 111.261 52.2908C111.511 53.563 111.735 56.9301 108.858 59.7021L109.196 53.8282Z" fill="#21211D"/>
<path fill-rule="evenodd" clip-rule="evenodd" d="M129.696 21.0973C129.714 21.1069 129.734 21.1115 129.752 21.1211C130.555 21.4655 131.324 21.8714 132.055 22.3292C130.139 26.2796 127.105 29.7769 123.65 32.538C121.004 34.6564 118.081 36.4174 114.985 37.7923C115.901 40.207 116.573 42.5069 117.003 44.6917C117.099 44.9658 117.148 45.2495 117.148 45.5286C117.148 46.5237 116.542 47.4663 115.556 47.8461C114.359 48.3075 113.008 47.7834 112.436 46.639L111.214 44.3168C110.398 42.0117 107.374 40.9478 106.171 40.5657C105.235 40.7486 104.292 40.8984 103.345 41.0148C102.855 38.8201 102.496 38.9476 101.896 35.1623C101.051 29.8291 103.279 25.1091 108.056 22.5323C114.489 19.0585 122.824 18.1664 129.696 21.0973Z" fill="#654206"/>
<path fill-rule="evenodd" clip-rule="evenodd" d="M112.356 48.2447C112.122 52.2899 108.652 55.3793 104.607 55.1448C100.562 54.9099 97.4729 51.4408 97.7074 47.3952C97.9416 43.35 101.411 40.2607 105.456 40.4951C109.502 40.73 112.591 44.1995 112.356 48.2447Z" fill="#F0B5AA"/>
<path fill-rule="evenodd" clip-rule="evenodd" d="M107.658 48.7316C107.597 48.7316 107.535 48.7197 107.476 48.6949L101.715 46.2813C101.474 46.1805 101.361 45.9041 101.462 45.6636C101.562 45.4235 101.84 45.3096 102.079 45.4107L107.841 47.824C108.081 47.9247 108.194 48.2015 108.094 48.4419C108.018 48.6226 107.843 48.7316 107.658 48.7316Z" fill="#21211D"/>
<path fill-rule="evenodd" clip-rule="evenodd" d="M104.077 49.7436C104.021 49.7436 103.964 49.7337 103.908 49.7122C103.665 49.6194 103.543 49.3466 103.636 49.1029L104.464 46.9373C104.557 46.6939 104.831 46.572 105.073 46.6648C105.316 46.7579 105.438 47.0307 105.346 47.2742L104.518 49.4401C104.446 49.628 104.267 49.7436 104.077 49.7436Z" fill="#21211D"/>
<path fill-rule="evenodd" clip-rule="evenodd" d="M106.488 23.7561C101.737 17.0823 92.3631 14.1329 84.6462 16.8841C80.9937 18.186 77.8426 20.5627 74.4837 22.5014C71.1251 24.4401 67.2775 25.9897 63.4489 25.3764C60.1852 24.8539 57.3461 22.8089 55.0752 20.4075C52.8042 18.0064 50.9844 15.2195 48.8733 12.6764C44.8261 7.8019 39.6104 3.79799 33.6186 1.7384C27.6271 -0.321187 20.8406 -0.327792 15.0707 2.28996L2.64221 49.5214C8.20799 45.2612 15.1669 42.8522 22.1753 42.7597C29.1837 42.6669 36.2036 44.891 41.8804 49.0026C45.3463 51.513 48.4317 54.7612 52.496 56.1005C56.566 57.4417 61.1324 56.6243 64.9143 54.6096C68.6966 52.5953 71.7831 49.4805 74.4662 46.1391C77.6791 42.1378 80.531 36.1843 84.8824 33.4638C90.068 30.2212 97.0896 29.2344 103.192 29.6343L106.488 23.7561Z" fill="#654206"/>
<path fill-rule="evenodd" clip-rule="evenodd" d="M101.747 29.9507C101.66 29.9507 101.572 29.9378 101.485 29.9108C101.022 29.7661 100.763 29.2753 100.907 28.8123C100.955 28.6584 102.113 25.0168 105.434 22.6335C105.828 22.3501 106.377 22.4406 106.66 22.835C106.943 23.2296 106.853 23.7786 106.459 24.0616C103.631 26.0915 102.596 29.3021 102.586 29.3344C102.468 29.7099 102.121 29.9507 101.747 29.9507Z" fill="#EDC829"/>
<path fill-rule="evenodd" clip-rule="evenodd" d="M148.892 41.3317C148.892 41.3317 146.436 44.3686 142.441 44.2262C140.748 44.1631 138.778 43.5369 136.61 41.8548C136.61 41.8548 138.721 39.4326 142.235 39.1985C144.097 39.0683 146.349 39.5469 148.892 41.3317Z" fill="white"/>
<path fill-rule="evenodd" clip-rule="evenodd" d="M148.892 41.3317C148.892 41.3317 146.436 44.3686 142.441 44.2262C141.88 43.5485 141.539 42.7013 141.499 41.7564C141.459 40.8115 141.733 39.9211 142.235 39.1985C144.097 39.0683 146.349 39.5469 148.892 41.3317Z" fill="#21211D"/>
<path fill-rule="evenodd" clip-rule="evenodd" d="M133.876 50.117C133.874 50.117 133.872 50.117 133.87 50.117L132.155 50.112C131.881 50.1114 131.659 49.8884 131.66 49.6143C131.661 49.3405 131.883 49.1192 132.156 49.1192H132.158L133.872 49.1239C134.225 49.1338 134.576 48.9591 134.798 48.6681C135.021 48.3774 135.093 48.0082 134.996 47.6555L132.935 40.1497C132.863 39.8851 133.018 39.612 133.283 39.5396C133.546 39.467 133.82 39.6222 133.893 39.8868L135.953 47.3922C136.133 48.0472 136 48.7318 135.588 49.2712C135.176 49.8089 134.553 50.117 133.876 50.117Z" fill="#21211D"/>
<path fill-rule="evenodd" clip-rule="evenodd" d="M147.627 37.1003C147.542 37.1003 147.456 37.0785 147.378 37.0329C141.984 33.8966 137.452 36.8582 137.262 36.9857C137.034 37.1386 136.726 37.0778 136.573 36.8509C136.42 36.6237 136.48 36.3159 136.707 36.1626C136.917 36.0203 141.931 32.7172 147.877 36.1745C148.114 36.3122 148.195 36.6161 148.057 36.8532C147.964 37.0117 147.798 37.1003 147.627 37.1003Z" fill="#21211D"/>
<mask id="mask13" mask-type="alpha" maskUnits="userSpaceOnUse" x="119" y="39" width="13" height="6">
<path fill-rule="evenodd" clip-rule="evenodd" d="M119.328 39.1784H131.61V44.2311H119.328V39.1784Z" fill="white"/>
</mask>
<g mask="url(#mask13)">
<path fill-rule="evenodd" clip-rule="evenodd" d="M131.609 41.3317C131.609 41.3317 129.153 44.3686 125.158 44.2262C123.465 44.1631 121.495 43.5369 119.327 41.8548C119.327 41.8548 121.439 39.4326 124.953 39.1985C126.814 39.0683 129.066 39.5469 131.609 41.3317Z" fill="white"/>
</g>
<path fill-rule="evenodd" clip-rule="evenodd" d="M131.61 41.3317C131.61 41.3317 129.153 44.3686 125.158 44.2262C124.597 43.5485 124.257 42.7013 124.216 41.7564C124.176 40.8115 124.451 39.9211 124.953 39.1985C126.815 39.0683 129.066 39.5469 131.61 41.3317Z" fill="#21211D"/>
<path fill-rule="evenodd" clip-rule="evenodd" d="M131.123 38.3779C131.111 38.3779 131.099 38.3776 131.087 38.3766C131.043 38.3736 126.613 38.0559 120.471 37.5747C120.198 37.5532 119.994 37.3141 120.015 37.041C120.037 36.7672 120.282 36.5634 120.549 36.5845C126.686 37.0658 131.114 37.3831 131.158 37.3861C131.432 37.4059 131.637 37.6434 131.618 37.9169C131.599 38.1784 131.381 38.3779 131.123 38.3779Z" fill="#21211D"/>
<path fill-rule="evenodd" clip-rule="evenodd" d="M130.682 54.669C129.868 54.669 129.208 54.0091 129.208 53.195C129.208 52.3809 129.868 51.721 130.682 51.721C131.496 51.721 132.156 52.3809 132.156 53.195C132.156 54.0091 131.496 54.669 130.682 54.669Z" fill="#21211D"/>
<path fill-rule="evenodd" clip-rule="evenodd" d="M660.204 454.184H799.561V314.827H660.204V454.184Z" fill="#B6CCFC"/>
<mask id="mask14" mask-type="alpha" maskUnits="userSpaceOnUse" x="660" y="314" width="140" height="78">
<path fill-rule="evenodd" clip-rule="evenodd" d="M660.204 314.827H799.561V391.029H660.204V314.827Z" fill="white"/>
</mask>
<g mask="url(#mask14)">
<path d="M622.742 352.5C622.742 352.5 674.265 317.512 684.801 332.689C695.336 347.866 684.201 395.286 729.799 390.721C775.398 386.156 775.193 306.168 745.045 311.504C714.897 316.84 712.442 405.585 803.42 347.189" stroke="#EE82DA" stroke-width="17"/>
</g>
<mask id="mask15" mask-type="alpha" maskUnits="userSpaceOnUse" x="673" y="406" width="127" height="49">
<path fill-rule="evenodd" clip-rule="evenodd" d="M673.562 406.298H799.561V454.183H673.562V406.298Z" fill="white"/>
</mask>
<g mask="url(#mask15)">
<path d="M673.562 483.291C673.562 483.291 683.346 423.537 732.03 411.117C780.715 398.697 786.679 430.489 765.838 439.407C744.997 448.326 719.425 411.266 806.028 406.298" stroke="#EE82DA" stroke-width="14"/>
</g>
<path fill-rule="evenodd" clip-rule="evenodd" d="M598.677 453.893H721.731L660.204 358.422L598.677 453.893Z" fill="#D5962F"/>
<path fill-rule="evenodd" clip-rule="evenodd" d="M643.087 406.304L638.011 392.859L605.662 443.054L606.166 453.893H664.018L688.048 401.626L663.208 363.082L643.087 406.304Z" fill="#EDE761"/>
<path fill-rule="evenodd" clip-rule="evenodd" d="M672.628 453.893H715.963L715.186 443.737L689.731 404.239L672.628 453.893Z" fill="#EDE761"/>
<mask id="mask16" mask-type="alpha" maskUnits="userSpaceOnUse" x="485" y="366" width="159" height="89">
<path fill-rule="evenodd" clip-rule="evenodd" d="M485.634 366.014H643.192V454.187H485.634V366.014Z" fill="white"/>
</mask>
<g mask="url(#mask16)">
<path fill-rule="evenodd" clip-rule="evenodd" d="M599.105 454.187C623.453 454.187 643.192 434.449 643.192 410.101C643.192 385.752 623.453 366.014 599.105 366.014H485.634V454.156L599.105 454.187Z" fill="#4965CC"/>
</g>
<path fill-rule="evenodd" clip-rule="evenodd" d="M529.721 410.101C529.721 434.449 509.983 454.188 485.634 454.188C461.286 454.188 441.547 434.449 441.547 410.101C441.547 385.753 461.286 366.014 485.634 366.014C509.983 366.014 529.721 385.753 529.721 410.101Z" fill="#B6CCFC"/>
<mask id="mask17" mask-type="alpha" maskUnits="userSpaceOnUse" x="441" y="366" width="89" height="89">
<path fill-rule="evenodd" clip-rule="evenodd" d="M441.547 410.101C441.547 434.449 461.285 454.188 485.634 454.188C509.982 454.188 529.721 434.449 529.721 410.101C529.721 385.752 509.982 366.014 485.634 366.014C461.285 366.014 441.547 385.752 441.547 410.101Z" fill="white"/>
</mask>
<g mask="url(#mask17)">
<path fill-rule="evenodd" clip-rule="evenodd" d="M425.369 391.128L538.844 350.334L536.214 355.594L424.886 398.986L425.369 391.128Z" fill="#EE82DA"/>
</g>
<mask id="mask18" mask-type="alpha" maskUnits="userSpaceOnUse" x="441" y="366" width="89" height="89">
<path fill-rule="evenodd" clip-rule="evenodd" d="M441.547 410.101C441.547 434.449 461.285 454.188 485.634 454.188C509.982 454.188 529.721 434.449 529.721 410.101C529.721 385.752 509.982 366.014 485.634 366.014C461.285 366.014 441.547 385.752 441.547 410.101Z" fill="white"/>
</mask>
<g mask="url(#mask18)">
<path fill-rule="evenodd" clip-rule="evenodd" d="M425.369 406.807L538.844 366.014L536.214 371.273L424.886 414.665L425.369 406.807Z" fill="#EE82DA"/>
</g>
<mask id="mask19" mask-type="alpha" maskUnits="userSpaceOnUse" x="441" y="366" width="89" height="89">
<path fill-rule="evenodd" clip-rule="evenodd" d="M441.547 410.101C441.547 434.449 461.285 454.188 485.634 454.188C509.982 454.188 529.721 434.449 529.721 410.101C529.721 385.752 509.982 366.014 485.634 366.014C461.285 366.014 441.547 385.752 441.547 410.101Z" fill="white"/>
</mask>
<g mask="url(#mask19)">
<path fill-rule="evenodd" clip-rule="evenodd" d="M426.427 423.098L539.902 382.305L537.272 387.565L425.944 430.956L426.427 423.098Z" fill="#EE82DA"/>
</g>
<mask id="mask20" mask-type="alpha" maskUnits="userSpaceOnUse" x="441" y="366" width="89" height="89">
<path fill-rule="evenodd" clip-rule="evenodd" d="M441.547 410.101C441.547 434.449 461.285 454.188 485.634 454.188C509.982 454.188 529.721 434.449 529.721 410.101C529.721 385.752 509.982 366.014 485.634 366.014C461.285 366.014 441.547 385.752 441.547 410.101Z" fill="white"/>
</mask>
<g mask="url(#mask20)">
<path fill-rule="evenodd" clip-rule="evenodd" d="M429.139 441.955L542.613 401.162L539.983 406.422L428.655 449.813L429.139 441.955Z" fill="#EE82DA"/>
</g>
<mask id="mask21" mask-type="alpha" maskUnits="userSpaceOnUse" x="441" y="366" width="89" height="89">
<path fill-rule="evenodd" clip-rule="evenodd" d="M441.547 410.101C441.547 434.449 461.285 454.188 485.634 454.188C509.982 454.188 529.721 434.449 529.721 410.101C529.721 385.752 509.982 366.014 485.634 366.014C461.285 366.014 441.547 385.752 441.547 410.101Z" fill="white"/>
</mask>
<g mask="url(#mask21)">
<path fill-rule="evenodd" clip-rule="evenodd" d="M432.376 462.672L545.85 421.878L543.221 427.138L431.892 470.53L432.376 462.672Z" fill="#EE82DA"/>
</g>
</svg>
