<svg width="582" height="491" viewBox="0 0 582 491" fill="none" xmlns="http://www.w3.org/2000/svg">
<path d="M536.545 306.053C537.911 293.089 538.004 279.599 537.278 259.7C537.262 259.233 537.245 258.737 537.224 258.094C536.977 250.448 536.845 247.718 536.409 243.542C535.442 234.265 533.442 227.262 529.752 222.425C522.601 213.068 510.619 211.098 491.396 213.297C488.677 213.608 486.081 213.958 481.995 214.546C472.28 215.945 468.639 216.41 465.046 216.53C462.44 209.961 457.079 204.975 448.836 202.273C444.338 200.797 439.73 199.597 434.878 198.612C426.398 196.89 419.236 196.054 404.42 194.78C404.299 194.77 402.439 194.61 401.892 194.563C400.923 194.479 400.121 194.41 399.35 194.342C390.566 193.569 381.212 193.325 369.267 193.429C365.401 193.462 362.209 193.514 355.444 193.643C350.628 193.735 348.692 193.77 346.144 193.806C336.769 193.948 324.022 195.15 297.375 198.125C296.499 198.223 296.499 198.223 295.624 198.321C267.423 201.473 257.692 202.447 248.975 202.757C240.242 203.072 226.891 203.489 209.956 203.984C207.244 204.064 204.452 204.145 201.588 204.227C188.725 204.597 77.5484 204.98 63.7672 205.355C58.9437 205.487 54.4648 205.607 50.4453 205.715C49.0385 205.753 47.7896 205.786 46.713 205.815C45.6221 205.844 45.6221 205.844 45.3926 205.85C44.151 205.883 43.1615 206.899 43.1615 208.141V375.811C43.1615 377.059 44.1604 378.077 45.4084 378.102L256.013 380.313C267.103 380.522 275.756 380.738 296.279 381.29C319.721 381.922 330.568 382.182 343.829 382.387C386.525 383.048 419.806 382.216 451.482 379.157C457.126 378.613 461.441 378.208 471.889 377.234C502.581 374.375 516.501 372.967 533.668 370.82C545.881 369.417 557.9 366.522 569.434 362.201C583.241 356.961 586.134 334.769 573.504 330.097C568.65 328.302 561.742 327.036 554.586 326.377C553.452 326.273 552.245 326.157 550.76 326.01C549.901 325.925 546.867 325.623 546.79 325.615C543.877 325.326 541.857 325.133 539.821 324.953C535.401 324.563 531.601 324.308 528.204 324.199C532.921 319.973 535.693 314.112 536.545 306.053Z" fill="#FCB7A0"/>
<path d="M532.077 245.277C527.202 247.568 522.201 249.582 517.099 251.311C502.71 256.529 491.573 259.663 468.133 265.535C466.905 265.843 466.159 267.088 466.467 268.315C466.775 269.543 468.019 270.289 469.247 269.981C492.831 264.073 504.083 260.906 518.616 255.636C523.835 253.868 528.995 251.789 534.026 249.425C535.172 248.887 535.664 247.522 535.126 246.377C534.588 245.231 533.223 244.739 532.077 245.277Z" fill="#E08879"/>
<path d="M465.401 307.398C473.351 306.111 480.899 304.659 488.198 302.993C501.312 300.028 515.979 295.062 535.04 287.643C536.22 287.184 536.804 285.856 536.344 284.676C535.885 283.497 534.557 282.913 533.378 283.372C514.514 290.714 500.023 295.62 487.183 298.523C479.978 300.168 472.525 301.602 464.669 302.873C463.419 303.076 462.57 304.252 462.773 305.502C462.975 306.751 464.152 307.6 465.401 307.398Z" fill="#E08879"/>
<path d="M409.504 313.334C416.27 312.871 422.049 312.43 427.561 311.944C428.822 311.833 429.754 310.721 429.643 309.46C429.531 308.2 428.419 307.268 427.159 307.379C421.68 307.862 415.93 308.3 409.191 308.762C407.928 308.848 406.974 309.942 407.061 311.205C407.147 312.467 408.241 313.421 409.504 313.334Z" fill="#E08879"/>
<path d="M324.426 312.063C325.712 314.667 325.653 317.023 324.588 322.813C324.481 323.394 324.43 323.672 324.37 324.008C324.275 324.545 324.195 325.013 324.125 325.463C323.929 326.713 324.784 327.886 326.034 328.082C327.284 328.278 328.457 327.423 328.653 326.173C328.718 325.758 328.792 325.32 328.883 324.812C328.941 324.487 328.99 324.215 329.096 323.642C330.338 316.888 330.415 313.839 328.535 310.033C327.975 308.898 326.601 308.433 325.466 308.993C324.331 309.554 323.865 310.928 324.426 312.063Z" fill="#E08879"/>
<path d="M526.828 323.83C520.397 327.262 505.869 332.155 496.862 333.916C495.365 334.212 490.002 335.288 490.081 335.272C478.467 337.593 471.477 338.749 464.007 339.371C449.139 340.61 437.02 338.908 426.63 333.353C420.186 329.914 415.396 322.619 411.995 311.888C409.281 303.328 407.627 293.445 406.346 280.47C406.221 279.21 405.099 278.29 403.84 278.414C402.58 278.539 401.66 279.661 401.785 280.92C403.095 294.187 404.794 304.34 407.626 313.273C411.354 325.036 416.772 333.288 424.471 337.396C435.744 343.423 448.713 345.245 464.388 343.939C472.078 343.298 479.205 342.119 490.979 339.767C490.906 339.781 496.262 338.706 497.746 338.413C507.173 336.57 522.128 331.533 528.986 327.874C530.102 327.278 530.525 325.89 529.929 324.773C529.333 323.657 527.945 323.235 526.828 323.83Z" fill="#E08879"/>
<path d="M415.539 270.106C415.574 270.538 415.611 270.977 415.65 271.423C416.186 277.537 416.97 283.654 418.052 289.379C420.014 299.751 422.722 307.681 426.451 312.352C433.175 320.753 454.476 323.079 462.6 315.701C466.081 312.541 467.808 305.841 468.727 295.648C468.923 293.48 469.076 291.209 469.211 288.613C469.263 287.62 469.31 286.625 469.366 285.373C469.369 285.308 469.468 283.053 469.495 282.454C469.589 280.41 469.664 279.142 469.757 278.174C471.011 264.373 471.415 250.518 470.969 236.678C470.767 232.111 470.413 228.246 469.776 222.859C469.736 222.518 469.344 219.252 469.236 218.327C469.091 217.069 467.953 216.168 466.696 216.314C465.439 216.46 464.538 217.597 464.684 218.855C464.792 219.79 465.185 223.064 465.224 223.398C465.849 228.682 466.194 232.445 466.389 236.853C466.828 250.479 466.429 264.145 465.193 277.749C465.093 278.804 465.014 280.127 464.917 282.244C464.889 282.848 464.79 285.108 464.787 285.169C464.732 286.41 464.685 287.395 464.634 288.375C464.501 290.917 464.352 293.133 464.163 295.236C463.352 304.222 461.802 310.235 459.519 312.307C453.399 317.866 435.139 315.872 430.031 309.49C426.899 305.566 424.388 298.214 422.556 288.527C421.505 282.969 420.739 276.997 420.216 271.023C420.033 268.93 419.893 266.988 419.791 265.246C419.756 264.638 419.727 264.099 419.705 263.635C419.693 263.36 419.685 263.172 419.681 263.079C419.598 260.821 416.643 260.033 415.447 261.95C411.042 269.008 405.924 275.596 400.174 281.609C394.505 287.295 387.534 291.591 379.86 294.113C378.658 294.508 378.003 295.803 378.398 297.005C378.793 298.208 380.089 298.862 381.291 298.467C389.649 295.72 397.242 291.042 403.454 284.811C407.861 280.202 411.896 275.291 415.539 270.106Z" fill="#E08879"/>
<path d="M170.235 378.412C176.64 371.651 182.461 363.642 184.947 356.056C189.53 342.031 189.336 321.681 186.483 307.278C183.733 293.528 177.992 279.778 168.802 269.122C161.217 260.333 149.644 252.175 138.048 248.726C128.022 245.758 117.824 250.41 113.424 253.802C120.391 240.694 126.452 224.858 120.471 215.417C117.922 211.404 114.518 208.004 110.502 205.459C134.267 204.806 207.566 204.772 210.866 204.52C205.534 191.862 197.7 178.12 187.835 168.564C176.227 157.621 159.017 150.998 143.961 151.662C129.741 152.293 120.276 154.367 115.028 157.999C108.314 162.651 98.4251 173.777 94.6668 184.261C92.959 182.469 90.9251 181.018 88.6741 179.987C79.4387 175.622 66.4449 176.286 58.3897 179.208C39.0164 186.429 25.515 204.138 23.6824 224.732C22.2042 240.556 25.9167 258.569 36.023 283.938C28.3344 279.033 19.7178 277.223 9.38234 284.797C-4.24164 294.8 -2.07601 340.702 9.76046 365.475C21.998 391.119 56.9459 399.312 85.0189 405.9L87.3105 406.427C106.011 410.816 122.831 412.523 143.812 413.841C148.395 414.139 153.23 414.276 158.238 414.276C165.204 414.276 172.606 414.001 180.57 413.44C190.064 412.771 199.496 411.411 208.792 409.372C227.423 405.259 246.112 399.713 252.082 381.414C252.082 381.395 252.082 380.23 252.082 380.211L170.235 378.412Z" fill="#7BD5E1"/>
<path d="M284.257 457.451C283.271 453.977 280.854 451.086 277.611 449.499C270.85 446.348 261.729 449.625 254.11 452.616C254.602 451.722 255.129 450.817 255.657 449.9C260.24 442.028 265.843 432.243 256.665 422.309C250.134 415.25 238.022 414.471 229.944 417.324C219.414 421.048 213.822 430.352 211.53 440.436C209.521 436.794 206.391 433.897 202.604 432.174C196.016 429.333 188.751 431.131 182.655 437.113C171.919 447.666 175.024 460.236 179.058 470.113C171.037 466.859 159.418 463.788 153.574 465.529C132.674 471.786 131.162 481.457 131.206 484.275C131.191 485.403 131.998 486.375 133.11 486.567C146.45 488.836 159.957 489.986 173.489 490.004C177.006 490.004 180.559 489.924 184.122 489.775C200.427 489.076 216.962 487.656 232.958 486.269L243.27 485.387C245.459 485.203 248.896 484.848 252.769 484.241C263.826 482.476 278.081 478.581 283.225 470.09C285.508 466.264 285.889 461.596 284.257 457.451Z" fill="#7BD5E1"/>
<path d="M122.407 214.19C117.087 205.681 108.228 199.989 98.2643 198.684C97.0093 198.52 95.8588 199.404 95.6945 200.659C95.5301 201.914 96.4143 203.064 97.6692 203.229C106.275 204.355 113.927 209.272 118.528 216.632C123.093 223.838 120.037 236.476 111.4 252.727C110.239 254.911 112.885 257.131 114.835 255.608C120.438 251.23 129.697 248.662 137.402 250.925C148.08 254.09 159.387 261.721 167.067 270.619C175.481 280.41 181.342 293.393 184.236 307.732C187.285 323.075 186.905 342.688 182.769 355.345C179.632 364.919 170.919 377.121 162.822 383.189C161.809 383.948 161.603 385.384 162.362 386.397C163.121 387.41 164.557 387.616 165.57 386.857C174.423 380.223 183.696 367.237 187.125 356.77C191.528 343.295 191.924 322.902 188.73 306.832C185.688 291.758 179.503 278.058 170.54 267.628C162.303 258.085 150.257 249.955 138.699 246.529C132.164 244.609 124.912 245.517 118.861 248.044C125.57 233.604 127.427 222.115 122.407 214.19Z" fill="#1A4E66"/>
<path d="M57.014 306.189C48.5359 307.646 41.9429 313.008 37.1341 321.28C33.4312 327.65 30.956 335.47 29.6588 343.475C29.4563 344.725 30.305 345.901 31.5544 346.104C32.8037 346.306 33.9806 345.458 34.1831 344.208C37.0651 326.423 44.9153 312.919 57.7925 310.706C66.1763 309.256 77.5777 316.557 80.7667 325C81.5552 327.088 84.5589 326.932 85.1268 324.774C86.4904 319.592 93.6603 312.299 99.058 310.468C100.257 310.062 100.899 308.761 100.492 307.562C100.086 306.363 98.7847 305.721 97.5861 306.128C92.2877 307.924 86.0848 313.435 82.7565 318.955C77.2451 310.67 66.1053 304.617 57.014 306.189Z" fill="#1A4E66"/>
<path d="M508.771 172.54C508.655 171.789 508.174 171.146 507.488 170.821C497.462 166.077 481.879 162.8 470.936 169.354C464.471 173.11 459.782 179.301 457.919 186.542C456.852 190.976 457.091 195.624 458.607 199.925C457.209 201.552 455.914 203.191 454.722 204.818C456.049 205.568 457.307 206.435 458.481 207.407C459.191 206.433 459.947 205.459 460.772 204.474C460.864 204.623 460.933 204.772 461.024 204.909C461.166 205.139 461.349 205.341 461.563 205.505C464.06 207.357 467.106 208.317 470.214 208.232C477.788 208.232 485.855 203.649 488.822 200.716C492.798 196.843 495.766 192.007 498.642 187.332C501.518 182.657 504.371 178.005 508.107 174.522C508.634 174.006 508.882 173.269 508.771 172.54ZM494.7 184.983C491.847 189.567 489.155 194.001 485.591 197.484C482.772 200.246 471.257 206.731 464.634 202.148C464.37 201.712 464.153 201.266 463.923 200.819C471.841 192.065 482.005 183.883 488.204 180.95C488.987 180.628 489.529 179.899 489.613 179.056C489.696 178.213 489.308 177.392 488.602 176.923C487.897 176.453 486.99 176.411 486.244 176.813C479.988 179.77 470.283 187.401 462.182 195.949C461.634 193.205 461.689 190.374 462.342 187.653C463.909 181.597 467.838 176.421 473.25 173.284C481.661 168.288 493.646 170.168 502.527 173.685C499.6 177.217 496.982 180.993 494.7 184.972V184.983Z" fill="#007D43"/>
<path d="M449.165 152.361C450.781 134.75 453.164 122.81 456.441 115.867C456.905 114.739 456.404 113.446 455.303 112.924C454.201 112.402 452.883 112.834 452.305 113.907C448.787 121.344 446.266 133.787 444.593 151.949C444.364 154.435 444.192 157.231 444.066 160.222C442.53 158.536 440.904 156.933 439.196 155.421C438.337 142.427 431.439 133.833 418.674 129.869C412.853 128.28 406.777 127.844 400.788 128.585C400.65 128.585 385.892 131.244 382.936 134.727C382.45 135.292 382.27 136.058 382.452 136.781C382.635 137.503 383.157 138.092 383.853 138.359C388.619 140.204 391.873 145.612 395.311 151.342C399.321 158.068 403.469 165.023 410.825 167.005C414.502 168.09 418.303 168.695 422.135 168.804C428.941 168.804 433.456 165.997 437.283 159.832C439.494 161.878 441.547 164.088 443.424 166.444C443.573 166.613 443.742 166.764 443.929 166.891C443.745 177.089 444.009 189.017 444.582 200.956C446.026 201.357 447.469 201.793 448.924 202.274L449.234 202.389C448.237 183.574 448.042 164.519 449.165 152.361ZM405.463 145.647C416.692 147.171 425.916 150.792 433.708 156.83C429.697 163.705 424.942 166.066 411.937 162.559C406.368 161.058 402.873 155.192 399.161 148.97C396.331 144.203 393.432 139.322 389.33 136.24C393.252 134.867 397.279 133.817 401.372 133.1C406.702 132.457 412.105 132.846 417.288 134.246C426.695 137.168 432.184 142.794 434.006 151.376C426.134 145.922 416.967 142.587 406.036 141.064C405.217 140.955 404.403 141.292 403.899 141.946C403.396 142.601 403.28 143.475 403.596 144.238C403.911 145.001 404.61 145.538 405.429 145.647H405.463Z" fill="#007D43"/>
<path d="M484.709 370.46C483.242 367.182 481.718 363.802 480.309 360.365C477.742 354.177 475.531 348.402 473.571 342.902C472.024 343.12 470.478 343.326 468.919 343.51C470.982 349.353 473.331 355.506 476.069 362.118C477.513 365.613 479.048 368.993 480.538 372.339C483.377 378.285 485.826 384.409 487.871 390.672C488.155 391.646 489.046 392.317 490.06 392.322C490.281 392.32 490.5 392.289 490.713 392.23C491.923 391.871 492.615 390.6 492.26 389.389C490.17 382.917 487.648 376.593 484.709 370.46Z" fill="#007D43"/>
<path d="M528.148 30.456C524.33 26.6389 518.888 24.9276 513.573 25.8727C512.17 26.1732 510.846 26.7667 509.688 27.6144V27.4196C508.325 20.5446 506.789 12.856 499.926 9.46436C495.743 7.3904 489.258 7.44769 482.99 9.60186C479.464 10.7339 476.232 12.6316 473.526 15.1592C469.872 7.7261 463.008 2.38244 454.906 0.66435C445.453 -1.40961 437.718 1.36331 431.13 9.10915C412.269 31.3842 413.862 68.8415 426.294 92.1822C432.172 103.217 442.703 112.074 455.937 117.127C462.174 119.527 468.745 120.949 475.416 121.344C476.593 121.412 477.761 121.447 478.922 121.447C499.788 121.447 517.445 110.573 527.724 91.2197C537.795 72.3363 542.218 45.2259 528.148 30.456Z" fill="#FC6E47"/>
<path d="M496.7 44.4837C486.605 41.9148 476.794 47.9777 470.708 57.6801C469.346 51.1131 467.466 46.5172 464.127 42.8006C457.526 35.4291 449.229 34.5494 442.213 39.7628C441.142 29.8039 435.926 22.5201 426.399 20.7218C425.155 20.4871 423.956 21.305 423.722 22.5487C423.487 23.7924 424.305 24.9909 425.548 25.2256C434.048 26.8298 438.121 34.2536 437.822 44.8173C437.761 46.978 440.451 48.0141 441.855 46.3709C447.737 39.4886 454.751 39.2004 460.715 45.8609C463.665 49.1445 465.311 53.5566 466.564 60.374C466.805 61.6833 466.943 62.5236 467.367 65.1805C467.732 67.4727 470.882 67.8313 471.754 65.68C476.336 54.3677 486.136 46.5249 495.568 48.9249C503.771 51.0216 507.272 56.826 509.344 68.6638C509.803 71.2809 513.601 71.1517 513.881 68.5095C514.305 64.5009 517.887 60.258 522.446 58.2639C527.09 56.2327 531.23 57.0627 533.57 60.9018C534.228 61.9826 535.639 62.3247 536.719 61.6661C537.8 61.0074 538.142 59.5973 537.484 58.5166C533.828 52.5176 527.189 51.1867 520.609 54.0646C517.252 55.5329 514.297 57.9355 512.243 60.7847C509.588 51.8074 505.096 46.6296 496.7 44.4837Z" fill="#C44538"/>
<path d="M515.547 44.0931C515.098 43.4699 514.663 42.8837 514.242 42.3372C513.469 41.3348 512.03 41.1486 511.028 41.9213C510.025 42.694 509.839 44.133 510.612 45.1354C511.001 45.64 511.406 46.1866 511.827 46.7712C512.567 47.7983 513.999 48.0314 515.026 47.2919C516.053 46.5524 516.286 45.1202 515.547 44.0931Z" fill="#FCD400"/>
<path d="M492.68 30.8372L491.843 31.4674C490.833 32.229 490.631 33.6659 491.392 34.6767C492.154 35.6876 493.591 35.8896 494.601 35.128L495.438 34.4978C496.449 33.7362 496.651 32.2994 495.889 31.2885C495.128 30.2776 493.691 30.0756 492.68 30.8372Z" fill="#FCD400"/>
<path d="M478.053 37.5297L477.973 37.06C477.76 35.8124 476.576 34.9736 475.328 35.1867C474.081 35.3997 473.242 36.5837 473.455 37.8313L473.535 38.3011C473.748 39.5487 474.932 40.3874 476.18 40.1744C477.428 39.9614 478.266 38.7773 478.053 37.5297Z" fill="#FCD400"/>
<path d="M461.69 29.5738C460.713 30.019 459.908 30.7713 459.398 31.716C458.796 32.8297 459.211 34.22 460.325 34.8214C461.439 35.4228 462.829 35.0076 463.43 33.894C463.466 33.8281 463.522 33.7756 463.59 33.7445C464.742 33.2197 465.25 31.8606 464.725 30.7089C464.201 29.5572 462.842 29.049 461.69 29.5738Z" fill="#FCD400"/>
<path d="M456.163 19.0007C454.962 19.401 454.314 20.6988 454.714 21.8995C455.363 23.8462 457.34 24.39 458.997 23.4827C460.107 22.8748 460.514 21.4821 459.906 20.372C459.512 19.6518 458.787 19.2275 458.024 19.1843C457.477 18.873 456.806 18.7863 456.163 19.0007Z" fill="#FCD400"/>
<path d="M448.993 28.6323C450.074 27.9742 450.417 26.5644 449.759 25.4832C448.725 23.7841 446.904 23.6102 445.287 24.4188C444.155 24.9848 443.696 26.3614 444.262 27.4934C444.735 28.4383 445.772 28.9142 446.76 28.7165C447.445 29.0649 448.289 29.0611 448.993 28.6323Z" fill="#FCD400"/>
<path d="M482.693 24.4729L481.937 25.6187C481.24 26.675 481.531 28.0965 482.587 28.7937C483.644 29.4909 485.065 29.1997 485.762 28.1434L486.518 26.9976C487.216 25.9412 486.924 24.5197 485.868 23.8226C484.812 23.1254 483.39 23.4165 482.693 24.4729Z" fill="#FCD400"/>
<path d="M488.779 38.0211L487.393 38.2732C486.147 38.4996 485.321 39.6926 485.548 40.9379C485.774 42.1831 486.967 43.009 488.213 42.7826L489.599 42.5305C490.844 42.3041 491.67 41.1111 491.444 39.8659C491.217 38.6206 490.024 37.7947 488.779 38.0211Z" fill="#FCD400"/>
<path d="M500.865 40.5448L500.945 41.0032C501.164 42.2499 502.351 43.0837 503.598 42.8655C504.844 42.6473 505.678 41.4598 505.46 40.2131L505.38 39.7548C505.162 38.5081 503.974 37.6743 502.727 37.8924C501.481 38.1106 500.647 39.2981 500.865 40.5448Z" fill="#FCD400"/>
</svg>
