<svg width="367" height="393" viewBox="0 0 367 393" fill="none" xmlns="http://www.w3.org/2000/svg">
<path d="M181.606 226.855C159.116 257.405 124.596 278.215 81.5063 289.115C63.3263 293.715 44.3664 296.795 28.0164 305.855C11.6664 314.915 -1.84365 331.925 0.206354 350.055C2.72635 372.315 26.8864 386.205 49.6064 389.745C97.3964 397.185 151.206 389.685 184.306 351.145C210.076 321.135 219.656 279.035 248.326 251.785C276.086 225.405 318.186 216.565 342.276 186.795C354.966 171.105 361.226 151.105 364.326 131.165C368.716 102.925 367.036 72.9554 354.166 47.4354C341.296 21.9254 315.896 1.7454 287.366 0.135397C212.566 -4.0746 213.116 90.9254 210.466 141.195C208.686 175.235 198.566 203.815 181.606 226.855Z" fill="#FDC2BA"/>
</svg>
