<svg width="852" height="345" viewBox="0 0 852 345" fill="none" xmlns="http://www.w3.org/2000/svg">
<path d="M232.896 125.152C293.877 54.7282 399.019 43.6539 473.334 99.8272L501.825 121.363C525.368 139.159 552.602 151.451 581.523 157.334L615.269 164.198C750.637 191.735 804.181 356.494 711.104 458.569V458.569C676.602 496.406 660.178 547.975 666.01 598.848V598.848C681.605 734.888 542.652 838.001 418.319 780.632V780.632C371.649 759.097 317.885 759.097 271.215 780.632V780.632C146.881 838.001 7.65496 737.274 23.25 601.234L24.2679 592.355C29.6717 545.216 14.426 498.044 -17.5434 462.985V462.985C-107.634 364.186 -48.2231 204.888 84.5619 189.212L119.888 185.041C163.707 179.868 204.012 158.508 232.896 125.152V125.152Z" fill="#7BD5E1"/>
<path d="M667.543 208.849C695.419 234.579 712.285 271.188 718.354 315.219C720.916 333.796 721.881 352.981 729.078 370.232C736.275 387.484 751.687 402.791 769.932 402.758C792.334 402.715 808.81 380.239 814.841 358.049C827.519 311.375 826.014 257.066 791.37 219.908C764.393 190.978 723.61 176.802 699.697 145.295C676.548 114.788 672.417 71.9691 645.492 44.7354C631.302 30.3886 612.116 21.9557 592.641 16.6701C565.06 9.18479 535.088 7.54103 508.301 17.5106C481.525 27.4813 458.66 50.4945 453.906 78.6716C441.452 152.548 535.93 162.504 585.599 170.696C619.234 176.228 646.519 189.446 667.543 208.849Z" fill="#FDC2BA"/>
</svg>
