<svg width="1156" height="912" viewBox="0 0 1156 912" fill="none" xmlns="http://www.w3.org/2000/svg">
<path d="M465.896 125.152C526.877 54.7282 632.019 43.6539 706.334 99.8272L734.825 121.363C758.368 139.159 785.602 151.451 814.523 157.334L848.269 164.198C983.637 191.735 1037.18 356.494 944.104 458.569C909.602 496.406 893.178 547.975 899.01 598.848C914.605 734.888 775.652 838.001 651.319 780.632C604.649 759.097 550.885 759.097 504.215 780.632C379.881 838.001 240.655 737.274 256.25 601.234L257.268 592.355C262.672 545.216 247.426 498.044 215.457 462.985C125.366 364.186 184.777 204.888 317.562 189.212L352.888 185.041C396.707 179.868 437.012 158.508 465.896 125.152Z" fill="#7BD5E1"/>
</svg>
