<svg width="461" height="726" viewBox="0 0 461 726" fill="none" xmlns="http://www.w3.org/2000/svg">
<path d="M267.884 0.00433616C243.611 0.327636 235.028 26.3301 230.887 46.2945C226.229 68.7505 222.832 93.3485 225.054 116.295C227.341 139.915 235.709 162.965 243.217 185.295C247.883 199.174 262.75 232.476 243.88 241.526C223.372 251.363 208.57 230.424 196.888 217.335C178.999 197.292 157.543 185.476 130.884 182.013C116.757 180.178 99.4143 182.438 89.2133 193.469C70.9043 213.265 90.6963 241.833 105.139 256.781C135.262 287.959 182.855 302.668 207.971 338.295C218.57 353.329 222.616 385.557 208.671 400.186C197.796 411.594 177.792 396.982 167.884 390.603C137.845 371.265 108.251 346.72 72.8843 337.922C54.5493 333.36 33.5213 337.967 29.2633 359.295C25.3283 379.001 46.5183 396.634 60.0543 407.334C93.9433 434.123 134.212 453.932 165.884 483.384C172.991 489.993 180.759 497.069 184.405 506.295C189.692 519.675 182.762 539.865 173.949 550.255C159.723 567.026 133.344 565.145 116.884 552.917C88.0293 531.482 69.6833 480.109 25.8843 491.45C19.7473 493.039 13.7483 495.151 9.05831 499.599C-16.7447 524.067 19.1363 568.236 35.3083 587.294C45.9863 599.878 57.7373 611.437 68.8843 623.581C111.208 669.686 165.605 725.796 232.883 725.292C255.68 725.121 277.27 715.372 296.884 704.601C340.163 680.832 379.686 647.642 410.789 609.295C429.566 586.144 451.992 551.533 429.214 523.31C420.515 512.532 405.242 512.763 392.884 515.925C366.428 522.693 347.3 542.608 322.884 553.433C305.743 561.033 283.123 562.57 284.974 537.295C286.508 516.355 302.808 496.888 318.884 484.925C351.046 460.991 390.245 448.191 422.884 424.868C446.284 408.146 470.095 383.219 456.929 352.295C449.967 335.943 432.666 338.085 418.884 343.499C387.599 355.791 360.98 377.691 328.884 388.294C316.633 392.342 287.942 400.194 282.541 382.295C280.5 375.533 285.614 367.579 289.324 362.295C299.492 347.811 314.894 337.161 328.884 326.668C338.16 319.712 347.458 312.756 356.884 306.005C364.347 300.66 371.585 294.98 378.884 289.411C415.625 261.378 470.116 212.346 438.416 161.295C427.727 144.079 406.773 143.196 390.884 153.385C369.256 167.255 360.04 192.616 346.54 213.295C342.691 219.191 331.037 240.527 321.924 236.983C316.301 234.796 314.277 226.49 313.015 221.295C309.264 205.854 311.096 189.799 313.46 174.291C319.657 133.653 331.608 88.2065 322.233 47.2945C316.501 22.2852 295.243 -0.359964 267.884 0.00433616Z" fill="#C1D9C9"/>
</svg>
